<?xml version="1.0" encoding="UTF-8"?>
<svg id="uuid-646c2467-64b9-43ec-8f33-b8188f0c74ef" data-name="Layer 2" xmlns="http://www.w3.org/2000/svg" width="89.3mm" height="99.5mm" viewBox="0 0 253 281.9">
  <defs>
    <style>
      .uuid-bf6fc312-845d-435b-a6e3-8c374ba63bae {
        fill: #757ab9;
      }
    </style>
  </defs>
  <g id="uuid-609738f8-507e-4011-b72f-2a7647bfcab9" data-name="Layer 1">
    <g>
      <path class="uuid-bf6fc312-845d-435b-a6e3-8c374ba63bae" d="M248.8,94.2c-3.1,.7-6,1.6-8.6,3.5-1.4,1-2.9,2-4.4,2.7-1.4,.6-2.9,.8-4.3,1.2l-.2-.3c.2-.3,.4-.8,.6-.9,1.1-.4,2.3-.6,3.4-1,1.3-.6,2.7-1.3,3.8-2.1,3.2-2.4,5.8-5.4,8.1-8.7,.6-.9,1.4-1.7,2.2-2.8-2.2,.9-4.1,1.7-6.2,2.5-2.6,1-5.2,1.9-7.8,2.7-.3,.1-.8,0-1.1,0-.7-.3-1.4-.6-2.1-.9,.5-.4,1-.9,1.6-1.2,2.9-1.3,5.7-2.6,8.6-3.9,4.6-2.1,7.3-5.7,8-10.7,.2-1.6-.7-2.5-2.6-2.2-1.9,.3-3.9,.6-5.7,1.2-1.7,.5-3.4,.5-5.1,.9-1.7,.4-3.2,1.4-4.9,2.2-.2,0-.7-.3-1-.2-2.3,.6-4.4,1.5-6.7,1.9-2.6,.5-5.2,1-7.8,.2-.4-.1-.8-.3-1.1-.7,.3,0,.7,0,1,0,3.3,.6,6.5,.2,9.7-.8,3.3-1.1,6.6-2.4,10-3.3,3.1-.9,6.4-1.2,9.5-2.1,2.2-.6,4-.3,5.9,.7,0,4.8-1.7,8.8-5.5,11.7-2.2,1.7-4.9,2.6-7.4,3.8-1.5,.7-3,1.3-4.5,2.1,6.7-.3,12.4-4.3,18.8-5.4v.4c-.1,.1-.3,.3-.6,.4-2.5,.9-3.9,2.8-5.3,5-.9,1.5-2.3,2.8-3.4,4.2-.2,.2-.3,.4-.5,.7,2.6-.8,5-1.5,7.6-2.3,.1,1.3-.9,1.6-1.5,2.1-2,1.6-4,3.3-6,4.9l.2,.4,5.9-.4v.3c-.2,.2-.4,.6-.7,.7-3.1,.9-4,3.7-5.4,6.1-1.7,3-3,6.3-4.6,9.4-.8,1.6-2,3.1-2.9,4.7-.5,.8-.9,1.7-1.1,2.7-.5,1.9-.5,3.9-1.2,5.7-.8,2.1-.7,4.1-.8,6.2,0,.9-.3,1.8-.7,2.6-1,1.8-1.8,3.7-1.4,5.8,0,.5-.2,1.1-.2,1.7,0,2.1,0,4.1,0,6.2,0,.8-.2,1.3-1,1.4-2.6,.2-5.2,.6-7.7,.6-1.5,0-3.2,1.2-3.1,2.7,0,1.8,.3,3.6,.3,5.4,0,1.5-.3,3-.6,4.5-.4,2.4-.7,4.8-1.2,7.2-.4,2.3-1.7,3.9-4.1,4.2-3.5,.4-6.3,2.2-9.4,3.7-3.4,1.7-5.7,4.4-7.8,7.5-2.3,3.5-5.2,6.5-9.8,6.9-.4,0-.7,.2-1.1,.4-1.5,.9-3,.5-4.6,.4-1.3,0-2.6-.2-3.8,0-2.4,.4-4.9-.2-7.2,.8-.1,0-.3,0-.4,0-2.7,1.7-5.8,1.3-8.6,1.4-3.6,0-7.2,.9-10.7-.1-1.3-.4-2.6-.1-3.8,.8-1.9,1.5-3.8,2.9-5.4,4.1,.8,.9,1.4,1.6,2,2.3,.2,.2,.7,.3,1,.5,.3-1.3,2-1.6,2-3.3,0-3.4,.4-3.4,3.4-3.5,.6,0,1.2,.1,1.7,0,2.1-.5,3.7,.6,5.1,1.9,.3,.3,.6,.8,.6,1.2-.1,2.1-.4,4.2-.6,6.2-.2,1.9-.5,3.7-.3,5.6,.3,2.9-.1,5.7-1,8.5-1.1,3.7-2,7.5-3,11.2-.6,2.5-1.2,4.9-1.8,7.4-.3,1.1,0,1.6,1,1.9,.4,.1,.7,.4,1.1,.6,.5,.3,1,.5,1.6,.7,.5,.6,.6,2.1,2,.9,0,0,.5,.1,.7,.3,.9,1,2.4,.8,2.9-.3,.6,.4,1.3,.9,2,1.3,.8,.5,1.7,1,2.5,1.4,1.2,.5,2.3,1,3.5,1.5,2.3,.9,4.6,1.8,6.9,2.7,1.1,.4,2.3,.9,3.7,1.4-.5,.3-.8,.5-1,.6-.7,.2-1.5,.4-2.2,.6-2.9,.5-3.2,2.8-3,4.8,0,.5,.2,1,0,1.4-.3,1.5-.9,1.8-2.4,1.4-1.8-.5-3.6-.7-5.4-1.1-2.6-.6-5.1-1.4-7.7-2-.9-.2-1.9,0-2.8-.1-1.6-.3-3.1-.7-4.7-1-1.2-.2-2.4-.5-3.6-.5-1.6,0-3.3,0-4.9,.3-1.5,.2-1.6,.5-1,1.4-.2,1.1-.3,1.9-.5,3-.9-.2-2.1-.2-3.2-.7-1.5-.7-3.4-.8-4.3-2.6,0,0-.2-.1-.2-.1-2.5-.2-2.1-2.2-1.9-3.7,.2-1.2,.2-2.3-.3-3.4,0-.2,0-.5,0-1.1,.6,.4,1,.6,1.3,1,.8,1.2,2.1,.7,3,.5,.4-.1,.7-1.4,.8-2.2,.1-3.3,.2-6.6,.1-9.9,0-1.7-.7-3.5-.8-5.2-.2-4.8-3.5-7.8-6.1-11.3-.7-.9-1.4-.3-2,0-2.3,1.3-4.5,2.5-6.2,4.7-1.1,1.4-3.1,2.2-4.7,3.3-2.6,1.7-4.1,4.3-5.4,7.1-.4,.9-1.2,1.5-1.9,2.2-.6,.6-1.4,1.1-2,1.8-1.7,1.9-4.3,2-6.3,3.1-3.3,1.8-6.2,.3-9.2-1.1-.6-.3-1.3-.5-2-.7-3.3-.8-6.5-1.8-9.8-2.3-2.6-.3-4.9-1.4-7.3-2.3-4.3-1.8-8.7-3.3-13.2-4.7-1.8-.5-3.7-.6-5.6,.3-2,.9-4.3,1.3-6,2.9-.5,.4-1.4,.7-.4,1.6,.2,.2,.1,1,0,1.4-1,2.7,0,5.3,0,8,0,1,.2,1.9,.1,2.9,0,1.4,0,2.6,.7,3.9,.4,.8,.7,2-.9,2.3-.3,0-.6,.5-.7,.9-.4,1.7-.5,3.4-1.1,5.1-.8,2.4-1.2,4.8-2.8,7-1.1,1.4-1.1,3.6-1.6,5.5-.5,2-1,2.5-3.1,2.6-1.5,0-2.8,.5-3.7,1.9-.4,.7-.8,.6-1.1-.1-.7-1.9-1.7-3.3-3.4-4.6-1.1-.9-1.4-2.9-1.8-4.5-.3-1.2-.2-2.6-.2-3.9,0-1.1,0-2.3,.6-3.2,1.1-1.7,1.6-3.6,1.6-5.5,0-1.9,1-3.3,1.8-4.9,1.1-2.1,1.9-4.2,1.8-7l-2.3,1.1c0-.3-.2-.6-.3-.9-.2-2.1,0-4,.8-6,.5-1.4,0-3.1,0-4.9,.3,0,.9,0,1.5,0,.9,0,1.6-.4,2-1.3,.3-.6,1.2-.9,1.8-1.3l.3,.3v-1.1c.7,.3,1.3,.5,1.8,.8,1.1,.7,1.4,0,1.9-.8,2.1-3.2,4.9-5.4,8.6-6.4,1.3-.3,2.6-1,4-1.2,1.4-.2,2.9-.2,4.4,0,2.7,.2,5.3,1,8.1,.3,.7-.2,1.5-.3,2.3-.3,1.8-.2,3.2-1,4.6-1.9,2.2-1.5,4.6-2.8,7.5-2.7,1.4,0,2.6,0,3.9-.6,1.5-.7,3.5-.6,5.2-.4,2,.2,3.7-.4,5.3-1.5,1.2-.8,2.4-1.5,3.6-2.2,1.2-.8,1.8-1.8,1.9-3.4,.1-1.9,.7-3.7,1.2-5.6,0-.3,.8-.5,1.2-.8-.5,2.6-1,4.8-1.3,7.1-.3,2.1-1.6,3.4-3.3,4.4-1.3,.7-2.5,1.5-3.7,2.3-1.7,1.2-3.5,.7-5.3,.8-1.4,0-2.9,.3-4.3,.5-1.4,.2-2.7,.6-4.1,.5-2.9,0-5.1,1.3-7.5,2.8-1.1,.6-2.3,1.1-3.4,1.5-1.1,.4-2.3,.6-3.5,.8-3.4,.7-6.8-.1-10.1-.6-.6,0-1.3,0-1.8,.1-3,1.1-6.2,1.8-8.9,3.4-2.7,1.6-4.7,4.1-5,7.5-.1,1.1-.6,2.2-.5,3.2,.2,1.9,.6,3.8,.9,5.8,0,.5,.1,1,.2,1.9,.7-1.2,1.3-2.2,1.8-3.2,.5-1,1-2.1,1.2-3.2,.2-.8,0-1.6-.2-2.4-.2-1.1-.5-2.1-.8-3.1h.5l1,3.4c.9-.9,1.6-1.8,2.3-2.5,1.6-1.5,3.5-2.3,5.6-2.6,.6,0,1.2-.7,1.8-.8,1.7,0,3.5-.2,5.1,.2,4.3,1.3,8.5,2.8,12.7,4.4,1.9,.7,3.6,1.7,5.6,2.2,4.1,1,8.2,1.7,12.3,2.7,1.7,.4,3.3,1.2,4.9,2,2,.9,3.8,.4,5.7-.3,1.4-.6,3-1,4.2-1.9,2.5-1.8,4.9-3.8,6.2-6.7,1.4-3.2,4-5.2,6.9-7,1.3-.8,2.5-1.8,3.5-2.9,.7-.8,1.4-1.5,2.3-2,.9-.5,1.8-1,2.8-1.5,1.1-.6,2.4-1.2,3.4,0,2.4,3,5.4,5.7,6,9.6,.7,3.9,1.8,7.7,1.2,11.7-.3,2.1,.4,4.3,.1,6.5-.4,2.9,1.5,4.4,3.3,5.9,.4,.4,1.5,0,2.2,0,.6,0,1.2,0,1.8,0,.4,0,.8,.3,1.1,.1,2.5-1,4.7,0,7,.9,1,.4,2,.6,3.1,.6,2.9,0,5.6,.3,8.3,1.4,.9,.4,1.9,.4,2.8,.6,1.9,.3,3.8,.6,6,1,0-1-.1-2.2-.2-3.7,.5-1.7,1.5-3.5,3.9-4v-.3c-4.8-1.9-9.4-3.9-14.2-5.8-.8,1-.5,3.1-2.7,3.4l1.6-3.5h-2.8c0,.5,0,1.1-.3,1.7-.2,.3-.7,.5-1.1,.7,0-.4-.3-.9-.1-1.2,.6-.9,.5-1.4-.5-2-.3,.8-.5,1.5-.7,2.2,0,.2-.4,.2-.7,.3,0-.2-.2-.5-.2-.7,.5-2.2,.4-2.7-1.6-3.7-2.7-1.4-2.6-1.4-1.8-4.3,.4-1.6,.7-3.2,1.1-4.8,1.3-5,2.7-9.9,3.9-14.9,.5-2.1,.7-4.3,.5-6.4-.3-2.6,.4-5,.8-7.5,.2-1.2,.3-2.4,.4-3.6,0-.3-.4-.5-.6-.8-1.2-2.1-3.2-2.3-5.3-2.1-2.7,.3-2.9,.3-3.1,3.1-.1,1.9-1.5,2.8-2.4,4.1-.1,.2-.9,.2-1.1,0-.6-.4-1.2-.9-1.7-1.5-1-1.4-1.8-1.7-3.3-.8-1.7,1-3.4,1.3-5.3,.9-1.3-.3-2.4,.4-3.3,1.3-1.4,1.4-1.6,1.4-3,.1-1.2-1-2.5-1.9-3.7-2.8-.3-.2-.6-.2-1-.2-1.2-.1-2.5-.2-3.7-.3-.9-.1-1.6,0-1.9,1.1,0,.3-.6,.7-.9,.7-1,0-2,0-3-.2-2.1-.6-4-.9-5.8,1-.8,.9-1.8,0-2.5-.5-1.2-1-2.2-2.2-3.4-3.2-1.5-1.2-3.3-1-5.1-.9-.2,0-.4,.3-.5,.5-.4,.9-.6,1.9-1.2,2.5-.7,.7-1.8,1.3-2.8,1.4-1.6,.1-3.3-.2-5-.3-.6,0-1.1,.3-1.7,.5v.6c-.9-.5-1.7-1.1-2.6-1.6-2.1-1.4-4.2-2.8-6.4-4-.6-.3-1.6,.2-2.4,.4-.5,.1-1,.3-1.4,.7-1.7,1.5-3.8,1.3-5.8,1.6-1.5,.2-2.8,.8-4,1.7-.2,.1-.5,.3-.5,.5,0,2.1-1.2,1-1.8,.5-2.2-1.8-4.5-2.2-7.1-1.3-1,.4-1.9,.9-2.9,1.3-.4,.2-.9,.1-1.7,.2-.5,.7-.9,1.9-1.7,2.6-.6,.6-1.7,.8-2.6,1-2.4,.4-4.9,.4-7.1,1.2-1.9,.7-2.7-.2-3.8-1.1-1.3-1-2.6-2.1-4.1-2.7-4.4-1.9-6.9-5.3-8.4-9.6-.7-1.9-1.9-3.3-3.9-3.7-2.6-.5-4.4-2.1-6.3-3.8-1.1-1-2.4-2-3.3-3.2-1.3-1.8-2.6-3.6-3.5-5.7-.9-2-1.4-4.1-1.7-6.2-.6-3.4-.4-6.9,0-10.4,.3-2.6,0-5.3,0-7.9,0-1.3,.1-2.7,0-4-.1-2-.3-4-.6-6-.3-2-.5-3.9,.4-5.9,1.1-2.5,.9-5.1,.9-7.8,0-3.2,0-6.4,.3-9.7,.1-1.2,.8-2.5,1.4-3.6,1.6-2.8,2-6,1.8-9.1-.3-4.2,.3-8.3,1.1-12.4,0-.5,.2-1,.2-1.4-.4-3.2,1-5.8,2.1-8.7,1.1-3,1.6-6.3,2.3-9.4,0,0,0,0,0-.1-1.2-3.3-.2-6.6,.4-9.9,.4-2.2,1.1-4.4,3.2-5.7,.2-.1,.4-.4,.6-.6,1.7-2.9,4.2-4.8,7.4-6.1,1.3-.5,2.5-1.4,3.8-2.1,.6-.4,1.4-.6,1.9-1.1,.8-.8,1.3-1.8,2-2.7,.7-.9,.7-1.8,.2-2.9-1-2-1.8-4.2-2.5-6.4-.6-1.7-.9-3.6-1.4-5.5,2-.2,3.2,1.3,4.7,2.5-.1-.8-.3-1.5-.3-2.2,0-.9,.3-1.5,1.3-.6,.4,.3,1,.4,1.5,.6-.4-3.1-1.1-6.1-3.3-8.3-1.1-1.1-2.7-1.8-4.2-2.5-2.3-1.2-4.8-2.2-7.2-3.3,.3-2.2,.8-4,3-4.7,1.9,1,3.7,2.1,5.7,3,2.1,1,4.3,1.9,6.2,2.7-.9-1.9-3.3-4-4.5-3.5v-1.6c.6,.2,1.3,.3,1.6,.6,1.2,1.4,2.3,2.9,3.5,4.3,.3,.4,.8,.7,1.2,1,.9,.6,1.8,1.2,2.9,1.8-1.9-2.6-.4-5.4-1-8.1l.4-.3c.8,.7,1.9,1.2,2.4,2.1,1.8,2.8,3.1,5.9,5.1,8.5,1.5,2,3.8,3.5,6.6,3.4,.8,0,.9,.2,1.1,.9,.5,1.7,.4,3.2-1.1,4.5-.9,.8-1.8,1.1-2.7-.1,1.1,3.5,2.2,7,3.4,10.7,.4-.6,.8-1,1-1.6,.8-2.4,1.6-4.8,2.4-7.2,.2-.8,.2-1.7,.3-2.5,0,0,0-.2,0-.3,.6-.7,1.2-1.3,1.8-1.9,.3,.6,.7,1.3,.8,1.9,.5,3.6,.8,7.2-.5,10.8-1,2.8-1.5,5.8-2.4,8.7-.2,.7-.8,1.3-1.3,1.8-1.9,2-3.9,3.9-5.8,5.9-.8,.8-2.5,.9-3.5,.6-1.3-.4-2.8-.5-4.1-.2-3.2,.6-6.4,1.5-9.5,2.4-.7,.2-1.4,1-1.7,1.7-.7,1.7-1.1,3.5-3.7,2.9-.3,0-1.1,1.2-1.3,1.9-.3,1.4-.3,2.9-.3,4.3,0,3.3-1,6.6-.5,10,.3,2-.5,4-.7,6.1-.3,3-.5,6.1-.7,9.2-.1,1.1-.5,2.1-.6,3.2,0,2.8-.1,5.5,0,8.3,.1,3.3-.9,6.4-1.4,9.6-.8,4.7-1.6,9.4-1.3,14.2,.1,2.9-1,5.6-2.2,8.1-1.8,3.7-2.4,7.6-2.7,11.7-.3,4.8-1,9.5-1.5,14.2,0,.9,0,1.9,.2,2.8,.3,1.5,.8,2.9,1,4.3,.4,3.5,2.4,5.9,5,8.1,0,0,.1,0,.1,0,1.3,2.4,4,2,5.9,3.1,1.8,1.1,4,1.6,5.1,3.8,.3,.6,.5,1.3,.8,1.8,.6,1.1,1.3,2,1.9,3.1,.4,.8,.7,1.6,.9,2.5,.3,1.5,1.5,2.3,3,2.5,1.3,.1,2.6,.5,3.8,1.1,1.6,.8,5.8,0,7.3-1.4,1.5-1.4,3-2.8,4.7-4,.9-.7,2.1-1.1,3.1-1.6,.1,0,.3,0,.4,0,1.4,.9,3.2,.7,4.4,2.1,1.4,1.8,3.3,.6,4.9,.2,2.7-.7,5.2-2,7.9-2.4,1.2-.2,2.9,1,3.8,2.1,2.2,2.6,4.9,3.3,8,2.2,2.8-1.1,5.8-1.7,8.7-2.5,.2,0,.5-.2,.7-.3,1.2-.7,2-.4,3.1,.5,1.1,.9,2.5,1.5,4,1.3,1.6-.3,3.2-.7,4.8-1,.7-.1,1.4-.3,2-.1,2.3,.8,4.5-.2,6.7-.2,1.1,0,2.2,.2,3.3,.5,1.2,.3,2.3,.8,3.5,1,2.9,.5,5.2,2.6,8.2,2.7,1,0,2,.7,3.1,.8,3.1,.4,5.2-1.5,7.5-3.2,1.6-1.2,3.2-2.5,4.8-3.7,1.5-1,3.1-.7,4.7-.4,1,.2,2,.3,3,.3,1.5,0,3,0,4.6,0,2.8-.2,5.6-.2,8.3-.6,1.9-.3,3.6-1.7,5.4-1.6,3.3,0,6.6-1.2,9.9-.2,.6,.2,1.4,0,2.1-.2,2-.6,3.9-1.4,5.8-2,2-.7,2.9-2.5,4.2-3.9,1.3-1.4,2.4-3,3.4-4.6,1.2-1.8,3-2.8,4.8-3.8,1.9-1.1,3.8-2.3,5.7-3.3,.9-.4,1.9-.5,2.9-.7,4.3-.7,5.6-2.3,6.2-7.2,.2-1.7,.7-3.5,.8-5.2,.1-2.6,0-5.2-.1-7.9,0-1.3,1.2-4,2.4-4.4,.4-.1,.8,0,1.3,0,2.3,0,4.6,0,6.9-.2,1.2-.1,2-.7,1.3-2.2-.3-.7-.1-1.7,0-2.6,.2-2.6,.5-5.1,.8-7.7,0-.3,.1-.7,.3-.9,1.6-1.8,1.3-4,1.4-6.1,.1-1.9,.7-3.8,1.2-5.7,.3-1.2,.8-2.3,.8-3.5,0-1.5,.5-2.5,1.4-3.6,2.5-3.1,4.1-6.8,5.8-10.4,1.3-2.9,3.1-5.6,4.7-8.4-.8-.5-1.8-.8-2.7-.2-.9,.6-1.9,1.2-2.6,2-1.6,1.9-3,3.8-4.5,5.8-.3,.3-.7,.5-1,.8l-.4-.3c.6-1.1,.9-2.3,1.7-3.1,3.5-3.6,6.6-7.6,10.9-10.4,.7-.5,1.3-1.1,2-1.7ZM32.2,46.7c-.2-.9-.4-1.9-.7-2.8-.2-1.1-.2-2.5-.8-3.4-.7-1-2.1-1.4-3.3-2.2,.3,1.7,.6,3.3,1,4.7,.7,2.5,1.8,3.5,3.8,3.6-.2,1.8-1.1,.8-2.2,.3,.4,1.1,.8,1.9,1.1,2.7,.5,1.3-.3,4.1-1.5,4.9-1.1,.7-2.1,1.5-3.2,2.2-1.3,.8-2.7,1.7-4.1,2.4-2.5,1.3-5,2.6-6.3,5.3-.2,.5-.6,.9-1,1.2-1.8,1.1-2.5,3-2.8,4.8-.5,2.5-.7,5-.9,7.5,0,.5,0,1.1,0,1.7,0,.9,.4,1.9,.2,2.8-.6,2.8-1.1,5.7-2.2,8.3-.9,2.3-1.5,4.5-1.8,7-.5,5.6-1.7,11.1-1.4,16.7,.1,2.3-.4,4.5-1.6,6.6-.7,1.3-1.4,2.7-1.5,4.1-.3,4.1-.1,8.3-.3,12.4,0,1.9-.7,3.7-1,5.6-.2,1.1-.6,2.2-.5,3.3,.1,3.4,.5,6.8,.7,10.3,.2,3,.5,6,.2,8.9-.7,5.5-.8,10.8,1.3,16,1,2.5,2,4.9,4.1,6.6,.9,.7,1.7,1.5,2.5,2.3,1.9,2,3.9,3.7,6.8,4.1,.6,0,1.4,.5,1.8,1.1,.9,1.3,1.8,2.7,2.4,4.2,1.7,3.6,3.9,6.5,7.6,8.2,1.3,.6,2.4,1.6,3.6,2.4,1.1,.8,2,2.1,3.7,1.1,.3-.2,.8,0,1.3,0,.2,0,.7,0,.7-.1,.3-1.3,1.2-.9,2.1-.9,1.4,0,3.1,0,4.2-.7,1.1-.7,1.6-2.2,2.3-3.4-1.6,0-3.2,.4-4.4-.1-1.5-.7-2.9-1-4.5-1.1-2.8-.1-4-1.3-4.3-3.8,0-.6-.4-1.1-.7-1.6-.6-.9-1.6-1.7-1.8-2.7-.6-3.2-3-4.6-5.6-5.5-2.6-1-5-2.1-7.2-4-4.3-3.7-4.2-9.1-5.8-13.8,0-.2,0-.4,0-.6,.3-2,.6-4,.8-6,.4-3.8,.6-7.6,1-11.3,.3-3,.8-6.1,2.2-8.8,1.8-3.4,3-7.1,2.7-11-.3-3.7,.6-7.2,1.2-10.8,.7-4,1.7-7.9,1.5-12.1-.1-2.2-.1-4.5,0-6.7,0-1.4,.5-2.7,.6-4.1,.4-4.1,.8-8.3,1.1-12.4,.3-3.8,.6-7.7,.8-11.6,.1-2.2,.2-4.3,.4-6.5,0-.4,.3-.9,.6-1.2,1.8-1.4,3.7-2.8,5.6-4.1,.9-.6,1.9-1.2,3-1.7,3.8-1.7,7.9-1.8,12-1.6,2.3,0,3.7-1.1,4.8-2.5,1-1.3,2.1-2.2,3.3-3.2,.6-.5,1.3-1.3,1.5-2,.6-1.6,1.1-3.3,1.2-5,.2-2.9,2.6-5.4,1.7-8.5,1.1-1.9-.2-3.7-.2-5.7-1.3,3.5-2.2,7.1-3.4,10.6-.3,.9-1.1,1.7-1.8,2.4-.6,.5-1,.3-1.3-.6-1.4-4.7-2.6-9.5-4.3-14.1-1.7-4.5-4-8.7-7-12.5-.6-.7-1.1-1.6-1.5-2.3-1.1,3.6,.2,6.6,1.9,9.6l-.7-.5,1.7,4.3-4.8-2.5,1.7,3.3,.7-1.7c1.5,2.3,2.4,4.5,2.8,6.9-.7-.2-1.3-.4-1.6-.9-1.4-2.1-2.8-4.2-4-6.5-1.1-2.2-2.9-3-4.9-3.2,.8,1.8,2.1,3.5,2.4,5.4,.4,2.6,1.6,4.7,3,6.9-.9,1-1.3,0-1.5-.5-.8-1.5-1.8-2.7-3.6-2.8,.2,1.2,.4,2.4,.6,3.6,.4,2.3,.2,4.8,2.3,6.7l1.8-4.7c.2,.6,.6,1.1,.5,1.5-.3,1.1-.7,2.2-1.2,3.2-.3,.6-.8,1.1-1.3,1.7-.8-1.3-1.4-2.3-2-3.3Zm4.5,216.8l.2-.6c.7,.2,1.4,.4,2.2,.6l.8-1.4c-.8-.6-1.5-1.2-2.1-1.8-.2-.2-.2-.7-.2-1,.4,0,.8,0,1.1,.3,.6,.4,1.2,.9,1.8,1.4l1.4-2.8-4-1.5c0-.2,.2-.7,.2-.7,1.4,.2,2.7,.4,4.4,.7-.4-3.6-.8-7.2-1.2-10.2-1,1.1-2.3,2.7-3.7,4.2-.1,.1-.9,0-.9-.2-.1-.7-.1-1.4,0-2,0-.8,.4-1.7,.3-2.4-.5-3-1.7-6,.1-9-1.1-.2-2-.3-2.8-.4,0,1.4,0,2.8,0,4.2,0,1.4-.2,2.8-.3,4.2,2.3,.6,2.9,1.8,1.4,3.3-1.8,1.8-2,4.1-2.2,6.3-.3,4-1.5,7.6-3.7,10.9-.5,.8-.9,1.9-.9,2.8,0,1.4,.6,2.7,.7,4.1,.1,1.5,1.1,2.1,2.2,2.1,.6,0,1.3-.7,1.9-1.1l-.8-2.1,2.1,1.3,3.7-8-1.4-1.2Zm-6,16.2c1-.3,2.2-.8,3.4-.9,1.9-.2,2.9-1.1,3-3,.1-2.1,.4-4.2,2-5.9,.7-.7,1-1.8,1.4-2.7l-1.6-1c-.4,.7-1,1.3-1.3,1.9-.6,1.2-1,2.5-1.4,3.8-.1,.4-.1,1-.4,1.1-1.2,.9-2.4,1.8-3.7,2.5-.9,.6-3.7-.9-3.9-1.9-.3-1.5-.4-3.1-.9-4.5-.5-1.6-.1-2.9,.8-4.1,2.2-2.8,3.5-6,3.6-9.5,.1-3.4,.8-6.5,2.9-9.2-.4-.1-.6-.2-.8-.3-.7-.1-1.4-.3-2.1-.4,.3-.6,.6-1.2,.9-1.8,0,0,0,0,0-.1,.1-2.1,.2-4.3,.3-6.6-1.3,.5-2.3,.8-3.3,1.1,.8,2,0,3.8-.6,5.6-.3,1-.3,2.1-.5,3.2,1.4-.2,2.4-.3,3.4-.4,.3,0,.6,.2,.8,.3-.1,.3-.2,.6-.3,.8-.3,.4-.9,.8-.9,1.3-.4,2.7-1.7,5.1-2.8,7.5-.7,1.5-.8,3.3-1.1,4.9-.1,.7-.1,1.5-.5,2-1.4,2-1.9,4.1-1.4,6.5,.1,.7-.1,1.6,0,2.3,.3,1.2,.6,2.4,1.3,3.4,1,1.4,2.4,2.5,3.6,3.8Zm18.6-75.3c1.4,.7,1.8-.3,2.4-1.5l.5,2.1c2.3-1.1,4.2-.2,6.2,.9,.4,.2,1.2,.1,1.7-.1,1.6-1,3.2-2,5.2-2.1,1.5,0,3-.4,4.4-1.1,2.3-1.1,4.5-2.7,7.3-1.2-1-1-2.2-2.2-3.2-2.2-2,.1-3.9,1.1-5.8,1.7-1.6,.5-3.2,1.2-4.8,1.4-1.2,.2-2.8,.7-3.2-1.3,0-.3-.5-.6-.9-.7-1.5-.5-2.9-1-4.5-.2-2,1.1-4.1,2-5.3,4.2Zm81,1.2c-1-.2-1.9-.4-2.8-.7-1.5-.5-3-1-4.6-1.6-1.4-.5-2.9-.7-4.2-1.4-1.2-.7-2.3-.9-3.5-.7-2.6,.4-5.1,.3-7.7,.3-2,0-4,.9-6.2,1.4,.9,1,1.6,2,2.6,2.7,.4,.3,1.4,.4,1.8,.1,2.2-1.4,4.5-1.4,6.9-.4,.7,.3,1.1,0,1.7-.5,1.1-.9,2.3-2.1,4-1.2,.5,.3,1.2,0,1.8,.2,1,.2,2.1,.3,3,.8,1.4,.8,2.5,1.8,3.9,2.8,1.1-.6,2.3-1.3,3.4-1.8ZM21.8,19.4c-.4,.9-.7,1.6-1,2.3-.5,.8-.4,1.4,.5,1.8,1.6,.7,3.2,1.5,4.7,2.3v-.6c.5,0,1,0,1.4,0,1,.2,2.1,.5,3.1,.7,.6,.1,1.3,.2,1.8,.5,.9,.5,1.6,1.4,2.5,1.9,1.3,.7,2.8,1.1,4.3,1.7l-1.2-2.5-.6,.7c-.8-.9-1.5-2.1-2.4-2.3-1.8-.3-3-1.5-4.4-2.3-.3-.2-.6-.5-.9-.5-3-.3-5.4-1.7-7.8-3.7ZM94.2,201.3l-.3-.4c-1.2,.3-2.3,.6-3.4,1.1-3.4,1.3-6.7,3.4-10.6,2,1,.7,2.1,1.4,3.2,1.7,1.5,.3,3.1,.3,4.6,.4,1.5,.1,3.2,.4,4.3-.9,.9-1.1,1.5-2.5,2.2-3.8ZM51.7,36.5c.2-2.2-.8-3.4-2.9-4-.6-.2-1.2-.7-1.8-1l-.3,.2,3.4,5.7,1.7-.9Zm77.8,219.8c-.3,1.7,1.3,2.8,3.8,2.5-1.4-.9-2.5-1.7-3.8-2.5Zm-86.7-10c-.3,1.7-.9,3.5,.4,5.1l-.4-5.1Zm-1.9,18.9l.5-2.8-.5-.2c-.4,.7-.8,1.4-1,2.1,0,.1,.5,.5,1,.9Zm93.3-6.1l2.5,2.2c0-1.3-1.1-2.3-2.5-2.2Z"/>
      <path class="uuid-bf6fc312-845d-435b-a6e3-8c374ba63bae" d="M165.4,114.3l-3.5,1.9c1.2,2.9-.2,5.5-1.4,8-.9,2-2.4,2.1-4.1,.8-.6-.5-1.2-.9-2.1-1.5-.4,.6-.7,1.2-1.1,1.9-.2,.3-.2,.9-.4,1-.7,.4-1.5,1.1-2.1,1-.7-.1-1.2-1.1-1.7-1.6l.4-.4,1.2,1.3c.6-.8,1.2-1.3,1.3-2.6,0-2,.4-4.1,1.1-6,.4-1,1.9-1.6,3-2.2,.7-.4,1.5-.5,2.2-.8v-.5c-.8-.3-1.7-.7-2.6-.7-2.3,0-3.7-1.3-4.5-3.4l-.5,.4c0-.2-.1-.3-.1-.4,.4-1.1-.2-1.7-1.1-1.9-.3,0-.9,0-1,.3-1.2,2-2.4,4.1-3.5,6.2-.8,1.6-1.2,3.5-2.4,4.8-1.6,1.9-3.7,3.4-5.7,4.9-1.2,.9-2.5,1.6-3.8,2.2-.6,.3-1.3,.4-2,.4-3,0-5.2,1.2-7.1,3.4-3.3,3.9-6.3,7.9-10.3,11.2-1.2,1-2.1,2.5-3.3,3.6-2.3,2.1-4.4,4.5-7.4,5.8-1.7,.7-3.6,.8-5.3,1.6-2.6,1.1-5.1,2.5-7.5,3.9-1.2,.7-2.3,1.5-3.3,2.6-.8,.8-1.3,2-1.6,3.1-.7,2.3-1.2,4.6-1.7,6.9-.2,.7,0,1.3,.6,1.9,2.1,1.7,2.9,1.7,5,.2,1.2-.9,2.7-1.5,3.9-2.3,1.4-.9,2.7-.5,3.9,.3,2.4,1.5,5.1,2.2,7.8,3,2.2,.6,4.3,1.8,6.5,2.7,2,.8,4.1,1.1,6-.3,3.5-2.4,7.3-3.8,11.6-3.7,2.4,0,4.8,.9,7.3,1.4,0-1.1,1.1-1.4,2.1-1.8,2.7-1.2,4.5-3.3,6.1-5.7,.3-.5,.2-1.3,.2-1.5,2.5,0,4.8,.2,7.1,.2,.4,0,.9-.2,1-.5,.1-.3-.1-.8-.4-1.1-1.7-2.1-3.4-4.1-5.2-6.1-.7-.8-1.6-1.5-2.8-.6-.2,.1-.7-.1-1.1-.2,.1-.4,.1-.9,.4-1,1.4-1,2.7-.5,4,.2,1.8,1,3.7,2.4,5.8,1.8,3.3-1,5.3,1.8,8.2,2.4,0-.4,.1-.9,0-1.2-.8-2.1-.2-4.1,.7-6,1.1-2.2,1-4.4,.2-6.7-.4-1.1-1-2.2-1.4-3.3,0-.2,0-.5-.1-.8,.3,0,.5,0,.8,0,1.1,.2,2.3,.7,3.4,.6,3.3-.3,6,1,8.7,2.3,2.8,1.3,5.7,2.5,8.6,3.5,1.6,.6,2.8-.6,2.9-2.3,.1-1.8-.3-3.5-1.1-5-1-1.8-1.6-3.7-2.1-5.7-1.4-5.1-2.4-10.4-3.9-15.5-1.7-5.8-3.8-11.6-8.4-15.9-1.3-1.2-2.4-2.9-4.5-3-.9,0-1.8-.2-2.7,0-2.7,.4-4.6-.8-6.2-2.8-1.5-1.8-2.9-3.7-4.7-5.1-1.7-1.4-3.9-2.2-5.9-3.4-3.5-2.1-7.2-3.1-11.2-2.8-1.4,.1-2.8,.4-4.1,.9-2.9,1.2-5.8,1.2-8.9,.5-1.6-.4-3.2-.3-4.8-.4-2.4,0-3.9,1.4-4.7,3.5-.5,1.2-.9,2.5-1,3.8-.4,3.4-1.1,3.9-4.4,4.4-3.1,.4-6.1,1.2-9.2,1.9-.9,.2-1.4,.8-1.3,1.9,0,1.2-.2,2.4-.5,3.5-.1,.4-1.2,.8-1.7,.7-1.4-.3-2.8-.7-4.1-1.2-1.8-.7-3.5-1.8-5.4-2.3-1.6-.5-3.3-.7-5-.7-1,0-1.5,.8-1.1,2,1,2.9,2.7,5.4,4.9,7.5,.3,.3,.9,.4,1.3,.6l-.4,.6c-1.8,.8-3.6,1.6-5.3,2.5-1.4,.7-2.7,1.6-3.9,2.5-.9,.7-.6,2.1,.4,3.3,.8,1.1,1.5,2.2,2,3.4,.6,1.4-.1,2.2-1.7,2.1-3.4-.2-6.6,.5-9.9,1.3-2.5,.6-5.2,.5-7.7,.7-.5,0-1,0-1.5,0,1,1.4,2,2.8,2.8,4.2,2.1,4.1,2.5,8.3,1.1,12.7-.8,2.4-2.8,2.7-4.8,2.8-1,0-2,0-3-.3-2.2-.7-4.4-.7-6.6,0-1,.3-2.1,.4-3,.7-2.2,.8-2.6,1.5-2.1,3.8,.2,.9,.7,1.7,1,2.6,.6,1.4,1.6,1.9,3,2.1,1.8,.2,2.3,1.1,1.4,2.6-1,1.5-2.3,2.9-3.6,4.2-1.4,1.3-2.9,2.5-4.5,3.5-1.4,.9-2.9,1.9-4.5,2.4-4.2,1.5-7.8,3.8-11.1,6.7-1.5,1.3-1.6,2.7-.1,4.2,.3,.3,.7,.7,1.1,.9,2.1,.8,2.9,2.8,4.2,4.3,1.4,1.7,3.2,3.2,5,4.4,3.3,2.3,6.7,4.3,10.6,5.4,1.7,.5,3.4,.3,4.8-1.1,1.1-1.2,2.5-2.2,3.7-3.4l.4,.4c-.3,.3-.7,.7-1,1-.8,.8-1.7,1.6-2.4,2.5-.9,1.3-2.2,1.9-3.6,1.7-1.7-.2-3.4-.6-4.9-1.3-2.6-1.2-5.2-2.6-7.7-4.2-2.7-1.8-5.5-3.7-7-6.9-.3-.6-1.1-1.1-1.7-1.4-1.8-.9-3.1-2.3-3.5-4.3-.1-.8,.4-1.9,1-2.5,3.8-4.1,9-6.1,14-8.3,1.1-.5,2.1-1.5,3.1-2.3,1.8-1.4,3.6-2.7,5.2-4.2,.9-.8,1.5-2,2.3-3.2-1-.3-1.5-.6-2.1-.6-1.9-.2-2.8-1.6-3.3-3.1-.4-1.2-.6-2.5-.8-3.7-.2-1.2,.5-2,1.5-2.3,1.8-.6,3.7-1.3,5.6-1.5,2.5-.2,5,0,7.6,.1,.6,0,1.2,.1,1.9,.1,2.3-.1,3.5-1.3,3.8-3.9,.7-4.8-.5-9.2-3.4-13.1-.2-.3-.5-.6-.7-.9-.4-.6-.7-1.1-1.2-1.9,1.7,0,3.1,.2,4.6,.3,2.5,0,4.8-.4,7.2-1.1,2.6-.7,5.4-.8,8.2-1.1,.7,0,1.4,0,2.1,0l.3-.4c-.8-1.1-1.6-2.3-2.4-3.4-.5-.8-1.1-1.7-1.3-2.6-.4-1.5,.9-2.3,1.9-2.9,2.4-1.4,4.9-2.6,7.4-3.8-1-1.3-2.1-2.5-3-3.9-.9-1.4-1.6-3-2.3-4.6-.5-1.2,.2-2.4,1.5-2.5,1.3-.1,2.7-.2,3.9,.2,3.4,1,6.6,2.3,10,3.5,.5,.2,1.1,.3,1.9,.5,.2-1.5,.3-2.8,.6-4.1,.1-.6,.6-1.3,1.2-1.6,3.1-1.7,6.5-2.1,9.9-2.6,.5,0,.9-.3,1.4-.3,1.4,0,2.1-.8,2.2-2.1,.1-1.2,.4-2.3,.5-3.5-2.5-.7-4.8-1.6-7.3-.5-.3,.1-.6,.1-.8,.2-2.5,.2-3.1,1.1-2.5,3.6,.2,.7,.1,1.5,.2,2.2-.6-.4-1.3-.8-1.9-1.1-1.1-.5-2.2-.9-3.4-1.3-.1,0-.7,.6-.7,.9,0,1,.3,1.9,.4,2.9l-.4,.4c-2.2-1.3-4.5-2.5-6.7-4-1.6-1.1-3.4-1.4-5.3-1.5-1.4,0-2.8-.3-4.3-.4-.8,0-1.6,0-2.4,.1-1.1,.3-1.6,.9-1.6,2.2,0,1.9-.6,3.9-1.2,5.7-.6,1.9,0,3.7,0,5.5,.2,2.1,.4,4.2,.2,6.3,0,.7-1.3,1.5-2.1,1.9-1.1,.5-1.7,1.1-1.5,2.4,.2,1.5-1.1,2.7-2.5,2.3-1.5-.4-2.8-.8-4.2,.5-.6,.6-1.9,.6-2.9,.6-1.2,0-1.7,.6-1.5,1.8,0,.2,0,.3-.1,.5-1.6-.4-3-2.1-2.9-3.5l1.7,1.7c1-1.7,2.8-1.4,4.2-1.9,.5-.2,.9-.5,1.4-.7,.8-.3,1.6-.5,2.4-.6,1.1-.1,2.2,0,3,0,.4-1.1,.5-2.3,1.1-3.3,.4-.7,1.4-1,2.2-1.5,.3-.2,.7-.5,.7-.7,0-2,0-4.1-.2-6.1,0-1.3-.3-2.5-.4-3.9-1.2,0-2.2,.2-3.2,.1-1.2-.1-1.3,.6-1.3,1.4,0,1.1,0,2.2,.2,3.3,.2,1.9-.5,2.7-2.4,2.7-.4,0-.8,0-1.2,0,0,1.1,.3,2.2,0,3-.3,.6-1.5,.8-2.3,1.1l-.4-.4c-.2,.9-.5,1.7-.6,2.6,0,1.2-.5,1.5-1.6,1.4-.3,0-.7,.1-1.3,.3l-.7-1.7,.3-.3,2,.8c.2-.7,.4-1.3,.5-1.9q.6-2.3,3.1-2.1c0-.8,0-1.6-.2-2.4-.3-1.3,.3-1.6,1.4-1.7,2.5,0,2.6,0,2.2-2.6,0-.7-.1-1.3,0-2,0-2,.8-2.8,2.8-2.8,.8,0,1.6,0,2.6-.1-.9-4.1-4.6-7-4.5-11.3l-3.1-.5c.2,1.8,.1,3.5,.6,5,.5,1.5,.1,2.1-.8,2.3-.6,1.6-1.2,2.9-1.5,4.2-.4,1.6-.7,3.2-.7,4.8,0,2.6-1.4,4.4-2.8,6.3-.6,.8-1.2,1.6-1.9,2.5-.2-.3-.5-.5-.5-.7-.2-1.6-.3-3.1-.3-4.7,0-.7,.4-1.4,.6-2.1,.2-.7,.5-1.5,.4-2.2-.6-2.3-.6-4.6,0-6.9,.3-1,.1-2.2,0-3.3-.7-3.5,.4-5.2,3.9-6,1.2-.3,1.2-1.3,1.2-2.3,0-.4-.2-.8-.3-1.3-.1-1,.2-1.6,1.4-1.7,1.3,0,2.6-.4,4-.6,.9-.2,1.2-.7,1.2-1.6,0-.7,.3-1.6,.8-2.1,.6-.6,.3-1,.2-1.5-.3-1-.6-2.1-.9-3.1l.4-.4c.8,.3,1.7,.7,2.5,1.1,.5,.2,.8,.6,1.3,.9,.9,.5,1.3,.1,1.4-.7,0-.5,0-1,0-1.7,1.1,0,2,0,2.9,.2,1.2,.3,1.4-.2,1.4-1.2,0-2,.5-2.2,2.3-1.3,.5,.2,1.1,.3,1.7,.3,.9,0,1.7-.4,2.6-.5,.8-.1,1.6,0,2-1.1,0-.2,.4-.3,.6-.4,.3,0,.7,0,.8-.2,1.6-1.9,3-.7,4.5,.2,1.8,1.1,2.4,.8,3-1.4,.5,.2,.9,.5,1.4,.5,.5,0,.9,0,1.1-.1,1.3,1.1,2.4,2.5,3.8,3.2,1.3,.6,3,1.6,4.4,0l.4,.2c-.4,.6-.7,1.2-1.2,1.8-.7,.8-1.7,1-2.7,.6-1.3-.4-2.6-.9-4-1.1-.8-.2-1.8,0-3,.1,.9,1.3,1.6,2.2,2.2,3.2,.2,.3,.4,.7,.5,1,.6,1.4,0,2.3-1.4,2-1.5-.3-2.9-1-4.3-1.5-.2,2-.4,1.8-2.6,2.1-3.5,.5-6.7-.9-10.1-.8-.5,0-1,0-1.6,0,0,.5,0,1,0,1.4,.3,1.4-.4,2.3-1.9,2.4-1.6,.1-3.3,.2-4.9,.3-1,0-1.6,.4-1.2,1.5,.4,1.2-.2,1.5-1.2,1.4-.9,0-1.8-.2-2.9-.3l1.2,2.7c.4-.3,.7-.6,1.1-.9,1.7-1.4,2.5-1.5,4.5-.3,1.2,.7,2.5,1.4,3.4,1.9,.3-.8,.3-2,.9-2.4,.6-.5,1.7-.3,2.7-.4,.6,0,1.2,.2,1.7,0,1.7-.8,2.8,.3,4,1,1,.6,2.1,1.3,3.3,2.2-.3-1.3-.5-2.2-.6-3.1,0-.4-.1-1,0-1.1,.4-.2,1.1-.4,1.4-.2,1,.7,2,1.4,2.7,2.3,1,1.3,2.1,1.9,3.8,1.6,0-.4-.1-.9-.2-1.3-.3-1.9-.1-2.1,1.6-2.9,2.8-1.4,5.7-1.7,9.2-1.1l-2.3-5c1.5-.6,3-1.2,4.4-1.8,1.2-.6,2.3-1.2,3.3-1.9,.8-.5,1.4-.6,2.1,0,.7,.6,1.4,1.2,2.2,1.6,.7,.4,1.6,.5,2.3,.8,.3,0,.6,.3,.8,.4-.3,1.1-2.9,.2-1.7,2.2-1.8,1.6-3.9,.7-5.8,.6-1.8,0-2.1,0-1.5,2,0,.3,0,.6-.3,.9-.3-.9-.6-1.8-.7-2.7,0-.2,.4-.7,.6-.8,.5-.2,1-.3,1.5-.3,2.8,.1,2.8,.2,5-1.8-1-.8-2-1.6-3-2.4-.2-.1-.6-.1-.8,0-2.4,1.3-4.8,2.6-7.1,3.9,.4,1,.8,2.2,1.2,3.4,.4,1.1-.2,1.6-1.3,1.7-.2,0-.5,0-.7,0-2.8-.6-5.3,.4-7.7,1.4-1,.5-.6,1.3-.6,2,0,.7,.3,1.3,.5,2-2.5,.6-4.2-.1-5.7-2-.6-.8-1.4-1.5-2.2-2.2l-.5,.2,1.2,5.3c-1.9-1.2-3.5-2-5-3.1-1-.7-1.9-1.6-3.3-.9-.4,.2-.9,0-1.4,0-1,0-2.1,0-3.3,0,.4,1.2,.7,2.1,1,3,0,.2,0,.5,.1,.7-.3,0-.6,0-.8-.2-1.9-1-3.8-2.1-5.8-3.1-1.3-.7-2.3,.2-3.2,1-.9,.8-1.5,1.6-.9,2.8,1.3,2.8,2.7,5.6,4,8.3h.4c.3-1.6,.8-3.2,.7-4.8-.1-1.7,.8-2.4,2-3,.2-.1,.5-.2,.7-.2,4.6,.4,9.3-.4,13.3,2.9,1.3,1.1,2.9,1.8,4.6,2.8-.1-1-.3-1.7-.3-2.3-.1-1.3,.3-1.9,1.6-1.6,1.7,.4,3.2,1.2,4.7,1.7,0-.4-.3-1.2-.4-2.1-.3-2,.7-3.2,2.7-3.2,.5,0,1,0,1.6-.2,1.9-.5,3.8-.7,5.6,.1,1.6,.7,1.6-.3,1.7-1.3,.1-.6,.1-1.2,.2-1.8h.4l.3,2.2c2.1-4,5.8-3.8,9.1-3.2,4.3,.9,8.2,.2,12.3-.9,4.5-1.3,9.1-1.1,13.1,1.9,1.1,.8,2.4,1.2,3.5,2,1.8,1.5,3.6,3.1,5.3,4.8,1.2,1.2,2.2,2.5,3.4,3.7,1.3,1.2,2.7,1.8,4.5,1.4,2.2-.5,4.3,0,5.9,1.5,2,1.9,4,4,5.5,6.4,3,4.7,5,10,5.8,15.5,.8,4.9,2.5,9.4,3.8,14.1,.5,1.7,1.5,3.2,1.9,4.9,.4,1.5,.5,3.1,.4,4.6-.3,2-1.9,3-4,2.4-1.5-.4-2.9-1-4.2-1.7-2.8-1.3-5.4-3-8.3-3.9-2.1-.7-4.5-.4-7-.5,.5,1.3,.9,2.4,1.2,3.5,.7,2.4,.3,4.7-.8,6.8-.9,1.7-.8,3.3-.5,5,.1,.6,0,1.4-.4,2-.1,.2-1.1,0-1.7-.2-1.1-.5-2.1-1.2-3.3-1.7-.6-.3-1.5,0-2.2-.1-1.2,0-2.4,0-3.6-.3-.8-.1-1.5-.5-2.5-.5,.9,1.1,1.7,2.3,2.7,3.4,.8,.9,1.9,1.6,2.7,2.6,.2,.2,.1,1-.1,1.3-1.5,1.7-3.7,1.6-5.5,1.2-2.2-.5-3.1,.2-4.2,1.9-1.7,2.4-3.8,4.6-6.8,5.5-.3,2.2-.6,2.3-2.6,1.2-3.5-1.8-7.2-1.8-10.9-.7-2.4,.7-4.5,1.7-6.5,3.2-2.2,1.5-4.4,1.1-6.6,.2-3-1.2-6.1-2.3-9.1-3.5-1.9-.7-3.7-1.5-5.5-2.3-1.2-.6-2.3-.5-3.4,.2-1.7,1-3.3,2.1-5,3-.5,.3-1.3,.2-1.9,0-.5,0-1-.4-1.4-.7-2.3-1.3-2.3-1.4-1.6-3.9,.6-2.2,1.1-4.4,1.5-6.7,.3-2.1,1.7-3.4,3.2-4.5,2.6-1.7,5.3-3.4,8.1-4.8,1.7-.9,3.7-1.1,5.4-1.8,1.7-.7,3.5-1.4,4.7-2.5,4.3-4,8.5-8.2,12.6-12.4,2.2-2.2,4-4.8,6.2-7,1.7-1.7,3.8-2.6,6.3-2.5,1.1,0,2.3-.5,3.3-1.1,2.4-1.6,4.7-3.3,6.9-5.1,.6-.5,1-1.4,1.3-2.2,1.1-2.6,2.1-5.3,4.1-7.5,.3-.3,.3-.8,.5-1.1,.5-.7,1.1-1.9,1.7-1.9,1.1,0,2.3,.6,2.7,1.9,.2,.6,.4,1.1,.7,1.6,.8,1.4,2.3,1.7,3.7,2,.5,.1,1.1,0,1.5,.3,2.2,1.2,4.4,1.5,6.7,.6,.3-.1,.7,0,1.1,0l.2,.5Zm-99-26.1c-.3-.9-.5-1.8-.8-2.5-.4-1,0-1.3,1-1.3,1,0,2,0,3,0,0-2.3,.1-2.5,2.6-2.7,1.1,0,2.2,0,3.3-.1,2.4-.1,2.4-.1,2.2-2.5,0-.6-.3-1.5,.8-1.5,1.3,0,2.7,0,4,.2,2.2,.2,4.5,.5,6.7,.6,.9,0,1.9-.2,2.8-.3l-.6-2.2c2.4,.8,4.4,1.6,6.4,2.3l.4-.6c-.8-1-1.5-2-2.2-3-.4-.6-.7-1.3-1-1.9,.7-.4,1.4-.8,2.1-1.1,.3-.1,.7,0,1,0,2,.5,4,.9,5.9,1.4v-.3c-1.5-.4-3-.9-4.6-1.3,.1-2.3-2-1.7-3.1-2.6-.4,1.7-.8,2.1-2.4,1.6-.8-.2-1.6-.7-2.3-1.1-.9-.5-3.4,0-4.1,.8-.5,.5-1.2,.9-1.9,1.1-.9,.3-1.9,.2-2.8,.5-.9,.3-1.6,.9-2.4,0-.2-.3-.8-.2-1.1-.3,0,.4-.2,.8-.2,1.2,0,1.4-.4,1.8-1.9,1.8-.9,0-1.9,0-2.9,0,0,.3,0,.5,0,.6,.2,.9,.4,1.7-.7,2.2-1,.4-1.7,.2-2.3-.7-.5-.7-1.2-1.2-1.8-1.7l-.3,.2,1.3,5c-1.4-.1-1.6,.6-1.5,1.7,0,.4-.3,1.3-.6,1.3-1.5,0-2.6,1.7-4.3,1.2-.8-.2-1.4,.3-1.5,1.2-.1,1.8,.5,2.6,2.3,2.8,.5,0,.9,.2,1.6,.3Zm-9.2,22.6c1.6-1.5,2.6-3.3,2.7-5.6,.2-2.4,0-4.8,1.5-6.9,.2-.3,.2-.7,.1-1-.1-1.3,.1-2.4,1.5-2.5-.3-2.1-.5-4.2-.7-6.2-1.1,.5-2.1,1-3.1,1.3-1.9,.5-2.1,.7-1.9,2.7,.2,2,.2,4,.2,6,0,2,.2,4.1,.2,6.1,0,.5,0,1.1-.4,1.4-1.4,1.5-1.5,3.3-.2,4.8Zm102.4,13c.3-1.3,1.5-2,.8-3.3,0-.2,0-.5,.1-.6,.9-1,1-1.7,.3-3-1.7,.4-5,4.1-5.2,5.7,0,.1,0,.3,0,.4,.8,.7,1.7,1.4,2.5,2-.2-.9-.3-1.3-.2-2.7,0-.3-.2-.5-.2-.8-.1-.4-.2-.9-.3-1.3l.6-.2,1.6,3.8Zm-.6-7.4c-1.5,.4-3.2,2.1-3.1,3.4l3.1-3.4Z"/>
      <path class="uuid-bf6fc312-845d-435b-a6e3-8c374ba63bae" d="M213.7,103.6c.2,.4,.4,.8,.6,1.2,2.9,5,4.3,10.6,5.8,16.1,1,3.7,1.3,7.5,1.2,11.4-.2,4.1-2.8,6.8-5.8,9.1-1.6,1.2-3.4,2.4-4.7,3.9-1.3,1.6-1.6,3.7-1.4,5.9,.4,5.1,.4,10.3-.7,15.3-.8,3.9-3.4,6.6-6.2,9.1-3,2.7-6.2,5.2-9.9,6.7-4.1,1.6-8.1,3.6-12.6,4.1-1.3,.2-2.7,1.2-3.8,2.1-3.2,2.6-6.6,3.2-10.4,1.7-3.6-1.4-7.2-3.1-11.3-2.5-.3,0-.6,0-.9,0-3.5,1.6-7.2,.8-10.8,.8-5.5,0-10.2,1.6-14.1,5.6-2.3,2.3-5.3,2.4-8.2,1.3-3-1.1-5.8-2.4-8.8-3.5-2.3-.8-4.7-1.3-7.1-2-1.3-.3-2.6-.8-3.9-.9-2.5-.3-4.3,.8-5.8,2.7-2.1,2.8-5.1,3.7-8.2,3.3-3.2-.4-6.4-1.6-9.5-2.5-4.6-1.4-9.2-2.7-14-3.2-3.3-.4-6.4-.3-9.4,1.2-.2,0-.4,.1-.6,.1-.1,0-.3,0-.5-.2,2.2-1.6,4.6-2.1,7-2,5.3,.2,10.6,.9,15.7,2.6,3,1,6,2.2,9,2.8,3.7,.7,7.3,.5,9.9-3,2.1-2.8,4.8-3.4,8.1-2.5,2.9,.8,5.8,1.3,8.6,2.2,2.7,.9,5.3,2.2,8,3.3,1.3,.5,2.7,.9,4.2,1.1,2,.2,3.7-.4,5.2-1.8,2.4-2.2,5.1-4.2,8.4-4.7,3.5-.6,7-.5,10.5-.7,1.6-.1,3.3-.1,4.9-.5,2.9-.6,5.8-.9,8.6,0,1.8,.6,3.5,1.4,5.3,2,.9,.3,1.8,.5,2.8,.7,2.4,.4,4.4-.5,6.1-1.9,2.1-1.7,4.3-2.7,6.9-3.2,2.6-.5,5.1-1.4,7.5-2.3,4.2-1.5,8-3.8,11.4-6.7,4.5-3.8,7.7-8.3,7.5-14.6-.1-3.5,0-7.1,0-10.6,0-2.8,.8-5.3,3.2-7.1,2.3-1.7,4.4-3.8,6.5-5.8,2.5-2.4,2.7-5.6,2.6-8.8-.2-5.7-1.7-11.2-3.5-16.7-.9-2.7-2.3-5.2-3.4-7.9-.1-.3-.1-.5-.2-.8l.4-.2Z"/>
      <path class="uuid-bf6fc312-845d-435b-a6e3-8c374ba63bae" d="M53.6,164.3c-1.1-1.3-2-2.7-3.2-3.9-1.1-1.1-.4-2.2,0-3.1,.2-.7,1.2-1.4,2-1.7,1-.5,2.2-.7,3.3-.9,.6-.1,1.4-.4,2-.2,2.2,.7,3.4-.8,4.7-2.1,1.2-1.3,2.5-2.4,3.7-3.7,.4-.4,.5-1.2,.5-1.8,0-1.9-.1-3.9,0-5.8,0-1.1,.6-2.3,.9-3.4,.4-1.8,1.6-2.8,2.9-3.7,.4-.2,.8-.4,1.1-.6,1.6-1,2.3-1.1,3.8,.2,1.3,1,2.4,2.1,3.6,3.1-.7,1.7,0,4.2,1.3,5.4,.9-.7,1.7-1.4,2.7-1.9,.4-.2,1.2,0,1.4,.3,1.5,1.9,2.4,4.3,0,6.4-1.1,1-2.4,1.9-3.4,3-.6,.6-.9,1.5-1.2,2.4,0,.1,.5,.6,.9,.7,1.1,.5,2.3,1,3.5,1.5-.2,.3-.3,.5-.4,.6-.9,.3-4.5-1.5-4.9-2.4-.2-.6-.7-1.2,.3-1.6,.2,0,.1-.6,.3-.9,.2-.4,.4-.7,.7-1,1.1-.9,2.3-1.7,3.3-2.8,1.9-2,1.8-3.5-.7-5.6-.7,1-1.3,2-2.1,3.2-.6-.6-1.5-1.4-2-2.3-.8-1.2-1.3-2.6-1.9-4-.1-.3,0-.7,.1-1.1h.6c-.9-.9-1.7-1.9-2.7-2.5-.9-.6-2-.8-2.8,.2-.2,.2-.5,.3-.8,.4-2.2,.9-2.6,3-3.2,4.9-.8,2.6-1,5.2-.3,7.8,0,.4,0,1-.3,1.3-1.8,2-3.7,4-5.6,5.9-1.2,1.3-2.8,1.5-4.7,1.6l.5-.8-.2-.2c-.4,.3-.7,.9-1.1,1-.9,.2-1.9,.2-2.9,.3-1.7,.2-2.7,2.2-1.6,3.5,1,1.3,2.4,2.3,3.7,3.4,.3,.2,.5,.5,.8,.7,0,.2-.1,.4-.2,.4-1.8,.4-3.3,1.4-4.6,2.7-.2,.2-.5,.4-.8,.3-1.9-.3-2.3,1.1-2.7,2.5-.5,1.6-.9,3.2-1.5,4.8-.2,.5-.9,1-1.5,1.1-2.1,.2-3.9,1.1-5.2,2.5-.9,.9-1.4,2.2-2,3.4-.3,.5-.4,1.1-.8,1.3-1.3,.7-.9,1.5-.4,2.5,1-1.2,2.1-1.5,3.3-.5,.2,.1,.5,.2,.7,.1,1.3-.8,2.5-.4,3.9,0,1.4,.3,2.6-.6,3.6-1.6,1.1-1.1,2.4-2,3.8-2.8,.5-.3,1.3,0,2,.1,1.1-.7,1.3-.6,1.8,.7,.4,1,1.1,2,1.9,2.7,.2,.2,1.2-.1,1.8-.4,.6-.3,.9-1,1.4-1.3,2.8-1.4,5.8-2.5,8.9-3.1,.3,0,.7,.1,.9,.3,1.4,.7,2.9,1.5,4.3,2.2,1,.5,2,.5,3-.1,1.7-1,3.4-1.5,5.5-1.1,2.3,.5,3.8-.3,4.6-1.9,.5-1,0-1.2-.8-1.5-1.7-.5-3.5-.8-5-1.6-1-.5-1.7-1.6-2.6-2.5l-1,.7c-.9-2.1-1.9-4-2.5-6.1-.5-1.5,0-2.8,1.3-4,.6-.6,1.1-1.7,1.1-2.6,0-3.5,2.8-5.9,6.8-5.3-.9,.3-1.3,.6-1.8,.7-2.7,.4-4.4,1.7-4.1,4.8,0,.9-.5,2-1.1,2.8-1.8,2.3-1.9,4.4-.3,6.8,.2,.4,.5,.7,.7,1.2,2.2-1.8,2.1,1.8,3.6,1.6l-1.1-.2c0,.2,0,.4,.1,.4,1.9,1.2,3.8,2.2,6.1,2.3,1.7,.1,1.9,.5,1.5,2.2-.6,2.6-2.9,3.3-5.4,3-2-.2-3.7,.1-5.5,1.1-.8,.5-2.1,.3-3.1,.1-.9-.2-1.9-.6-2.6-1.1-2.1-1.6-4.3-1-6.4-.4-1.8,.6-3.4,1.5-5.1,2.2-.2,0-.4,.3-.6,.4-1.7,1.9-3.7,1.6-4.9-.5-1.5-2.5-3.4-2.7-5.6-.7-.9,.9-1.9,1.9-3,2.5-1.2,.7-2.6,1-3.9,0-.2-.1-.7-.2-.9,0-1.3,.8-2.4,.4-3.5-.4-.2,.1-.3,.2-.4,.2-.6,.4-.9,1.8-2,.9-1-.8-.9-2.9-.2-3.8,.7-.9,1.3-2.1,1.9-3.1,1.1-1.9,2.8-3.4,4.9-3.9,2-.5,3.3-1,3.6-3.3,.2-1.4,.9-2.6,1.3-4,.3-1.1,1.1-1.5,2-1.5,1.1,0,1.8-.5,2.5-1.1,.8-.6,1.6-1.2,2.4-1.8l-.4,.5Z"/>
      <path class="uuid-bf6fc312-845d-435b-a6e3-8c374ba63bae" d="M44.6,126.2l-.5,2.8-3.1-1.8c-1.2,2.1-.1,3.5,1.3,5.1,.6,.6,.8,2.1,.1,2.5-2,1-2.5,2.7-2.9,4.6-.1,.5-.2,.9-.3,1.4-3.4,.8-3.9,.7-3.9-1.1-1.2-.3-2.5-.6-2-2.4,0-.2-.3-.6-.4-.9-.2-.4-.5-1-.4-1.3,.5-1.4,.4-2.7-.1-4.1-.1-.4,.6-1.1,.9-1.6h.5l-2.4-5.8,1.2-.8c-.3-.3-.5-.7-.8-1-1.3-1.6-1.3-1.6,1-2.1-.8-1.2-1.5-2.4-2.3-3.4-.7-.9-.8-1.7,0-2.4,1.3-1,1.1-2.2,.5-3.4-.7-1.2-.9-2.2,.4-3.3,.5-.4,.5-1.6,.6-2.4,0-1.2,.2-2.1,1.7-2.3,.6,0,1.2-.8,1.8-1.1,.4-.2,1.2-.6,1.3-.5,1.2,1.1,2.6,.7,3.9,.9,.8,.1,1.6,.6,2.4,.9,.7,.3,1.5,.6,2.2,.7,.9,0,1,.2,.7,1-.6,1.6-1.1,3.3-1.7,5.1l1.9,.4c.5-1.4,.9-2.8,1.4-4.2,0-.2,.2-.5,.4-.6,1.6-.5,3.1-.9,4.9-1.5,0,.5,0,.9,0,1.2-.7,2.2-1.3,4.4-2.3,6.4-.4,.9-1.6,1.4-2.4,2.1,.7,.7,1.7,1.5,2.5,2.5,.4,.5,.8,1.3,.7,2-.1,2.2-.6,2.5-2.8,2.4-1.1,0-2.2,.1-3.3,.5,.4,0,.8,0,1.1,0,1.8-.5,2-.4,2.4,1.3,.3,1.3,.4,2.6,.7,3.8,.2,.8-.2,1.1-.9,1.3-1.3,.3-2.5,.6-3.7-.8Zm-8.4-24c-.7,.3-1.7,.7-2.5,1.2-.3,.2-.8,.7-.8,.9,.4,1.9-.5,3.2-1.8,4.4,1.3,2.3,2,4.5-.4,6.3,.8,1.3,1.5,2.5,2.2,3.6,.6,1,.8,1.9-.7,2.3,.5,.6,.9,1.2,1.3,1.7,.9,1.2,.9,1.3-.8,1.7,.6,1.5,1.3,3,1.8,4.5,.1,.4,0,1.3-.3,1.5-1.3,.5-.8,1.2-.4,2.1,.2,.5,.3,1.5,0,1.8-.8,.8-.3,1.3,0,2,.3,.7,.4,1.5,.7,2.2,0,0,.2,.2,.2,.1,1.7-.6,1.7,.8,1.8,1.8,1.5,0,2.1-.6,2.3-2,.2-1,.7-2,1.3-2.9,.5-.7,1.3-1.1,1.9-1.7-2.8-3.1-3.3-5.3-2-7.8l3,.8c.1,0,.2-.2,.3-.3,1.2-1.8,1.2-1.7,2.8-.5,.3,.2,1,.3,1.3,.1,.3-.1,.6-.7,.6-1.1-.1-1.2-.4-2.3-.6-3.4-3.7,0-3.8,0-3.6-2.1,1.7,0,3.5-.1,5.2-.3,.4,0,1.1-.5,1.2-.8,.1-.5,0-1.2-.4-1.7-.9-1.2-2-2.2-2.9-3.3h-2.1v-.6c.8-.2,1.7-.4,2.5-.5,1.2-.2,2.1-.6,2.5-1.8,.5-1.6,1-3.1,1.5-4.7,0-.2,0-.3,0-.7-1.4,.5-3,.2-3.1,2.3,0,.8-.6,1.7-1,2.5-.2,.4-.5,.9-.8,.9-1.1,.1-2.3,0-3.5,0,.5-1.8,1.1-3.4,1.5-5.1,.1-.5,0-1.3-.3-1.5-.9-.6-1.8-1.2-2.9-1.4-1.6-.3-3.2-.4-5-.6Z"/>
      <path class="uuid-bf6fc312-845d-435b-a6e3-8c374ba63bae" d="M81.3,65.2l-2.7-.4-.2,.3c1.2,.9,2.4,1.8,3.7,2.5,.6,.4,1,0,.8-.8-.1-.5-.4-1.1-.3-1.7,.4,.8,.9,1.6,1.3,2.4,0,.2-.1,.8-.3,.8-.5,.1-1.1,.3-1.5,0-1.2-.8-2.5-1.6-3.5-2.6-.7-.7-1.2-1-1.9-.1-.8,.9-2.3,1.2-2.5,2.8,0,.2-.4,.4-.7,.5-.7,.2-1.4,.3-2.1,.3-1.1,0-2.5-.5-3,1.1-.3,1.1-1.3,2-.7,3.4,.5,1.3-.1,2.3-1.4,2.7-1.3,.4-2.7,.6-4,.9l.7,2.2c-.9,0-1.7,0-2.6,0-.3,0-.5,.1-.8,.2,.1,2,0,2.2-2.2,3l1.4,3.8-3.2-1.1c0,.4,0,.6,.1,.8,.2,1.1,.2,2.1-.6,3.2-.6,1-.4,2.5-.5,3.8,0,.3,.1,.6,.1,.8,0,1-.4,2-1.4,2-.6,0-1.5-.9-1.7-1.6-.4-1.3-.3-2.7-.4-4-.1-1.7-.2-3.5-.2-5.2,0-.5,.4-.9,.6-1.4,.6-1.3,1.1-2.5,1.7-3.8,.3-.7,.3-1.4,.7-2,.6-1.1,1.4-2.1,2.1-3.1,.2-.3,.5-.7,.8-.7,1.7,0,2-1.2,2-2.4,0-.9,.3-1,1.1-1.2,1.6-.5,3.3-.9,3.8-3,0-.4,.7-.9,1.1-1.1,.8-.4,1.8-.7,2.7-1.1,.4-.2,.9-.5,.9-.8,.1-1.6,1.4-1.4,2.4-1.7,1-.2,2-.6,3-.6,1.1,0,2.4,0,3.2,.5,1.3,1,2.8,.9,4.1,1.5,.2,.1,.4,.2,.7,.3l-.3,.4Zm-11.8-.9c.4,1.5-.5,1.9-1.7,2.1-.4,0-.8,.1-1.1,.3-.8,.5-2.1,1-2.3,1.7-.7,2.1-.5,2.1-2.3,2.5-.1,0-.3,.1-.4,.2-.5,.2-1.1,.5-1.8,.8-.4,1.2-.3,3-2.4,3.1-.2,0-.3,.3-.5,.5-.6,.7-1.2,1.4-1.7,2.2-.5,.8-2,1.4-.7,2.5-.5,1.1-.9,2.2-1.4,3.2-.6,1.3-1.2,2.5-1,4,.2,1.3-.1,2.6-.2,3.9,0,1.4,.2,2.7,1.4,4,0-1,.1-1.6,.2-2.2,.2-1.6,0-3.3,.7-4.7,.4-.9,.5-1.6,.3-2.5-.3-1.6,.1-1.9,1.7-1.4,.2,0,.4,.1,.7,.2,0-.2,0-.3,0-.4-.9-2-.8-2,1.1-3.1,.2-.1,.4-.6,.4-.9,0-1.4,.5-1.9,1.9-1.9,.4,0,.9,0,1.6,.1l-2.5-3.3,.3-.3c.4,.1,.8,.1,1.1,.3,1.3,1.1,2.8,.9,4.2,.5,1.6-.5,2-1.1,1.7-2.7-.1-.6-.3-1.2,0-1.7,.9-1.8,1.9-3.6,4.6-3,.5,.1,1.1-.2,1.7-.3,.2,0,.4-.3,.6-.5,.3-.5,.6-1,1-1.4,.6-.6,1.2-1.1,1.9-1.6-1.8-1.2-2.4-1.3-6.8-.3Z"/>
      <path class="uuid-bf6fc312-845d-435b-a6e3-8c374ba63bae" d="M17.9,16.3l-1.7-.7c-.4,1.9,.6,4.1-1.5,5.5,.1-.3,.3-.5,.3-.8,0-.6,.2-1.3-.1-1.7-.3-.4-1.3-.6-1.6-.3-.5,.3-.7,1.1-.9,1.7-.1,.5,0,1,0,1.6h-.6c-.3-2-.7-4.1-.7-6.2,0-1.9-1-3.2-1.9-4.7-1.5-2.4-3.7-4.4-4.2-7.3-.2-1.1-.3-2.2-.5-3.3h.4c.1,.7,.2,1.5,.4,2.3,.5,2.3,1.1,4.4,3.1,6,1.1,.9,1.7,2.4,2.5,3.7,.2,.3,.3,.5,.5,.8,1.5-1.9,1.4-2.8,0-4.3-2.3-2.3-2.4-2.9-1.2-6,.3-.7,.5-1.4,.7-2.1h.4c0,.6,.2,1.2,0,1.6-1.3,2.4-1,4.5,1.2,6.2,.2,.1,.3,.4,.4,.6,1.2-1.6,1.6-3.3,.4-5.1,.2,.2,.4,.4,.6,.6,.2,.2,.3,.5,.5,.7l1.1-1,.3,.2-.2,1.5,2.6-2-1.3-1c1.3,.2,2.6,.3,2.7,2.3l1.8-2.8c.8,1.4,1.8,2.6,2.4,4,1,2.2,.2,3.5-2.2,3.8-.8,.1-1.5,.3-2.3,.3-1.3,0-2,.8-2.2,2-.3,1.3-.4,2.5,.9,3.3,0,0,0,.2,.1,.3v.4Zm.8-6.8c.9-.2,2-.3,3.1-.6,1-.3,1.6-1,1-2.2-.4-.9-.9-1.8-1.4-2.9-.7,.9-1.2,1.5-1.6,2.2-.5,1.1-.8,2.2-1.2,3.5Zm-4.3,.8c1.8-.4,2.9-2.2,2.5-3.6,0-.3-.4-.6-.6-.7-.2,0-.6,.1-.8,.3-1.1,1.1-1.3,2.4-1.1,4Zm-1.2,7.2c1.3-.4,1.5-2.1,.7-3.9q-1.4,1-.7,3.9Z"/>
      <path class="uuid-bf6fc312-845d-435b-a6e3-8c374ba63bae" d="M214.9,78c-2.5-1.1-5-2-7.3-3.3-3.5-1.9-7.2-2.2-11-1.6-.3,0-.5,.6-.8,1-.4-.3-.6-.4-.7-.6-.1-.1-.1-.3-.2-.5-1.1,.3-2.1,.7-3.1,.7-.8,0-2.1,.4-2.2-1.3-1.2,.6-2.3,1.1-3.3,1.8-.6,.4-1.1,1.2-1.3,1.9-.5,2-.9,4-1,6.1-.1,3.5,.7,6.8,2,10,1.4,3.4,2.3,6.9,3.5,10.4,.9,2.8,.8,5.9,3,8.2,1.6,1.7,2.9,3.8,5.2,4.6,.5,.2,1.2,0,1.8-.2,.5-.2,.8-.7,1.3-.9,1.7-1,2.5-2.5,2.3-4.5-.4-3.2-.8-6.5-1.4-9.6-.3-1.4-1.2-2.7-1.6-4.1-.3-1.1-.3-2.2-.4-3.3h.4c.3,1.2,.4,2.5,.9,3.7,1.5,3.3,2.3,6.8,2.7,10.3,.2,1.8,0,3.7,0,5.5,0,.3-.3,.6-.5,.8-.9,.8-1.8,1.6-2.7,2.4-1.9,1.6-2.6,1.7-4.4,0-2-1.9-4-4-5.4-6.3-1.1-2-1.3-4.5-2-6.7-.8-2.5-1.7-4.9-2.5-7.3-1.3-3.9-3.2-7.7-2.8-12.1,.2-2.6,.5-5.2,1.1-7.7,.2-.9,1.3-1.8,2.3-2.2,1.2-.5,2.5-.7,3.8-.8,3.4-.1,6.8-.2,10.2-.1,1.5,0,3.1,.4,4.6,1,3.1,1.2,6,2.6,9.1,3.9,.3,.1,.5,.3,.7,.5l-.2,.5Z"/>
      <path class="uuid-bf6fc312-845d-435b-a6e3-8c374ba63bae" d="M102.2,130.1c.1-1.2,.3-2,1.4-2.3,1-.3,1.3-.9,1.4-2,.4-3.7-.9-6.9-2.3-10.2-.5-1.3-1.5-1.5-2.5-1.5-1,0-2.1,.4-3,.8-1.7,.8-3.4,1.6-4.9,2.7-.7,.5-1.3,1.7-1.3,2.6-.1,4-.2,8.1,0,12.1,.1,2.2,.8,4.4,1.3,6.6,.1,.4,.6,.8,.6,.9l4.9-1.2c0,.3,0,.6,0,.7-1.6,.5-3.1,1.2-4.7,1.5-.5,0-1.5-.9-1.8-1.6-1.4-3-1.4-6.2-1.3-9.4,.1-3.1,0-6.2,0-9.3,0-2,.5-3.1,2.2-4,1.4-.7,2.9-1.5,4.3-2.3,1.7-1.1,3.6-1.1,5.4-.9,.4,0,1,.4,1.2,.8,1.6,3.6,3.2,7.1,3.2,11.2,0,2.1-.5,2.9-2.5,3.6-.5,.2-.9,.7-1.5,1.3Z"/>
      <path class="uuid-bf6fc312-845d-435b-a6e3-8c374ba63bae" d="M169.4,133.3l.8,2.1h.4l-.7,1.1c-1,0-2.1,.2-3.1,.3v-.5l1.9-.2c-1.4-.9-2.4-1.6-3.8-2.5-.1,.6-.5,1.4-.3,1.9,.5,1.1,.9,2.3,2.6,2.2,.7,0,1.4,.2,2.4,.4-1.6,1-4.1,.4-5-.9-.4-.6-.7-1.3-.9-1.9-.4-.9,.4-2.4,1.3-2.8,.8-.3,1.5-.8,2.4-1,.7-.2,1.8-.3,2.2,.1,1.7,1.4,3.6,2.5,4.3,4.8,.9,2.9,3,4.1,6,4,.5,0,1.1,.2,1.9,.4-.7-1.4-1.3-2.7-2-3.9-.8-1.3-1-2.6-.9-4.2,.1-.9-.7-2.1-1.4-3-1.3-1.7-2-3.6-2.3-5.8,0-.6-.4-1.2-.7-1.9,1.3,0,1.6,1.1,1.5,1.8-.2,2.4,1.3,4.1,2.5,5.9,.9,1.3,1.4,2.5,1.3,4.1,0,.9,.4,1.9,.8,2.8,.7,1.6,1.5,3.2,2.2,4.8l-.4,.2s0,.1-.1,0c-2.4-.7-5.1,0-7.3-1.9-.7-.6-2.2-1-2-1.8,.4-1.3-.6-1.8-.7-2.7,0-.2-.2-.4-.4-.6-.9-.9-2.2-1.2-2.9-2.4-.2-.3-1.5,0-2.3,.2v.6l2.4,.2Z"/>
      <path class="uuid-bf6fc312-845d-435b-a6e3-8c374ba63bae" d="M158.3,245.2c-.6-1.2-1.1-2-1.5-2.8,.1,0,.3-.1,.3,0,1.4,1.6,1.4,1.5,3.3,.4,3.3-2,5-5,6-8.8-2.1,.2-3.6,1.5-5.3,2.3-2.1,1-2.3,2.9-2.4,4.8l-.4,.3-1.6-1.4h.5c.3-1.1,.8-2.1,1-3.1,.2-1.1,.2-2.3,.4-3.4,0-.3,.3-.6,.5-.8,.2,.3,.5,.6,.5,.9,0,.9-.2,1.8-.3,3,1.4-.8,2.6-1.7,3.9-2.3,1.1-.5,2.3-.9,3.5-1.1,.6-.1,1.1,.4,.7,1.1-1.1,2.2-1.8,4.7-3.3,6.6-1.4,1.8-3.6,3-5.6,4.5Z"/>
      <path class="uuid-bf6fc312-845d-435b-a6e3-8c374ba63bae" d="M100.6,126.4l-4.2-1.2c.1,1.2-.7,2.3,.4,3.3,.1,.1,0,.8-.2,.9-.8,.4-1.7,.7-2.8,.8,2.5-1.8,.8-4.6,1.7-6.7,1.5,.4,2.9,.9,4.2,1.2,2.4,.6,2.7,1.8,1.1,3.7-1.6,2-3.6,3.8-3.8,6.6,0,.9,.1,1.8,.2,3h-1c-.7-1.3-1-2.6-.1-4.1,1.5-2.5,3-5,4.6-7.6Z"/>
      <path class="uuid-bf6fc312-845d-435b-a6e3-8c374ba63bae" d="M126.8,111.1c0-.4-.3-.8-.2-1.1,1.1-3.1,2.1-6.2,4.7-8.4,1.5-1.2,3.1-2.3,4.5-3.6,1-.9,1.7-2.1,2.6-3.2,.3-.3,.6-.6,1-.7,1.3-.2,2.6-.3,3.9-.5l.2,.5c-.6,.2-1.2,.7-1.7,.7-1.7-.2-2.6,.5-3.6,1.8-1.2,1.6-3,2.8-4.6,4.1-2.4,1.9-4.5,4-5.4,7.1-.3,1.2-1,2.2-1.4,3.3h0Z"/>
      <path class="uuid-bf6fc312-845d-435b-a6e3-8c374ba63bae" d="M142.2,102.5c.7,1.6-.4,2.7-1.2,3.7-.9,1.2-2.3,2.1-3.4,3.2-.4,.3-.7,.7-1.1,.9-.7,.4-1.3,.9-2,1-2.1,.3-2.7,1.4-2.7,3,0,.2,0,.5,0,.7-.1,2.4-1,3.1-3.6,3l2.9-1.5c0-.9,0-1.8,0-2.7,0-1.6,.9-3,2.4-3.1,2.3-.2,3.5-1.8,5.1-2.9,1.7-1.2,3.1-2.8,3.3-5.1,0,0,.2-.1,.4-.2h0Z"/>
      <path class="uuid-bf6fc312-845d-435b-a6e3-8c374ba63bae" d="M200.6,104.2c.4,.5,.8,1,1.1,1.5-.6,.3-1.1,.9-1.7,1-1,.3-2.2,.3-3.3,.5-.4,1.2,.2,4.6,1.3,5.2,.5,.3,1.3,.2,2.3,.4-.1,.2-.3,.7-.5,.7-1,.2-2.2,.3-2.7-.8-.7-1.5-1.3-3.1-1.6-4.7-.2-1.4,.8-2.1,2.6-2.3,.8-.1,1.6-.5,2.3-.8v-.5Z"/>
      <path class="uuid-bf6fc312-845d-435b-a6e3-8c374ba63bae" d="M130.6,90.9c-1.2,.9-2.5,1.8-3.7,2.7-.6,.4-1.4,.8-1.8,1.3-.6,.7-1,1.7-1.2,2.6-.3,.9-.3,1.8-.5,2.7-.5,2.1-2.5,2.6-3.8,3.8l-.3-.3c.4-.5,.7-1.2,1.3-1.4,2.2-1.1,2.5-3,2.8-5.1,.1-1,.6-2.1,1.2-2.7,1.2-1.2,2.6-2.1,4-3.1,.6-.4,1.5-.5,2.2-.7v.3Z"/>
      <path class="uuid-bf6fc312-845d-435b-a6e3-8c374ba63bae" d="M142.3,102.5c0-.6,0-1.7,.1-1.7,.9-.3,2-.5,3-.4,.7,0,1.3,.7,2,.7,1,0,2.1-.3,3.4-.5,.2,.3,.5,1,.9,1.5,.8,1,1.6,2.1,3.2,1.8,.4,0,.9,.5,1.6,.9-3.5,.7-4.8-1.4-6.1-3.8-1.3,1.4-3,.7-4.2,.2-2.4-.9-2.8-1-3.9,1.2,0,0,0,0,0,0Z"/>
      <path class="uuid-bf6fc312-845d-435b-a6e3-8c374ba63bae" d="M203.3,88.3c-1.1-.5-2.1-1.1-3.1-1.2-1.7-.2-.8,1.7-1.7,2.8,0-1.5-.8-2.7,.6-3.4,1.3-.7,3.1,.2,4.2,1.8Z"/>
      <path class="uuid-bf6fc312-845d-435b-a6e3-8c374ba63bae" d="M199.9,112.2c1.9-1.6,.7-3.4,.4-5.2,1.2,.7,1.4,2,1.6,3.1,.1,.9-.7,1.8-2,2.1Z"/>
      <path class="uuid-bf6fc312-845d-435b-a6e3-8c374ba63bae" d="M126.8,111c-.6,1.6-.5,3.5-2.9,4.4,.2-.5,.3-.7,.4-.9,.5-.9,.9-1.7,1.4-2.5,.2-.4,.7-.6,1-.9h0Z"/>
      <path class="uuid-bf6fc312-845d-435b-a6e3-8c374ba63bae" d="M159.7,149.4c.2-.9,.4-1.7,.6-2.4,0-.2,.2-.4,.4-.5,0,0,.4,.1,.4,.2,0,.7,0,1.5-.2,2.2-.1,.3-.9,.3-1.3,.5Z"/>
      <path class="uuid-bf6fc312-845d-435b-a6e3-8c374ba63bae" d="M158.2,148.4l-.2-2.3c.4,.4,1,.7,1,1,0,.7-.5,1.3-.7,2l-1.5-.6,.2-.4,1.2,.3Z"/>
      <path class="uuid-bf6fc312-845d-435b-a6e3-8c374ba63bae" d="M153.1,148.6c.1-.8,.2-1.4,.4-2.5,.3,.6,.6,.9,.7,1.3,.2,1-.3,1.3-1.1,1.2Z"/>
      <path class="uuid-bf6fc312-845d-435b-a6e3-8c374ba63bae" d="M210.3,98.2c-.7-1-1.4-1.9-2.1-2.9l.4-.3c.4,.5,.8,.9,1.1,1.4,.3,.5,.6,1,.9,1.5l-.3,.3Z"/>
      <path class="uuid-bf6fc312-845d-435b-a6e3-8c374ba63bae" d="M45.6,51.9c.2,.5,.4,.6,.4,.8-.2,1.3-.4,2.7-.6,4,0,.2-.2,.4-.3,.5-1.9,.3-2,2.4-3.5,3.5l-1.5-1.9c-.4,.5-.9,1.1-1.5,1.5-.7,.4-1.6,.6-2.3,.6-.7,0-1.6-.5-1.4-1.7,.3,.1,.6,.2,.8,.3,.7,.7,1.6,.5,2.2,0,.6-.5,1-1.3,1.4-2,.2-.3,.2-.6,.3-.9,.3,.2,.8,.2,.9,.5,.4,.6,.7,1.4,1.2,2.5,.6-1.3,1.1-2.3,1.5-3.3,.4-1,.5-2.1,1-3,.3-.5,.9-.9,1.5-1.4Z"/>
    </g>
  </g>
</svg>