<?xml version="1.0" encoding="UTF-8"?>
<svg id="uuid-16080be3-a4e0-4908-b925-93fb055f0604" data-name="Layer 2" xmlns="http://www.w3.org/2000/svg" width="20.7mm" height="20.7mm" viewBox="0 0 58.7 58.7">
  <defs>
    <style>
      .uuid-76242235-ce31-4ffa-92bd-8664e019f711 {
        fill: #792477;
      }
    </style>
  </defs>
  <g id="uuid-2d1d9f20-5cf2-498b-99cd-e9d401865b22" data-name="Layer 1">
    <g>
      <path class="uuid-76242235-ce31-4ffa-92bd-8664e019f711" d="M16.5,5.7c.2,1.4-.4,2.9-.5,4.4-.2,2.2-.3,4.4-.5,6.6,0,.8-.4,1.5-.4,2.3,0,2,0,4,0,6,.1,2.4-.7,4.6-1,7-.6,3.4-1.1,6.8-1,10.3,.1,2.1-.7,4-1.6,5.9-.5,1.1-.9,2.2-1.2,3.4,5.1,4.4,11.8,7.1,19.1,7.1s1,0,1.5,0c.5-.6,.9-1.3,1.5-2.1-.7-.2-1.1-.4-1.5-.5-1.4-.1-2-1.1-2.4-2.3-.3-.9-.4-1.8-.6-2.7-.2-.9,.3-1.4,1.1-1.7,1.3-.4,2.7-1,4-1.1,1.8-.2,3.7,0,5.5,.1,.5,0,.9,0,1.3,0,1.6-.1,2.5-.9,2.8-2.8,.5-3.5-.3-6.7-2.5-9.5-.2-.2-.4-.4-.5-.7-.3-.4-.5-.8-.8-1.4,1.2,0,2.3,.2,3.4,.2,1.8,0,3.5-.3,5.2-.8,1.9-.5,3.9-.6,5.9-.8,.5,0,1,0,1.5,0l.2-.3c-.6-.8-1.2-1.6-1.7-2.5-.4-.6-.8-1.2-1-1.9-.3-1.1,.6-1.7,1.3-2.1,1.5-.9,3.1-1.6,4.7-2.4-.1-.5-.2-1.1-.4-1.6-.4-.5-.8-1-1.1-1.6-.7-1-1.2-2.2-1.7-3.3-.3-.6-.1-1.2,.3-1.5-.9-1.6-1.9-3.2-3-4.6,0,1.4-.4,2.7-.9,4-.4,1.4,0,2.6,0,4,.1,1.5,.3,3,.1,4.5,0,.5-.9,1.1-1.5,1.3-.8,.4-1.2,.8-1.1,1.7,.1,1.1-.8,1.9-1.8,1.6-1.1-.3-2-.5-3,.4-.5,.4-1.4,.4-2.1,.5-.9,0-1.3,.4-1.1,1.3,0,.1,0,.3-.1,.4-1.2-.3-2.2-1.5-2.1-2.5l1.2,1.2c.7-1.3,2-1,3-1.3,.3-.1,.7-.4,1-.5,.6-.2,1.2-.4,1.8-.4,.8,0,1.6,0,2.2,0,.3-.8,.4-1.7,.8-2.4,.3-.5,1-.7,1.6-1.1,.2-.1,.5-.4,.5-.5,0-1.5,0-2.9-.1-4.4,0-.9-.2-1.8-.3-2.9-.8,0-1.6,.2-2.4,.1-.8,0-1,.4-1,1,0,.8,0,1.6,.2,2.4,.2,1.4-.4,2-1.8,1.9-.3,0-.6,0-.9,0,0,.8,.2,1.6,0,2.2-.2,.4-1.1,.6-1.7,.8l-.3-.3c-.1,.6-.4,1.2-.4,1.9,0,.9-.4,1.1-1.2,1-.2,0-.5,.1-.9,.2-.1-.3-.3-.8-.5-1.3l.2-.2c.5,.2,.9,.4,1.4,.6,.1-.5,.3-.9,.4-1.4q.5-1.7,2.2-1.5c0-.6,0-1.2-.2-1.7-.2-.9,.2-1.2,1-1.2,1.8,0,1.9,0,1.6-1.9,0-.5,0-1,0-1.5,0-1.5,.6-2,2-2,.6,0,1.2,0,1.9,0-.6-3-3.3-5.1-3.2-8.2-.7-.1-1.4-.2-2.2-.3,.1,1.3,.1,2.5,.5,3.6,.3,1.1,0,1.5-.6,1.6-.4,1.1-.9,2.1-1.1,3.1-.3,1.1-.5,2.3-.5,3.5,0,1.9-1,3.2-2,4.6-.4,.6-.9,1.1-1.4,1.8-.1-.2-.3-.3-.4-.5-.1-1.1-.2-2.3-.2-3.4,0-.5,.3-1,.4-1.5,.1-.5,.4-1.1,.3-1.6-.4-1.7-.4-3.3,0-5,.2-.7,0-1.6,0-2.4-.5-2.5,.3-3.8,2.8-4.4,.8-.2,.9-.9,.9-1.6,0-.2,0-.4-.1-.7-.9-.5-1.9-1-2.9-1.4h0c.3,.8,.6,1.7,1,2.8-1-.3-1.6-.5-2.3-.8,0,.3,0,.4,0,.6,.1,.8,.1,1.5-.4,2.3-.5,.7-.3,1.8-.4,2.8,0,.2,0,.4,.1,.6,0,.8-.3,1.5-1,1.4-.4,0-1.1-.7-1.2-1.1-.3-.9-.2-1.9-.3-2.9,0-1.3-.2-2.5-.2-3.8,0-.3,.3-.7,.4-1,.3-.7,.6-1.3,.9-2-2.5-.7-5-1-7.7-1-4.6,0-9,1.1-12.9,3,0,.9-.1,1.8,0,2.7Zm4.3,18.9c1-.7,.8-1.6,.4-2.5-.5-.9-.7-1.6,.3-2.4,.4-.3,.4-1.1,.4-1.7,0-.9,.1-1.5,1.2-1.7,.4,0,.8-.5,1.3-.8,.3-.2,.8-.5,.9-.3,.8,.8,1.9,.5,2.9,.7,.6,0,1.2,.4,1.8,.6,.5,.2,1.1,.4,1.6,.5,.6,0,.7,.2,.5,.8-.5,1.2-.8,2.4-1.2,3.7,.6,.1,.9,.2,1.4,.3,.3-1,.7-2,1-3,0-.2,.1-.4,.3-.4,1.1-.4,2.3-.7,3.5-1.1,0,.4,0,.6,0,.8-.5,1.6-1,3.2-1.7,4.7-.3,.7-1.2,1-1.7,1.5,.5,.5,1.2,1.1,1.8,1.8,.3,.4,.6,1,.5,1.5-.1,1.6-.4,1.8-2,1.7-.8,0-1.6,0-2.4,.3,.3,0,.5,0,.8,0,1.3-.4,1.4-.3,1.7,.9,.2,.9,.3,1.8,.5,2.8,.1,.6-.1,.8-.7,1-.9,.2-1.8,.4-2.7-.6-.1,.6-.2,1.2-.4,2-.8-.5-1.5-.9-2.2-1.3-.9,1.5-.1,2.5,.9,3.7,.4,.5,.6,1.6,0,1.8-1.4,.7-1.8,2-2.1,3.3,0,.3-.2,.7-.3,1-2.5,.6-2.8,.5-2.8-.8-.9-.2-1.8-.5-1.5-1.7,0-.2-.2-.4-.3-.6-.1-.3-.3-.7-.3-1,.4-1,.3-2-.1-3,0-.3,.4-.8,.7-1.2h.4c-.6-1.3-1.1-2.8-1.7-4.2l.9-.6c-.2-.2-.4-.5-.6-.7-.9-1.1-.9-1.2,.7-1.5-.6-.9-1.1-1.7-1.7-2.5-.5-.6-.6-1.2,0-1.7Z"/>
      <path class="uuid-76242235-ce31-4ffa-92bd-8664e019f711" d="M22.2,29.8c.4,.5,.6,.8,.9,1.2,.7,.9,.6,.9-.6,1.3,.4,1.1,.9,2.2,1.3,3.3,.1,.3,0,1-.2,1.1-.9,.4-.6,.9-.3,1.5,.2,.4,.2,1.1,0,1.3-.6,.6-.2,.9,0,1.4,.2,.5,.3,1.1,.5,1.6,0,0,.1,.1,.2,0,1.3-.4,1.2,.6,1.3,1.3,1.1,0,1.5-.5,1.7-1.5,.1-.7,.5-1.5,.9-2.1,.3-.5,.9-.8,1.4-1.2-2-2.2-2.4-3.9-1.4-5.6,.7,.2,1.4,.4,2.2,.6,0,0,.2-.1,.2-.2,.9-1.3,.8-1.3,2-.3,.2,.2,.7,.2,1,0,.2-.1,.4-.5,.4-.8,0-.8-.3-1.7-.4-2.5-2.7,0-2.8,0-2.6-1.5,1.2,0,2.5,0,3.8-.2,.3,0,.8-.4,.8-.6,0-.4,0-.9-.3-1.2-.7-.8-1.4-1.6-2.1-2.4-.5,0-1,0-1.5,0v-.4c.6-.1,1.2-.3,1.8-.3,.8-.1,1.5-.4,1.8-1.3,.4-1.1,.7-2.3,1.1-3.4,0-.1,0-.3,0-.5-1,.3-2.2,.1-2.2,1.7,0,.6-.4,1.2-.7,1.8-.1,.3-.4,.6-.6,.6-.8,0-1.7,0-2.5,0,.4-1.3,.8-2.5,1.1-3.7,0-.3,0-.9-.2-1.1-.6-.4-1.3-.9-2.1-1-1.1-.3-2.3-.3-3.6-.4-.5,.2-1.2,.5-1.8,.8-.2,.1-.6,.5-.6,.7,.3,1.4-.4,2.3-1.3,3.2,.9,1.7,1.5,3.2-.3,4.5,.6,1,1.1,1.8,1.6,2.6,.4,.7,.6,1.4-.5,1.7Z"/>
      <path class="uuid-76242235-ce31-4ffa-92bd-8664e019f711" d="M37.4,2.7c-.4,.9-.9,1.8-.7,2.9,.1,.9,0,1.9-.1,2.8,0,1,.2,1.9,1,2.9,0-.7,0-1.1,.1-1.6,.1-1.1,0-2.4,.5-3.4,.3-.7,.4-1.2,.2-1.8-.2-1.1,.1-1.4,1.2-1,.1,0,.3,.1,.5,.2,0-.2,0-.2,0-.3-.4-.9-.5-1.2-.3-1.5-.6-.2-1.2-.4-1.8-.6-.2,.5-.4,1-.6,1.4Z"/>
      <path class="uuid-76242235-ce31-4ffa-92bd-8664e019f711" d="M47.9,8.2c1,2,1.9,4,2.9,6h.3c.2-1.2,.6-2.3,.5-3.4,0-.2,0-.4,0-.5-1.1-1.3-2.3-2.5-3.6-3.5-.3,.4-.4,.9-.1,1.5Z"/>
      <path class="uuid-76242235-ce31-4ffa-92bd-8664e019f711" d="M45.8,5.9c.3,0,.7,.1,1.1,.2,0-.1,0-.2,0-.3-.9-.6-1.8-1.2-2.7-1.8,0,1.2,.4,1.7,1.7,1.9Z"/>
      <path class="uuid-76242235-ce31-4ffa-92bd-8664e019f711" d="M2.5,23.6c-.1-2.4,0-4.8,.5-7.1-1.9,3.9-2.9,8.2-2.9,12.8s0,2.2,.2,3.2c.1-.8,.6-1.6,1-2.4,1.1-2.1,1.4-4.3,1.3-6.6Z"/>
      <path class="uuid-76242235-ce31-4ffa-92bd-8664e019f711" d="M40.4,9.3c.1,1.4,.1,2.9,.2,4.3,0,1.5,.1,2.9,.2,4.4,0,.3,0,.8-.3,1-1,1.1-1.1,2.4-.2,3.5,1.2-1.1,1.9-2.4,2-4,.1-1.7,0-3.5,1.1-5,.1-.2,.1-.5,.1-.8-.1-1,0-1.7,1.1-1.8-.2-1.6-.4-3-.5-4.5-.8,.3-1.5,.7-2.2,.9-1.4,.4-1.5,.5-1.4,2Z"/>
      <path class="uuid-76242235-ce31-4ffa-92bd-8664e019f711" d="M55.6,17.2c.4,1.2,1,2.3,1.7,3.3-.5-1.5-1-2.9-1.7-4.3-.1,.2-.1,.6,0,1Z"/>
      <path class="uuid-76242235-ce31-4ffa-92bd-8664e019f711" d="M54.4,41.1h.4c-.7-.7-1.2-1.4-2-1.8-.6-.4-1.4-.6-2.1,.2-.1,.1-.4,.2-.6,.3-1.6,.7-1.9,2.2-2.3,3.6-.5,1.9-.7,3.7-.2,5.6,0,.3,0,.7-.2,.9-1.3,1.5-2.7,2.9-4,4.3-.9,.9-2.1,1.1-3.4,1.2,.2-.3,.3-.4,.3-.6l-.2-.2c-.3,.2-.5,.6-.8,.7-.7,.2-1.4,.2-2.1,.2-1.2,.1-1.8,1.4-1.3,2.3,8.2-1.9,15.1-7.2,19-14.4-.2-.5-.5-1.1-.7-1.7,0-.2,0-.5,0-.8Z"/>
      <path class="uuid-76242235-ce31-4ffa-92bd-8664e019f711" d="M53.2,27.2c-.6,.5-.4,1.5,.3,2.4,.6,.8,1.1,1.6,1.4,2.5,.4,1-.1,1.6-1.2,1.5-2.4-.2-4.8,.4-7.2,.9-1.8,.4-3.7,.4-5.6,.5-.4,0-.7,0-1.1,0,.7,1,1.5,2,2,3.1,1.5,2.9,1.8,6,.8,9.2-.5,1.8-2,1.9-3.5,2-.7,0-1.5,0-2.2-.2-1.6-.5-3.2-.5-4.8,0-.7,.2-1.5,.3-2.2,.5-1.6,.6-1.9,1.1-1.5,2.7,.1,.6,.5,1.2,.7,1.9,.4,1,1.2,1.4,2.2,1.5,1.3,.1,1.7,.8,1,1.9-.2,.4-.5,.7-.8,1.1,1.2,0,2.4-.2,3.5-.5-.4-.7,0-1.4,.2-1.9,.2-.5,.9-1,1.4-1.3,.7-.3,1.6-.5,2.4-.7,.5-.1,1-.3,1.4-.1,1.6,.5,2.5-.5,3.4-1.5,.9-.9,1.8-1.8,2.6-2.7,.3-.3,.4-.9,.4-1.3,0-1.4,0-2.8,0-4.2,0-.8,.5-1.6,.6-2.5,.3-1.3,1.1-2,2.1-2.7,.3-.2,.6-.3,.8-.5,1.2-.8,1.6-.8,2.7,.1,.9,.7,1.8,1.5,2.6,2.3-.2,.4-.2,.8-.2,1.2,1.9-3.9,3-8.3,3-13s-.2-3.5-.5-5.1c-.8,.3-1.5,.7-2.3,1.1-1,.5-1.9,1.1-2.8,1.8Z"/>
      <path class="uuid-76242235-ce31-4ffa-92bd-8664e019f711" d="M12.4,40.8c-.2-2.7,.4-5.2,.8-7.8,.5-2.9,1.3-5.8,1.1-8.7,0-1.6,0-3.2,0-4.8,0-1,.3-2,.4-3,.3-3,.6-6,.8-9,.1-1.4,.2-2.8,.3-4.2-4.9,2.5-9,6.4-11.8,11.1-.4,3.6-1.1,7.1-.9,10.8,0,1.7-.3,3.3-1.1,4.8-.5,.9-1,2-1.1,3,0,1.1-.1,2.3-.1,3.4,1.4,5.8,4.5,10.9,8.8,14.7,.2-.8,.5-1.6,.9-2.3,1.3-2.5,2.2-5.1,2-8Z"/>
    </g>
  </g>
</svg>