<?xml version="1.0" encoding="UTF-8"?>
<svg id="uuid-4d05329b-8ff3-4d82-867c-723b9e49b2b4" data-name="Layer 2" xmlns="http://www.w3.org/2000/svg" width="53.5mm" height="59.6mm" viewBox="0 0 151.7 169.1">
  <defs>
    <style>
      .uuid-7c29be62-2eec-4f7a-b76e-702f038de8a8 {
        fill: #fff;
      }
    </style>
  </defs>
  <g id="uuid-12d6ccc1-7c98-41fb-8d7e-76f8ed9e61e3" data-name="Layer 1">
    <g>
      <path class="uuid-7c29be62-2eec-4f7a-b76e-702f038de8a8" d="M149.2,56.5c-1.9,.4-3.6,1-5.1,2.1-.8,.6-1.7,1.2-2.7,1.6-.8,.4-1.7,.5-2.6,.7v-.2c0-.2,0-.5,.2-.5,.7-.2,1.4-.3,2-.6,.8-.4,1.6-.8,2.3-1.3,1.9-1.4,3.5-3.2,4.8-5.2,.4-.5,.8-1,1.3-1.7-1.3,.5-2.5,1-3.7,1.5-1.6,.6-3.1,1.1-4.7,1.6-.2,0-.5,0-.7,0-.4-.2-.8-.4-1.3-.5,.3-.2,.6-.5,1-.7,1.7-.8,3.4-1.5,5.2-2.3,2.7-1.3,4.4-3.4,4.8-6.4,.1-1-.4-1.5-1.5-1.3-1.1,.2-2.3,.4-3.4,.7-1,.3-2.1,.3-3.1,.6-1,.2-1.9,.8-3,1.3-.1,0-.4-.2-.6-.1-1.4,.4-2.7,.9-4,1.2-1.5,.3-3.1,.6-4.7,.1-.2,0-.5-.2-.7-.4,.2,0,.4,0,.6,0,2,.4,3.9,.1,5.8-.5,2-.6,4-1.4,6-2,1.9-.5,3.8-.7,5.7-1.2,1.3-.4,2.4-.2,3.5,.4,0,2.9-1,5.3-3.3,7-1.3,1-2.9,1.6-4.5,2.3-.9,.4-1.8,.8-2.7,1.3,4-.2,7.4-2.6,11.3-3.2v.2c0,0-.2,.2-.4,.2-1.5,.5-2.4,1.7-3.2,3-.6,.9-1.4,1.7-2.1,2.5,0,.1-.2,.2-.3,.4l4.6-1.4c0,.8-.5,1-.9,1.3-1.2,1-2.4,2-3.6,2.9v.2l3.6-.2v.2c-.1,.1-.3,.3-.4,.4-1.9,.5-2.4,2.2-3.2,3.6-1,1.8-1.8,3.8-2.8,5.6-.5,1-1.2,1.9-1.7,2.8-.3,.5-.5,1-.7,1.6-.3,1.1-.3,2.3-.7,3.4-.5,1.2-.4,2.5-.5,3.7,0,.5-.2,1.1-.4,1.5-.6,1.1-1.1,2.2-.8,3.5,0,.3-.1,.7-.1,1,0,1.2,0,2.5,0,3.7,0,.5,0,.8-.6,.8-1.5,.1-3.1,.3-4.6,.3-.9,0-1.9,.7-1.9,1.6,0,1.1,.2,2.2,.2,3.3,0,.9-.2,1.8-.3,2.7-.2,1.4-.4,2.9-.7,4.3-.3,1.4-1,2.4-2.5,2.5-2.1,.2-3.8,1.3-5.6,2.2-2.1,1-3.4,2.6-4.7,4.5-1.4,2.1-3.1,3.9-5.9,4.1-.2,0-.4,.1-.6,.3-.9,.5-1.8,.3-2.8,.2-.8,0-1.5-.1-2.3,0-1.4,.2-2.9-.1-4.3,.5,0,0-.2,0-.3,0-1.6,1-3.5,.8-5.2,.8-2.1,0-4.3,.5-6.4,0-.8-.2-1.6,0-2.3,.5-1.1,.9-2.3,1.7-3.2,2.5,.5,.5,.8,1,1.2,1.4,.1,.1,.4,.2,.6,.3,.2-.8,1.2-1,1.2-2,0-2.1,.2-2,2-2.1,.3,0,.7,0,1,0,1.3-.3,2.2,.4,3.1,1.1,.2,.2,.4,.5,.3,.7,0,1.3-.2,2.5-.4,3.7,0,1.1-.3,2.2-.2,3.3,.2,1.8,0,3.4-.6,5.1-.7,2.2-1.2,4.5-1.8,6.7-.4,1.5-.7,3-1.1,4.4-.2,.6,0,1,.6,1.1,.2,0,.4,.2,.7,.3,.3,.2,.6,.3,1,.4,.3,.4,.4,1.2,1.2,.5,0,0,.3,0,.4,.2,.6,.6,1.5,.5,1.7-.2,.4,.2,.8,.5,1.2,.8,.5,.3,1,.6,1.5,.8,.7,.3,1.4,.6,2.1,.9,1.4,.6,2.8,1.1,4.2,1.6,.7,.3,1.4,.5,2.2,.9-.3,.2-.5,.3-.6,.3-.4,.1-.9,.3-1.3,.3-1.8,.3-1.9,1.7-1.8,2.9,0,.3,0,.6,0,.9-.2,.9-.6,1.1-1.5,.8-1.1-.3-2.2-.4-3.3-.7-1.5-.4-3.1-.8-4.6-1.2-.5-.1-1.1,0-1.7,0-.9-.2-1.9-.4-2.8-.6-.7-.1-1.4-.3-2.1-.3-1,0-1.9,0-2.9,.2-.9,.1-1,.3-.6,.8l-.3,1.8c-.5-.1-1.3-.1-1.9-.4-.9-.4-2-.5-2.6-1.5,0,0,0,0-.1,0-1.5-.1-1.3-1.3-1.1-2.2,0-.7,.1-1.4-.2-2.1,0-.1,0-.3,0-.6,.3,.3,.6,.4,.8,.6,.5,.7,1.2,.4,1.8,.3,.3,0,.4-.8,.5-1.3,0-2,.1-4,0-5.9,0-1-.4-2.1-.5-3.1-.1-2.9-2.1-4.7-3.6-6.8-.4-.5-.9-.2-1.2,0-1.3,.8-2.7,1.5-3.7,2.8-.7,.9-1.9,1.3-2.8,2-1.6,1-2.5,2.6-3.2,4.3-.2,.5-.7,.9-1.2,1.3-.4,.4-.8,.7-1.2,1.1-1,1.1-2.6,1.2-3.8,1.9-2,1.1-3.7,.2-5.5-.7-.4-.2-.8-.3-1.2-.4-2-.5-3.9-1.1-5.9-1.4-1.6-.2-2.9-.8-4.4-1.4-2.6-1.1-5.2-2-7.9-2.8-1.1-.3-2.2-.3-3.4,.2-1.2,.5-2.6,.8-3.6,1.7-.3,.3-.8,.4-.2,1,.1,.1,0,.6,0,.8-.6,1.6,0,3.2,0,4.8,0,.6,.1,1.2,0,1.7,0,.8,0,1.6,.4,2.3,.3,.5,.4,1.2-.6,1.4-.2,0-.3,.3-.4,.5-.3,1-.3,2-.7,3.1-.5,1.4-.7,2.9-1.7,4.2-.6,.8-.7,2.2-.9,3.3-.3,1.2-.6,1.5-1.8,1.6-.9,0-1.7,.3-2.2,1.1-.3,.4-.5,.3-.7,0-.4-1.1-1-2-2-2.8-.7-.5-.8-1.8-1.1-2.7-.2-.7-.1-1.5,0-2.3,0-.6,0-1.4,.4-1.9,.7-1,.9-2.2,.9-3.3,0-1.1,.6-2,1.1-2.9,.7-1.3,1.1-2.5,1.1-4.2l-1.4,.6c0-.2-.1-.3-.2-.5-.1-1.2,0-2.4,.5-3.6,.3-.8,0-1.9,0-2.9,.2,0,.5,0,.9,0,.6,0,.9-.2,1.2-.8,.2-.4,.7-.5,1.1-.8l.2,.2v-.7c.4,.2,.8,.3,1.1,.5,.7,.4,.9,0,1.2-.5,1.2-1.9,2.9-3.3,5.2-3.8,.8-.2,1.6-.6,2.4-.7,.9-.1,1.7,0,2.6,0,1.6,.1,3.2,.6,4.8,.2,.4-.1,.9-.2,1.4-.2,1,0,1.9-.6,2.8-1.2,1.3-.9,2.8-1.7,4.5-1.6,.8,0,1.5,0,2.4-.4,.9-.4,2.1-.3,3.1-.2,1.2,.1,2.2-.2,3.2-.9,.7-.5,1.5-.9,2.2-1.3,.7-.5,1.1-1.1,1.2-2,0-1.1,.4-2.2,.7-3.3,0-.2,.5-.3,.7-.5-.3,1.6-.6,2.9-.8,4.3-.2,1.2-.9,2-2,2.6-.8,.4-1.5,.9-2.2,1.4-1,.7-2.1,.4-3.2,.5-.9,0-1.7,.2-2.6,.3-.8,.1-1.6,.3-2.4,.3-1.7,0-3.1,.8-4.5,1.7-.6,.4-1.4,.7-2.1,.9-.7,.2-1.4,.4-2.1,.5-2.1,.4-4.1,0-6.1-.4-.4,0-.8,0-1.1,0-1.8,.6-3.7,1.1-5.3,2-1.6,.9-2.8,2.4-3,4.5,0,.6-.3,1.3-.3,1.9,0,1.2,.4,2.3,.5,3.4,0,.3,0,.6,.1,1.1,.4-.7,.8-1.3,1.1-1.9,.3-.6,.6-1.3,.7-1.9,0-.5,0-1-.1-1.5-.1-.6-.3-1.3-.5-1.9h.3l.6,2c.5-.6,.9-1.1,1.4-1.5,.9-.9,2.1-1.4,3.4-1.6,.4,0,.7-.4,1.1-.5,1,0,2.1-.1,3,.1,2.6,.8,5.1,1.7,7.6,2.6,1.1,.4,2.2,1,3.3,1.3,2.4,.6,4.9,1,7.4,1.6,1,.3,2,.7,2.9,1.2,1.2,.6,2.3,.3,3.4-.2,.8-.4,1.8-.6,2.5-1.1,1.5-1.1,2.9-2.3,3.7-4,.8-1.9,2.4-3.1,4.2-4.2,.8-.5,1.5-1.1,2.1-1.8,.4-.5,.8-.9,1.4-1.2,.6-.3,1.1-.6,1.7-.9,.7-.4,1.4-.7,2,0,1.4,1.8,3.2,3.4,3.6,5.8,.4,2.3,1.1,4.6,.7,7-.2,1.3,.2,2.6,0,3.9-.2,1.8,.9,2.6,2,3.6,.2,.2,.9,0,1.3,0,.4,0,.7,0,1.1,0,.2,0,.5,.2,.7,0,1.5-.6,2.8,0,4.2,.5,.6,.2,1.2,.3,1.8,.3,1.7,0,3.4,.2,5,.9,.5,.2,1.1,.3,1.7,.4,1.1,.2,2.3,.4,3.6,.6v-2.2c.2-1,.8-2.1,2.2-2.4v-.2c-2.9-1.2-5.7-2.3-8.5-3.5-.5,.6-.3,1.8-1.6,2l1-2.1h-1.7c0,.3,0,.7-.2,1,0,.2-.4,.3-.6,.4,0-.2-.2-.6,0-.7,.4-.5,.3-.9-.3-1.2-.2,.5-.3,.9-.4,1.3,0,0-.3,.1-.4,.2,0-.1-.1-.3-.1-.4,.3-1.3,.2-1.6-.9-2.2-1.6-.8-1.6-.8-1.1-2.6,.3-.9,.4-1.9,.6-2.9,.8-3,1.6-5.9,2.3-8.9,.3-1.2,.4-2.6,.3-3.8-.2-1.6,.3-3,.5-4.5,.1-.7,.2-1.4,.2-2.1,0-.2-.3-.3-.4-.5-.7-1.2-1.9-1.4-3.2-1.2-1.6,.2-1.7,.2-1.9,1.8,0,1.1-.9,1.7-1.5,2.4,0,.1-.5,.1-.7,0-.4-.3-.7-.6-1-.9-.6-.8-1.1-1-2-.5-1,.6-2.1,.8-3.2,.5-.8-.2-1.4,.2-2,.8-.8,.8-.9,.8-1.8,0-.7-.6-1.5-1.1-2.2-1.7-.2-.1-.4-.1-.6-.1-.7,0-1.5-.1-2.2-.2-.5,0-.9,0-1.1,.6,0,.2-.3,.4-.5,.4-.6,0-1.2,0-1.8-.1-1.3-.4-2.4-.5-3.5,.6-.5,.5-1.1,0-1.5-.3-.7-.6-1.3-1.3-2.1-1.9-.9-.7-2-.6-3-.6-.1,0-.2,.2-.3,.3-.2,.5-.4,1.2-.7,1.5-.4,.4-1.1,.8-1.7,.8-1,0-2-.1-3-.2-.3,0-.7,.2-1,.3v.4c-.5-.3-1-.6-1.5-1-1.3-.8-2.5-1.7-3.8-2.4-.3-.2-1,.1-1.5,.3-.3,0-.6,.2-.8,.4-1,.9-2.3,.8-3.5,1-.9,.1-1.7,.5-2.4,1-.1,0-.3,.2-.3,.3,0,1.3-.7,.6-1.1,.3-1.3-1.1-2.7-1.3-4.3-.8-.6,.2-1.1,.6-1.7,.8-.3,.1-.6,0-1,.1-.3,.4-.5,1.1-1,1.6-.4,.4-1,.5-1.6,.6-1.4,.3-3,.2-4.3,.7-1.1,.4-1.6-.1-2.3-.7-.8-.6-1.6-1.2-2.5-1.6-2.6-1.1-4.1-3.2-5.1-5.7-.4-1.1-1.1-2-2.3-2.2-1.5-.3-2.7-1.3-3.8-2.3-.7-.6-1.4-1.2-2-1.9-.8-1.1-1.6-2.2-2.1-3.4-.5-1.2-.8-2.5-1-3.7-.4-2.1-.3-4.1,0-6.2,.2-1.5,0-3.2,0-4.7,0-.8,0-1.6,0-2.4,0-1.2-.2-2.4-.3-3.6-.1-1.2-.3-2.3,.2-3.5,.7-1.5,.5-3.1,.5-4.7,0-1.9,0-3.9,.2-5.8,0-.7,.5-1.5,.9-2.1,1-1.7,1.2-3.6,1.1-5.4-.2-2.5,.2-5,.7-7.4,0-.3,.1-.6,.1-.9-.2-1.9,.6-3.5,1.2-5.2,.7-1.8,.9-3.8,1.4-5.7,0,0,0,0,0,0-.7-2-.1-4,.2-5.9,.2-1.3,.7-2.6,1.9-3.4,.1,0,.2-.2,.3-.4,1-1.7,2.5-2.9,4.4-3.6,.8-.3,1.5-.8,2.3-1.3,.4-.2,.9-.4,1.2-.7,.5-.5,.8-1.1,1.2-1.6,.4-.6,.4-1.1,0-1.8-.6-1.2-1.1-2.5-1.5-3.8-.3-1-.5-2.1-.8-3.3,1.2,0,1.9,.8,2.8,1.5,0-.5-.2-.9-.2-1.3,0-.5,.2-.9,.8-.4,.2,.2,.6,.2,.9,.3-.3-1.9-.6-3.6-2-5-.7-.7-1.6-1.1-2.5-1.5-1.4-.7-2.8-1.3-4.3-2,.2-1.3,.5-2.4,1.8-2.8,1.1,.6,2.2,1.2,3.4,1.8,1.3,.6,2.6,1.1,3.7,1.6-.6-1.2-2-2.4-2.7-2.1v-1c.4,.1,.8,.2,1,.4,.7,.8,1.4,1.7,2.1,2.6,.2,.2,.5,.4,.7,.6,.5,.4,1.1,.7,1.8,1.1-1.2-1.6-.3-3.2-.6-4.8l.3-.2c.5,.4,1.1,.7,1.4,1.3,1.1,1.7,1.9,3.5,3.1,5.1,.9,1.2,2.3,2.1,4,2,.5,0,.6,0,.7,.5,.3,1,.2,1.9-.6,2.7-.5,.5-1.1,.7-1.6,0l2,6.4c.2-.3,.5-.6,.6-.9,.5-1.4,1-2.9,1.4-4.3,.1-.5,.1-1,.2-1.5,0,0,0-.1,0-.2,.3-.4,.7-.8,1.1-1.2,.2,.4,.4,.8,.5,1.1,.3,2.2,.5,4.3-.3,6.5-.6,1.7-.9,3.5-1.4,5.2-.1,.4-.5,.8-.8,1.1-1.1,1.2-2.3,2.3-3.5,3.5-.5,.5-1.5,.5-2.1,.3-.8-.2-1.7-.3-2.4-.1-1.9,.4-3.8,.9-5.7,1.5-.4,.1-.9,.6-1,1-.4,1-.7,2.1-2.2,1.8-.2,0-.7,.7-.8,1.2-.2,.8-.2,1.7-.2,2.6,0,2-.6,3.9-.3,6,.2,1.2-.3,2.4-.4,3.7-.2,1.8-.3,3.7-.4,5.5,0,.6-.3,1.3-.3,1.9,0,1.7,0,3.3,0,5,0,2-.5,3.8-.9,5.8-.5,2.8-.9,5.6-.8,8.5,0,1.7-.6,3.3-1.3,4.9-1.1,2.2-1.5,4.6-1.6,7-.2,2.9-.6,5.7-.9,8.5,0,.5,0,1.1,.1,1.7,.2,.9,.5,1.7,.6,2.6,.2,2.1,1.5,3.6,3,4.9,0,0,0,0,0,0,.8,1.4,2.4,1.2,3.6,1.9,1.1,.7,2.4,1,3,2.2,.2,.4,.3,.8,.5,1.1,.4,.6,.8,1.2,1.1,1.9,.2,.5,.4,1,.5,1.5,.2,.9,.9,1.4,1.8,1.5,.8,0,1.6,.3,2.3,.6,.9,.5,3.5,0,4.4-.8,.9-.9,1.8-1.7,2.8-2.4,.6-.4,1.2-.6,1.9-.9,0,0,.2,0,.2,0,.8,.6,1.9,.4,2.7,1.3,.9,1.1,2,.4,3,.1,1.6-.4,3.1-1.2,4.7-1.4,.7-.1,1.7,.6,2.3,1.2,1.3,1.5,3,2,4.8,1.3,1.7-.6,3.5-1,5.2-1.5,.1,0,.3,0,.4-.2,.7-.4,1.2-.3,1.8,.3,.6,.6,1.5,.9,2.4,.7,1-.2,1.9-.4,2.9-.6,.4,0,.8-.2,1.2,0,1.4,.5,2.7-.1,4-.1,.7,0,1.3,.1,2,.3,.7,.2,1.4,.5,2.1,.6,1.7,.3,3.1,1.6,4.9,1.6,.6,0,1.2,.4,1.8,.5,1.8,.2,3.1-.9,4.5-1.9,1-.7,1.9-1.5,2.9-2.2,.9-.6,1.9-.4,2.8-.2,.6,.1,1.2,.2,1.8,.2,.9,0,1.8,0,2.7,0,1.7,0,3.3-.1,5-.4,1.1-.2,2.2-1,3.2-1,2,0,4-.7,6,0,.4,.1,.9,0,1.3-.1,1.2-.4,2.3-.8,3.5-1.2,1.2-.4,1.7-1.5,2.5-2.3,.8-.9,1.4-1.8,2-2.8,.7-1.1,1.8-1.7,2.9-2.3,1.1-.7,2.3-1.4,3.4-2,.5-.3,1.1-.3,1.7-.4,2.6-.4,3.4-1.4,3.7-4.3,.1-1,.4-2.1,.5-3.1,0-1.6,0-3.1,0-4.7,0-.8,.7-2.4,1.4-2.7,.2,0,.5,0,.8,0,1.4,0,2.8,0,4.2-.1,.7,0,1.2-.4,.8-1.3-.2-.4,0-1,0-1.5,.1-1.5,.3-3.1,.5-4.6,0-.2,0-.4,.2-.6,1-1.1,.8-2.4,.8-3.7,0-1.2,.4-2.3,.7-3.4,.2-.7,.5-1.4,.5-2.1,0-.9,.3-1.5,.8-2.2,1.5-1.9,2.4-4.1,3.5-6.2,.8-1.7,1.9-3.3,2.8-5-.5-.3-1.1-.5-1.6-.1-.6,.3-1.1,.7-1.6,1.2-.9,1.1-1.8,2.3-2.7,3.4-.2,.2-.4,.3-.6,.5l-.3-.2c.3-.6,.6-1.4,1-1.9,2.1-2.2,4-4.6,6.5-6.2,.4-.3,.8-.7,1.2-1ZM19.3,28c-.1-.6-.3-1.1-.4-1.7-.1-.7,0-1.5-.5-2-.4-.6-1.2-.9-2-1.3,.2,1,.3,2,.6,2.8,.4,1.5,1.1,2.1,2.3,2.2,0,1.1-.7,.5-1.3,.2,.3,.7,.5,1.2,.7,1.6,.3,.8-.2,2.5-.9,2.9-.6,.4-1.3,.9-1.9,1.3-.8,.5-1.6,1-2.4,1.4-1.5,.8-3,1.6-3.8,3.2-.1,.3-.4,.6-.6,.7-1.1,.7-1.5,1.8-1.7,2.9-.3,1.5-.4,3-.6,4.5,0,.3,0,.7,0,1,0,.6,.2,1.2,0,1.7-.4,1.7-.7,3.4-1.3,5-.6,1.4-.9,2.7-1.1,4.2-.3,3.3-1,6.6-.9,10,0,1.4-.3,2.7-.9,4-.4,.8-.9,1.6-.9,2.5-.2,2.5,0,5-.2,7.4,0,1.1-.4,2.2-.6,3.3-.1,.7-.4,1.3-.3,2,0,2.1,.3,4.1,.4,6.2,0,1.8,.3,3.6,0,5.3-.4,3.3-.5,6.5,.8,9.6,.6,1.5,1.2,2.9,2.5,3.9,.5,.4,1,.9,1.5,1.4,1.1,1.2,2.3,2.2,4.1,2.4,.4,0,.8,.3,1.1,.6,.6,.8,1.1,1.6,1.5,2.5,1,2.1,2.3,3.9,4.6,4.9,.8,.3,1.4,1,2.2,1.5,.7,.5,1.2,1.3,2.2,.6,.2-.1,.5,0,.8,0,.1,0,.4,0,.4,0,.2-.8,.7-.5,1.3-.5,.8,0,1.8,0,2.5-.4,.6-.4,.9-1.3,1.4-2-.9,0-1.9,.3-2.7,0-.9-.4-1.8-.6-2.7-.7-1.7,0-2.4-.8-2.6-2.3,0-.3-.2-.7-.4-1-.3-.6-1-1-1.1-1.6-.3-1.9-1.8-2.7-3.4-3.3-1.6-.6-3-1.3-4.3-2.4-2.6-2.2-2.5-5.4-3.5-8.2,0,0,0-.2,0-.3,.2-1.2,.4-2.4,.5-3.6,.2-2.3,.3-4.5,.6-6.8,.2-1.8,.5-3.6,1.3-5.3,1.1-2.1,1.8-4.2,1.6-6.6-.2-2.2,.3-4.3,.7-6.5,.4-2.4,1-4.8,.9-7.2,0-1.3,0-2.7,0-4,0-.8,.3-1.6,.4-2.5,.2-2.5,.5-5,.7-7.5,.2-2.3,.3-4.6,.5-6.9,0-1.3,.1-2.6,.2-3.9,0-.3,.2-.6,.4-.7,1.1-.9,2.2-1.7,3.4-2.5,.6-.4,1.2-.7,1.8-1,2.3-1,4.8-1.1,7.2-1,1.4,0,2.2-.7,2.9-1.5,.6-.8,1.3-1.3,2-1.9,.4-.3,.8-.8,.9-1.2,.3-1,.6-2,.7-3,.1-1.7,1.6-3.2,1-5.1,.6-1.2-.1-2.2-.1-3.4-.8,2.1-1.3,4.2-2,6.3-.2,.5-.6,1-1.1,1.4-.3,.3-.6,.2-.8-.4-.8-2.8-1.5-5.7-2.6-8.4-1-2.7-2.4-5.2-4.2-7.5-.4-.4-.6-1-.9-1.4-.7,2.2,.1,4,1.1,5.8l-.4-.3,1,2.6-2.9-1.5,1,2,.4-1c.9,1.4,1.5,2.7,1.7,4.1-.4-.1-.8-.3-1-.5-.8-1.3-1.7-2.5-2.4-3.9-.7-1.3-1.7-1.8-3-1.9,.5,1.1,1.2,2.1,1.4,3.2,.3,1.6,1,2.8,1.8,4.2-.6,.6-.8,0-.9-.3-.5-.9-1.1-1.6-2.1-1.7,.1,.7,.3,1.4,.4,2.2,.2,1.4,0,2.9,1.4,4l1.1-2.8c.1,.4,.3,.7,.3,.9-.2,.7-.4,1.3-.7,1.9-.2,.4-.5,.6-.8,1-.5-.8-.8-1.4-1.2-2Zm2.7,130v-.3l1.4,.4,.5-.8c-.5-.4-.9-.7-1.3-1.1-.1-.1,0-.4-.1-.6,.2,0,.5,0,.6,.2,.4,.2,.7,.5,1.1,.9l.8-1.7-2.4-.9c0-.1,0-.4,.1-.4,.8,.1,1.6,.3,2.6,.4l-.7-6.1c-.6,.7-1.4,1.6-2.2,2.5,0,0-.6,0-.6-.1,0-.4,0-.8,0-1.2,0-.5,.2-1,.2-1.5-.3-1.8-1-3.6,0-5.4l-1.7-.2c0,.8,0,1.7,0,2.5,0,.8-.1,1.7-.2,2.5,1.4,.3,1.8,1.1,.9,2-1.1,1.1-1.2,2.4-1.3,3.8-.2,2.4-.9,4.5-2.2,6.5-.3,.5-.5,1.1-.5,1.7,0,.8,.4,1.6,.4,2.5,0,.9,.7,1.2,1.3,1.3,.4,0,.8-.4,1.1-.7l-.5-1.2,1.3,.8,2.2-4.8-.9-.7Zm-3.6,9.7c.6-.2,1.3-.5,2-.5,1.1-.1,1.7-.7,1.8-1.8,0-1.3,.3-2.5,1.2-3.5,.4-.4,.6-1.1,.9-1.6l-1-.6c-.3,.4-.6,.8-.8,1.2-.3,.7-.6,1.5-.9,2.3,0,.2,0,.6-.2,.7-.7,.5-1.5,1.1-2.2,1.5-.6,.3-2.2-.5-2.4-1.2-.2-.9-.3-1.8-.5-2.7-.3-.9,0-1.8,.5-2.4,1.3-1.7,2.1-3.6,2.2-5.7,0-2,.5-3.9,1.7-5.5-.2,0-.4-.1-.5-.2-.4,0-.8-.2-1.2-.2,.2-.4,.4-.7,.5-1.1,0,0,0,0,0,0,0-1.3,.1-2.5,.2-4l-2,.7c.5,1.2,0,2.3-.3,3.4-.2,.6-.2,1.3-.3,1.9,.8,0,1.4-.2,2-.2,.2,0,.3,0,.5,.2,0,.2-.1,.4-.2,.5-.2,.3-.5,.5-.6,.8-.2,1.6-1,3-1.7,4.5-.4,.9-.5,2-.7,3,0,.4,0,.9-.3,1.2-.8,1.2-1.1,2.5-.9,3.9,0,.4,0,.9,0,1.4,.2,.7,.4,1.5,.8,2,.6,.8,1.4,1.5,2.2,2.3Zm11.1-45.1c.8,.4,1.1-.2,1.4-.9l.3,1.3c1.4-.7,2.5-.1,3.7,.5,.3,.1,.7,0,1,0,1-.6,1.9-1.2,3.1-1.3,.9,0,1.8-.3,2.6-.6,1.4-.6,2.7-1.6,4.4-.7-.6-.6-1.3-1.3-1.9-1.3-1.2,0-2.3,.6-3.5,1-1,.3-1.9,.7-2.9,.8-.7,.1-1.7,.4-1.9-.8,0-.2-.3-.3-.5-.4-.9-.3-1.8-.6-2.7,0-1.2,.6-2.5,1.2-3.2,2.5Zm48.6,.7c-.6-.1-1.1-.3-1.7-.4-.9-.3-1.8-.6-2.7-.9-.8-.3-1.8-.4-2.5-.9-.7-.4-1.4-.6-2.1-.4-1.5,.3-3.1,.2-4.6,.2-1.2,0-2.4,.5-3.7,.8,.5,.6,1,1.2,1.5,1.6,.2,.2,.8,.2,1.1,0,1.3-.9,2.7-.8,4.1-.3,.4,.2,.7,0,1-.3,.7-.6,1.4-1.3,2.4-.7,.3,.2,.7,0,1.1,0,.6,.1,1.3,.2,1.8,.5,.8,.5,1.5,1.1,2.3,1.7l2-1.1ZM13.1,11.6c-.2,.5-.4,1-.6,1.4-.3,.5-.2,.8,.3,1.1,1,.4,1.9,.9,2.8,1.4v-.4c.3,0,.6,0,.8,0,.6,.1,1.2,.3,1.9,.4,.4,0,.8,.1,1.1,.3,.5,.3,1,.8,1.5,1.1,.8,.4,1.7,.7,2.6,1l-.7-1.5-.4,.4c-.5-.5-.9-1.3-1.4-1.4-1.1-.2-1.8-.9-2.6-1.4-.2-.1-.3-.3-.5-.3-1.8-.2-3.3-1-4.7-2.2ZM56.5,120.7l-.2-.3c-.7,.2-1.4,.4-2.1,.6-2,.8-4,2-6.4,1.2,.6,.4,1.2,.8,1.9,1,.9,.2,1.9,.2,2.8,.2,.9,0,1.9,.2,2.6-.5,.6-.6,.9-1.5,1.3-2.3ZM31,21.9c.1-1.3-.5-2.1-1.8-2.4-.4,0-.7-.4-1.1-.6h-.2l2,3.5,1-.5Zm46.7,131.8c-.2,1,.8,1.7,2.3,1.5l-2.3-1.5Zm-52-6c-.2,1-.5,2.1,.2,3.1l-.2-3.1Zm-1.1,11.4l.3-1.7h-.3c-.2,.3-.5,.7-.6,1.1,0,0,.3,.3,.6,.5Zm56-3.7l1.5,1.3c0-.8-.7-1.4-1.5-1.3Z"/>
      <path class="uuid-7c29be62-2eec-4f7a-b76e-702f038de8a8" d="M99.2,68.5l-2.1,1.1c.7,1.8-.1,3.3-.8,4.8-.6,1.2-1.4,1.3-2.5,.5-.4-.3-.7-.5-1.2-.9-.2,.4-.4,.7-.6,1.1-.1,.2,0,.5-.3,.6-.4,.3-.9,.6-1.3,.6-.4,0-.7-.6-1-1l.3-.2,.7,.8c.4-.5,.7-.8,.8-1.6,0-1.2,.2-2.5,.7-3.6,.2-.6,1.1-.9,1.8-1.3,.4-.2,.9-.3,1.3-.5v-.3c-.5-.2-1-.4-1.6-.4-1.4,0-2.2-.8-2.7-2l-.3,.2c0-.1,0-.2,0-.3,.2-.7-.1-1-.7-1.2-.2,0-.5,0-.6,.2-.7,1.2-1.4,2.5-2.1,3.7-.5,1-.7,2.1-1.4,2.9-1,1.1-2.2,2-3.4,3-.7,.5-1.5,1-2.3,1.3-.3,.2-.8,.2-1.2,.2-1.8,0-3.1,.7-4.2,2-2,2.3-3.8,4.8-6.2,6.7-.7,.6-1.3,1.5-2,2.2-1.4,1.3-2.7,2.7-4.4,3.5-1,.4-2.2,.5-3.2,.9-1.5,.7-3,1.5-4.5,2.3-.7,.4-1.4,.9-2,1.5-.5,.5-.8,1.2-1,1.8-.4,1.4-.7,2.8-1,4.1-.1,.4,0,.8,.4,1.1,1.3,1,1.7,1,3,.1,.7-.5,1.6-.9,2.4-1.4,.8-.5,1.6-.3,2.3,.2,1.5,.9,3.1,1.3,4.7,1.8,1.3,.4,2.6,1.1,3.9,1.6,1.2,.5,2.4,.6,3.6-.2,2.1-1.4,4.4-2.3,6.9-2.2,1.5,0,2.9,.5,4.4,.8,0-.7,.6-.8,1.3-1.1,1.6-.7,2.7-2,3.7-3.4,.2-.3,0-.8,.1-.9,1.5,0,2.9,.1,4.3,.1,.2,0,.5-.1,.6-.3,0-.2,0-.5-.2-.6-1-1.2-2-2.5-3.1-3.7-.4-.5-1-.9-1.7-.3-.1,0-.4,0-.7-.1,0-.2,0-.5,.2-.6,.8-.6,1.6-.3,2.4,.1,1.1,.6,2.2,1.4,3.5,1.1,2-.6,3.2,1.1,4.9,1.4,0-.3,0-.5,0-.7-.5-1.3-.1-2.4,.4-3.6,.6-1.3,.6-2.7,.1-4-.2-.7-.6-1.3-.8-2,0-.1,0-.3,0-.5,.2,0,.3,0,.5,0,.7,.1,1.4,.4,2.1,.4,2-.2,3.6,.6,5.2,1.4,1.7,.8,3.4,1.5,5.1,2.1,1,.3,1.7-.4,1.7-1.4,0-1.1-.2-2.1-.7-3-.6-1.1-1-2.2-1.3-3.4-.8-3.1-1.4-6.2-2.3-9.3-1-3.5-2.3-7-5-9.6-.8-.7-1.4-1.7-2.7-1.8-.5,0-1.1-.1-1.6,0-1.6,.2-2.7-.5-3.7-1.7-.9-1.1-1.7-2.2-2.8-3.1-1-.8-2.4-1.3-3.5-2-2.1-1.3-4.3-1.8-6.7-1.7-.8,0-1.7,.2-2.5,.5-1.8,.7-3.5,.7-5.3,.3-.9-.2-1.9-.2-2.9-.2-1.5,0-2.3,.9-2.8,2.1-.3,.7-.5,1.5-.6,2.3-.2,2-.7,2.4-2.7,2.6-1.9,.2-3.7,.7-5.5,1.2-.5,.1-.8,.5-.8,1.1,0,.7,0,1.4-.3,2.1,0,.2-.7,.5-1,.4-.8-.2-1.7-.4-2.5-.7-1.1-.4-2.1-1.1-3.2-1.4-1-.3-2-.4-3-.4-.6,0-.9,.5-.7,1.2,.6,1.7,1.6,3.2,2.9,4.5,.2,.2,.5,.3,.8,.4l-.2,.3c-1.1,.5-2.2,.9-3.2,1.5-.8,.4-1.6,1-2.3,1.5-.5,.4-.3,1.3,.2,2,.5,.6,.9,1.3,1.2,2.1,.4,.9,0,1.3-1,1.3-2-.1-4,.3-5.9,.8-1.5,.3-3.1,.3-4.6,.4-.3,0-.6,0-.9,0,.6,.9,1.2,1.7,1.7,2.5,1.2,2.4,1.5,5,.7,7.6-.5,1.5-1.7,1.6-2.9,1.7-.6,0-1.2,0-1.8-.2-1.3-.4-2.7-.4-4,0-.6,.2-1.2,.2-1.8,.4-1.3,.5-1.5,.9-1.3,2.3,.1,.5,.4,1,.6,1.5,.3,.8,1,1.1,1.8,1.2,1.1,.1,1.4,.7,.8,1.6-.6,.9-1.4,1.8-2.2,2.5-.8,.8-1.8,1.5-2.7,2.1-.8,.6-1.7,1.1-2.7,1.5-2.5,.9-4.7,2.3-6.7,4-.9,.8-.9,1.6,0,2.5,.2,.2,.4,.4,.7,.5,1.3,.5,1.7,1.7,2.5,2.6,.9,1,1.9,1.9,3,2.7,2,1.4,4,2.6,6.3,3.2,1,.3,2,.2,2.9-.7,.7-.7,1.5-1.3,2.2-2l.2,.3c-.2,.2-.4,.4-.6,.6-.5,.5-1,.9-1.4,1.5-.5,.8-1.3,1.1-2.1,1-1-.1-2-.4-2.9-.8-1.6-.7-3.1-1.5-4.6-2.5-1.6-1.1-3.3-2.2-4.2-4.1-.2-.4-.6-.7-1-.9-1.1-.5-1.9-1.4-2.1-2.6,0-.5,.2-1.1,.6-1.5,2.3-2.5,5.4-3.6,8.4-5,.7-.3,1.2-.9,1.8-1.4,1.1-.8,2.2-1.6,3.1-2.5,.5-.5,.9-1.2,1.4-1.9-.6-.2-.9-.3-1.3-.4-1.2-.1-1.7-.9-2-1.9-.3-.7-.4-1.5-.5-2.2-.1-.7,.3-1.2,.9-1.4,1.1-.4,2.2-.8,3.3-.9,1.5-.1,3,0,4.5,0,.4,0,.7,0,1.1,0,1.3,0,2.1-.8,2.3-2.3,.4-2.9-.3-5.5-2.1-7.9-.1-.2-.3-.3-.4-.5-.2-.3-.4-.7-.7-1.1,1,0,1.9,.1,2.8,.2,1.5,0,2.9-.3,4.3-.7,1.6-.4,3.3-.5,4.9-.7,.4,0,.8,0,1.3,0l.2-.2c-.5-.7-1-1.4-1.4-2.1-.3-.5-.7-1-.8-1.6-.2-.9,.5-1.4,1.1-1.7,1.4-.8,2.9-1.5,4.4-2.3-.6-.8-1.3-1.5-1.8-2.3-.5-.9-1-1.8-1.4-2.7-.3-.7,0-1.4,.9-1.5,.8,0,1.6-.1,2.4,.1,2,.6,4,1.4,6,2.1,.3,.1,.6,.2,1.1,.3,.1-.9,.2-1.7,.3-2.4,0-.4,.4-.8,.7-1,1.8-1,3.9-1.3,6-1.5,.3,0,.6-.2,.8-.2,.8,0,1.2-.5,1.3-1.3,0-.7,.2-1.4,.3-2.1-1.5-.4-2.9-1-4.4-.3-.2,0-.3,0-.5,.1-1.5,.1-1.9,.6-1.5,2.2,0,.4,0,.9,.1,1.3-.4-.2-.8-.5-1.2-.6-.7-.3-1.3-.6-2-.8,0,0-.4,.3-.4,.5,0,.6,.2,1.2,.3,1.7l-.3,.2c-1.3-.8-2.7-1.5-4-2.4-1-.7-2-.8-3.2-.9-.9,0-1.7-.2-2.6-.2-.5,0-1,0-1.4,0-.6,.2-1,.5-1,1.3,0,1.2-.4,2.3-.7,3.4-.4,1.1,0,2.2,0,3.3,.1,1.3,.2,2.5,.1,3.8,0,.4-.8,.9-1.3,1.1-.7,.3-1,.6-.9,1.4,.1,.9-.6,1.6-1.5,1.4-.9-.2-1.7-.5-2.5,.3-.4,.3-1.1,.3-1.7,.4-.7,0-1,.4-.9,1.1,0,0,0,.2,0,.3-1-.2-1.8-1.3-1.8-2.1l1,1c.6-1,1.7-.8,2.5-1.1,.3-.1,.5-.3,.8-.4,.5-.2,1-.3,1.5-.4,.7,0,1.3,0,1.8,0,.2-.7,.3-1.4,.7-2,.3-.4,.9-.6,1.3-.9,.2-.1,.4-.3,.4-.4,0-1.2,0-2.4,0-3.7,0-.8-.2-1.5-.2-2.4-.7,0-1.3,.1-1.9,0-.7,0-.8,.4-.8,.8,0,.7,0,1.3,.1,2,.1,1.1-.3,1.6-1.5,1.6-.3,0-.5,0-.7,0,0,.7,.2,1.3,0,1.8-.2,.4-.9,.5-1.4,.7l-.2-.2c-.1,.5-.3,1-.3,1.5,0,.7-.3,.9-1,.8-.2,0-.4,0-.8,.2l-.4-1,.2-.2,1.2,.5c.1-.4,.2-.8,.3-1.1q.4-1.4,1.9-1.3c0-.5,0-1-.1-1.4-.2-.8,.2-1,.9-1,1.5,0,1.5,0,1.3-1.6,0-.4,0-.8,0-1.2,0-1.2,.5-1.7,1.7-1.7,.5,0,1,0,1.6,0-.5-2.5-2.7-4.2-2.7-6.8l-1.9-.3c.1,1.1,0,2.1,.4,3,.3,.9,0,1.2-.5,1.4-.3,.9-.7,1.7-.9,2.5-.2,.9-.4,1.9-.4,2.9,0,1.5-.8,2.6-1.6,3.8-.3,.5-.7,.9-1.1,1.5-.1-.2-.3-.3-.3-.4,0-.9-.2-1.9-.2-2.8,0-.4,.3-.8,.4-1.2,.1-.4,.3-.9,.2-1.3-.3-1.4-.4-2.8,0-4.2,.2-.6,0-1.3,0-2-.4-2.1,.3-3.1,2.3-3.6,.7-.2,.7-.8,.7-1.4,0-.3-.1-.5-.2-.8,0-.6,0-1,.8-1,.8,0,1.6-.2,2.4-.4,.5-.1,.7-.4,.7-1,0-.4,.2-1,.5-1.3,.4-.3,.2-.6,.1-.9-.2-.6-.4-1.2-.5-1.9l.2-.2c.5,.2,1,.4,1.5,.6,.3,.1,.5,.4,.8,.6,.5,.3,.8,0,.9-.4,0-.3,0-.6,0-1,.6,0,1.2,0,1.8,.1,.7,.2,.9-.1,.9-.7,0-1.2,.3-1.3,1.4-.8,.3,.1,.7,.2,1,.2,.5,0,1-.2,1.6-.3,.5,0,1,0,1.2-.6,0-.1,.2-.2,.4-.2,.2,0,.4,0,.5,0,1-1.2,1.8-.4,2.7,.1,1.1,.7,1.4,.5,1.8-.9,.3,.1,.6,.3,.8,.3,.3,0,.6,0,.7,0,.8,.7,1.4,1.5,2.3,1.9,.8,.4,1.8,1,2.6,0h.2c-.2,.5-.4,.9-.7,1.2-.4,.5-1,.6-1.6,.4-.8-.3-1.6-.5-2.4-.7-.5,0-1.1,0-1.8,0,.5,.8,.9,1.3,1.3,1.9,.1,.2,.2,.4,.3,.6,.4,.8,0,1.4-.9,1.2-.9-.2-1.7-.6-2.6-.9-.1,1.2-.3,1.1-1.6,1.3-2.1,.3-4-.5-6-.5-.3,0-.6,0-.9,0,0,.3,0,.6,0,.9,.2,.8-.3,1.4-1.1,1.4-1,0-2,.1-3,.2-.6,0-.9,.2-.7,.9,.2,.7,0,.9-.7,.8-.5,0-1.1,0-1.7-.2l.7,1.6c.2-.2,.4-.4,.6-.5,1-.8,1.5-.9,2.7-.2,.7,.4,1.5,.8,2.1,1.1,.2-.5,.2-1.2,.5-1.4,.4-.3,1-.2,1.6-.2,.3,0,.7,.1,1,0,1-.5,1.7,.2,2.4,.6,.6,.4,1.2,.8,2,1.3-.2-.8-.3-1.3-.4-1.9,0-.2,0-.6,0-.7,.3-.1,.7-.2,.8-.1,.6,.4,1.2,.8,1.6,1.4,.6,.8,1.3,1.2,2.3,1,0-.3,0-.5-.1-.8-.2-1.2,0-1.2,.9-1.8,1.7-.8,3.4-1,5.5-.7l-1.4-3c.9-.4,1.8-.7,2.6-1.1,.7-.3,1.4-.7,2-1.2,.5-.3,.8-.3,1.2,0,.4,.4,.8,.7,1.3,1,.4,.2,.9,.3,1.4,.5,.2,0,.3,.2,.5,.2-.2,.7-1.7,0-1,1.3-1.1,.9-2.3,.4-3.5,.4-1.1,0-1.3,0-.9,1.2,0,.2,0,.3-.2,.5-.2-.5-.3-1.1-.4-1.6,0-.1,.2-.4,.4-.5,.3-.1,.6-.2,.9-.2,1.7,0,1.7,0,3-1.1-.6-.5-1.2-1-1.8-1.4-.1,0-.3,0-.5,0-1.4,.8-2.9,1.5-4.3,2.3,.2,.6,.5,1.3,.7,2.1,.2,.7-.1,1-.8,1-.1,0-.3,0-.4,0-1.7-.3-3.2,.2-4.6,.9-.6,.3-.4,.8-.3,1.2,0,.4,.2,.8,.3,1.2-1.5,.4-2.5,0-3.4-1.2-.4-.5-.9-.9-1.3-1.3h-.3l.7,3.3c-1.2-.7-2.1-1.2-3-1.8-.6-.4-1.1-1-2-.5-.2,.1-.6,0-.8,0-.6,0-1.2,0-2,0,.2,.7,.4,1.3,.6,1.8,0,.1,0,.3,0,.4-.2,0-.4,0-.5-.1-1.2-.6-2.3-1.3-3.5-1.9-.8-.4-1.4,.1-1.9,.6-.5,.5-.9,1-.6,1.7,.8,1.7,1.6,3.3,2.4,5h.2c.2-1,.5-1.9,.4-2.8,0-1,.5-1.4,1.2-1.8,.1,0,.3-.1,.4-.1,2.7,.2,5.6-.2,8,1.7,.8,.6,1.7,1.1,2.7,1.7,0-.6-.2-1-.2-1.4,0-.8,.2-1.2,1-.9,1,.3,1.9,.7,2.8,1,0-.3-.2-.7-.2-1.3-.2-1.2,.4-1.9,1.6-1.9,.3,0,.6,0,.9-.1,1.1-.3,2.3-.4,3.4,0,.9,.4,.9-.2,1-.8,0-.4,0-.7,.1-1.1h.3l.2,1.3c1.3-2.4,3.5-2.3,5.5-1.9,2.6,.5,4.9,.1,7.4-.6,2.7-.8,5.4-.6,7.9,1.1,.6,.5,1.5,.7,2.1,1.2,1.1,.9,2.1,1.9,3.2,2.9,.7,.7,1.3,1.5,2.1,2.2,.7,.7,1.6,1.1,2.7,.8,1.3-.3,2.6,0,3.5,.9,1.2,1.2,2.4,2.4,3.3,3.8,1.8,2.8,3,6,3.5,9.3,.5,2.9,1.5,5.6,2.3,8.5,.3,1,.9,1.9,1.1,3,.2,.9,.3,1.9,.2,2.8-.2,1.2-1.1,1.8-2.4,1.4-.9-.2-1.7-.6-2.5-1-1.7-.8-3.2-1.8-5-2.4-1.3-.4-2.7-.2-4.2-.3,.3,.8,.5,1.4,.7,2.1,.4,1.4,.2,2.8-.5,4.1-.5,1-.5,2-.3,3,0,.4,0,.9-.2,1.2,0,.1-.7,0-1-.1-.7-.3-1.3-.7-2-1-.4-.2-.9,0-1.3,0-.7,0-1.5,0-2.2-.2-.5,0-.9-.3-1.5-.3,.5,.7,1,1.4,1.6,2,.5,.6,1.1,1,1.6,1.5,.1,.1,0,.6,0,.8-.9,1-2.2,1-3.3,.7-1.3-.3-1.8,.1-2.5,1.1-1,1.5-2.3,2.7-4.1,3.3-.2,1.3-.3,1.4-1.6,.7-2.1-1.1-4.3-1.1-6.5-.4-1.4,.4-2.7,1-3.9,1.9-1.3,.9-2.6,.6-4,.1-1.8-.7-3.6-1.4-5.5-2.1-1.1-.4-2.2-.9-3.3-1.4-.7-.3-1.4-.3-2,0-1,.6-2,1.3-3,1.8-.3,.2-.8,0-1.2,0-.3,0-.6-.2-.9-.4-1.4-.8-1.4-.8-1-2.4,.4-1.3,.7-2.7,.9-4,.2-1.3,1-2.1,1.9-2.7,1.6-1,3.2-2,4.8-2.9,1-.5,2.2-.7,3.3-1.1,1-.4,2.1-.8,2.8-1.5,2.6-2.4,5.1-4.9,7.6-7.4,1.3-1.3,2.4-2.9,3.7-4.2,1-1,2.3-1.6,3.8-1.5,.6,0,1.4-.3,2-.7,1.4-.9,2.8-2,4.1-3.1,.4-.3,.6-.8,.8-1.3,.7-1.6,1.3-3.2,2.5-4.5,.2-.2,.2-.5,.3-.7,.3-.4,.6-1.1,1-1.1,.7,0,1.4,.3,1.6,1.1,.1,.3,.2,.7,.4,1,.5,.8,1.4,1,2.2,1.2,.3,0,.7,0,.9,.2,1.3,.7,2.6,.9,4,.3,.2,0,.4,0,.6,0v.3Zm-59.2-15.6c-.2-.6-.3-1.1-.5-1.5-.2-.6,0-.8,.6-.8,.6,0,1.2,0,1.8,0,0-1.4,0-1.5,1.6-1.6,.7,0,1.3,0,2,0,1.4,0,1.4,0,1.3-1.5,0-.4-.2-.9,.5-.9,.8,0,1.6,0,2.4,.1,1.3,.1,2.7,.3,4,.4,.6,0,1.1-.1,1.7-.2l-.4-1.3,3.8,1.4,.3-.4c-.5-.6-.9-1.2-1.3-1.8-.2-.4-.4-.8-.6-1.2,.4-.2,.8-.5,1.3-.6,.2,0,.4,0,.6,0,1.2,.3,2.4,.6,3.6,.8v-.2l-2.8-.8c0-1.4-1.2-1-1.9-1.5-.2,1-.5,1.2-1.4,1-.5-.1-.9-.4-1.4-.6-.5-.3-2.1,0-2.5,.5-.3,.3-.7,.6-1.1,.7-.5,.2-1.1,.1-1.7,.3-.5,.2-1,.5-1.5,0-.1-.2-.5-.1-.7-.2,0,.2-.1,.5-.1,.7,0,.8-.2,1.1-1.1,1.1-.6,0-1.1,0-1.7,0,0,.2,0,.3,0,.4,.1,.5,.2,1-.4,1.3-.6,.3-1,.1-1.4-.4-.3-.4-.7-.7-1.1-1h-.2l.8,3.1c-.8,0-1,.3-.9,1,0,.3-.2,.8-.3,.8-.9,0-1.6,1-2.6,.7-.5-.1-.9,.2-.9,.7,0,1.1,.3,1.5,1.4,1.7,.3,0,.6,0,.9,.2Zm-5.5,13.6c1-.9,1.5-2,1.6-3.3,.1-1.4,0-2.9,.9-4.1,.1-.2,.1-.4,0-.6,0-.8,0-1.4,.9-1.5l-.4-3.7c-.6,.3-1.2,.6-1.9,.8-1.1,.3-1.2,.4-1.1,1.6,.1,1.2,0,2.4,.1,3.6,0,1.2,.1,2.4,.1,3.7,0,.3,0,.7-.2,.8-.8,.9-.9,1.9-.1,2.9Zm61.4,7.8c.2-.8,.9-1.2,.5-2,0,0,0-.3,0-.4,.5-.6,.6-1,.2-1.8-1,.3-3,2.4-3.1,3.4,0,0,0,.2,0,.2,.5,.4,1,.8,1.5,1.2-.1-.6-.2-.8-.1-1.6,0-.2-.1-.3-.1-.5,0-.3-.1-.5-.2-.8h.3l1,2.1Zm-.4-4.5c-.9,.2-1.9,1.3-1.9,2.1l1.9-2.1Z"/>
      <path class="uuid-7c29be62-2eec-4f7a-b76e-702f038de8a8" d="M128.2,62.1c.1,.2,.2,.5,.4,.7,1.7,3,2.6,6.3,3.5,9.7,.6,2.2,.8,4.5,.7,6.8-.1,2.5-1.7,4.1-3.5,5.5-1,.7-2.1,1.4-2.8,2.3-.8,1-1,2.2-.8,3.5,.3,3.1,.2,6.1-.4,9.2-.5,2.3-2,4-3.7,5.5-1.8,1.6-3.7,3.1-6,4-2.5,1-4.9,2.1-7.6,2.5-.8,.1-1.6,.7-2.3,1.3-1.9,1.6-3.9,1.9-6.2,1-2.2-.8-4.3-1.8-6.8-1.5-.2,0-.4,0-.5,0-2.1,1-4.3,.5-6.5,.5-3.3,0-6.1,1-8.5,3.3-1.4,1.4-3.2,1.4-4.9,.8-1.8-.6-3.5-1.5-5.3-2.1-1.4-.5-2.8-.8-4.3-1.2-.8-.2-1.5-.5-2.3-.6-1.5-.2-2.6,.5-3.5,1.6-1.2,1.7-3,2.2-4.9,2-1.9-.3-3.8-.9-5.7-1.5-2.8-.9-5.5-1.6-8.4-1.9-2-.2-3.8-.2-5.6,.7,0,0-.2,0-.3,0,0,0-.2,0-.3,0,1.3-1,2.8-1.3,4.2-1.2,3.2,.1,6.4,.6,9.4,1.6,1.8,.6,3.6,1.3,5.4,1.7,2.2,.4,4.4,.3,5.9-1.8,1.2-1.7,2.9-2,4.8-1.5,1.7,.5,3.5,.8,5.1,1.3,1.6,.5,3.2,1.3,4.8,2,.8,.3,1.6,.5,2.5,.6,1.2,.1,2.2-.3,3.1-1.1,1.5-1.3,3.1-2.5,5-2.8,2.1-.3,4.2-.3,6.3-.4,1,0,2,0,3-.3,1.7-.4,3.5-.5,5.2,0,1.1,.3,2.1,.8,3.2,1.2,.5,.2,1.1,.3,1.7,.4,1.4,.3,2.7-.3,3.7-1.1,1.2-1,2.6-1.6,4.1-1.9,1.5-.3,3-.9,4.5-1.4,2.5-.9,4.8-2.3,6.8-4,2.7-2.3,4.6-5,4.5-8.7,0-2.1,0-4.2,0-6.4,0-1.7,.5-3.2,1.9-4.3,1.4-1,2.6-2.3,3.9-3.5,1.5-1.4,1.6-3.4,1.6-5.3-.1-3.4-1-6.7-2.1-10-.5-1.6-1.4-3.1-2-4.7,0-.2,0-.3-.1-.5h.2Z"/>
      <path class="uuid-7c29be62-2eec-4f7a-b76e-702f038de8a8" d="M32.1,98.6c-.6-.8-1.2-1.6-1.9-2.3-.6-.7-.2-1.3,0-1.8,.1-.4,.7-.8,1.2-1,.6-.3,1.3-.4,2-.5,.4,0,.8-.2,1.2-.1,1.3,.4,2-.4,2.8-1.3,.7-.8,1.5-1.5,2.2-2.2,.2-.3,.3-.7,.3-1.1,0-1.2,0-2.3,0-3.5,0-.7,.4-1.4,.5-2,.2-1.1,.9-1.7,1.8-2.2,.2-.1,.5-.2,.7-.4,1-.6,1.4-.6,2.3,0,.8,.6,1.5,1.3,2.2,1.9-.4,1,0,2.5,.8,3.2,.5-.4,1-.8,1.6-1.1,.2-.1,.7,0,.9,.2,.9,1.1,1.5,2.6,0,3.8-.7,.6-1.4,1.1-2.1,1.8-.3,.4-.5,.9-.7,1.4,0,0,.3,.3,.5,.4,.7,.3,1.4,.6,2.1,.9-.1,.2-.2,.3-.2,.3-.6,.2-2.7-.9-2.9-1.4-.1-.3-.4-.7,.2-1,.1,0,0-.4,.2-.5,.1-.2,.2-.4,.4-.6,.7-.6,1.4-1,2-1.7,1.2-1.2,1-2.1-.4-3.3l-1.3,1.9c-.4-.4-.9-.8-1.2-1.4-.5-.7-.8-1.6-1.1-2.4,0-.2,0-.4,0-.6h.3c-.5-.6-1-1.1-1.6-1.5-.5-.3-1.2-.5-1.7,.1-.1,.1-.3,.2-.5,.2-1.3,.5-1.6,1.8-1.9,3-.5,1.5-.6,3.1-.2,4.7,0,.2,0,.6-.2,.8-1.1,1.2-2.2,2.4-3.4,3.6-.7,.8-1.7,.9-2.8,1l.3-.5h-.1c-.2,0-.4,.4-.7,.4-.6,.1-1.2,.1-1.7,.2-1,.1-1.6,1.3-1,2.1,.6,.8,1.5,1.4,2.2,2,.2,.1,.3,.3,.5,.4,0,.1,0,.2,0,.2-1.1,.3-2,.8-2.8,1.6-.1,.1-.3,.2-.5,.2-1.2-.2-1.4,.7-1.6,1.5-.3,1-.5,1.9-.9,2.9-.1,.3-.6,.6-.9,.7-1.2,.1-2.3,.6-3.1,1.5-.5,.5-.8,1.3-1.2,2-.2,.3-.3,.7-.5,.8-.8,.4-.5,.9-.2,1.5,.6-.7,1.3-.9,2-.3,0,0,.3,.1,.4,0,.8-.5,1.5-.2,2.3,0,.8,.2,1.5-.4,2.2-1,.7-.6,1.5-1.2,2.3-1.7,.3-.2,.8,0,1.2,0,.7-.4,.8-.4,1.1,.4,.2,.6,.7,1.2,1.1,1.6,.1,.1,.7,0,1.1-.2,.3-.2,.5-.6,.9-.8,1.7-.9,3.5-1.5,5.3-1.9,.2,0,.4,0,.6,.2,.9,.4,1.7,.9,2.6,1.3,.6,.3,1.2,.3,1.8,0,1-.6,2-.9,3.3-.6,1.4,.3,2.3-.2,2.8-1.2,.3-.6,0-.7-.5-.9-1-.3-2.1-.5-3-.9-.6-.3-1-1-1.5-1.5l-.6,.4c-.5-1.3-1.1-2.4-1.5-3.6-.3-.9,0-1.7,.8-2.4,.4-.4,.7-1,.7-1.6,0-2.1,1.7-3.6,4.1-3.1-.5,.2-.8,.3-1.1,.4-1.6,.3-2.6,1-2.4,2.9,0,.5-.3,1.2-.7,1.7-1.1,1.4-1.2,2.6-.2,4.1,.1,.2,.3,.4,.4,.7,1.3-1.1,1.2,1.1,2.2,1h-.7s0,.1,0,.1c1.1,.7,2.3,1.3,3.6,1.4,1,0,1.2,.3,.9,1.3-.4,1.6-1.7,2-3.3,1.8-1.2-.1-2.2,0-3.3,.7-.5,.3-1.3,.2-1.9,0-.5,0-1.1-.3-1.6-.7-1.2-1-2.6-.6-3.8-.2-1.1,.3-2,.9-3,1.3-.1,0-.2,.2-.3,.3-1,1.1-2.2,1-3-.3-.9-1.5-2-1.6-3.3-.4-.6,.5-1.1,1.1-1.8,1.5-.7,.4-1.5,.6-2.4,0-.1,0-.4,0-.5,0-.8,.5-1.5,.3-2.1-.2,0,0-.2,.1-.2,.1-.4,.2-.6,1.1-1.2,.5-.6-.5-.5-1.7-.1-2.3,.4-.6,.8-1.2,1.1-1.9,.7-1.2,1.7-2,2.9-2.4,1.2-.3,2-.6,2.2-2,.1-.8,.6-1.6,.8-2.4,.2-.7,.6-.9,1.2-.9,.7,0,1.1-.3,1.5-.7,.5-.4,.9-.7,1.4-1.1l-.2,.3Z"/>
      <path class="uuid-7c29be62-2eec-4f7a-b76e-702f038de8a8" d="M26.7,75.7l-.3,1.7-1.8-1.1c-.7,1.2,0,2.1,.8,3,.3,.4,.5,1.3,0,1.5-1.2,.6-1.5,1.6-1.8,2.8,0,.3-.1,.6-.2,.8-2,.5-2.3,.4-2.3-.7-.7-.2-1.5-.4-1.2-1.4,0-.1-.2-.3-.3-.5,0-.3-.3-.6-.2-.8,.3-.8,.2-1.6,0-2.5,0-.2,.4-.6,.6-1h.3l-1.4-3.5,.7-.5c-.2-.2-.3-.4-.5-.6-.8-.9-.8-1,.6-1.2-.5-.7-.9-1.4-1.4-2.1-.4-.5-.5-1,0-1.4,.8-.6,.7-1.3,.3-2.1-.4-.7-.5-1.3,.3-2,.3-.2,.3-.9,.3-1.4,0-.7,0-1.3,1-1.4,.4,0,.7-.5,1.1-.7,.2-.1,.7-.4,.8-.3,.7,.7,1.6,.4,2.4,.6,.5,0,1,.4,1.5,.5,.4,.2,.9,.4,1.3,.4,.5,0,.6,.1,.4,.6-.4,1-.7,2-1,3.1l1.2,.3c.3-.8,.5-1.7,.8-2.5,0-.1,.1-.3,.2-.3,.9-.3,1.9-.6,2.9-.9,0,.3,0,.5,0,.7-.4,1.3-.8,2.6-1.4,3.9-.3,.5-1,.9-1.4,1.3,.4,.4,1,.9,1.5,1.5,.3,.3,.5,.8,.4,1.2,0,1.3-.4,1.5-1.7,1.4-.6,0-1.3,0-2,.3,.2,0,.5,0,.7,0,1.1-.3,1.2-.3,1.4,.8,.2,.8,.2,1.5,.4,2.3,.1,.5-.1,.7-.5,.8-.8,.2-1.5,.4-2.2-.5Zm-5.1-14.4c-.4,.2-1,.4-1.5,.7-.2,.1-.5,.4-.5,.6,.2,1.1-.3,1.9-1.1,2.6,.8,1.4,1.2,2.7-.2,3.7,.5,.8,.9,1.5,1.3,2.2,.4,.6,.5,1.2-.4,1.4,.3,.4,.5,.7,.8,1,.5,.7,.5,.8-.5,1,.4,.9,.8,1.8,1.1,2.7,0,.3,0,.8-.2,.9-.8,.3-.5,.7-.3,1.2,.1,.3,.2,.9,0,1.1-.5,.5-.2,.8,0,1.2,.2,.4,.3,.9,.4,1.3,0,0,.1,0,.1,0,1-.4,1,.5,1.1,1.1,.9,0,1.3-.4,1.4-1.2,0-.6,.4-1.2,.8-1.7,.3-.4,.8-.7,1.1-1-1.7-1.9-2-3.2-1.2-4.7l1.8,.5c0,0,.1-.1,.2-.2,.7-1.1,.7-1,1.7-.3,.2,.1,.6,.2,.8,0,.2,0,.4-.4,.3-.7,0-.7-.2-1.4-.3-2.1-2.2,0-2.3,0-2.2-1.2,1,0,2.1,0,3.1-.2,.3,0,.7-.3,.7-.5,0-.3,0-.7-.3-1-.5-.7-1.2-1.3-1.8-2h-1.3v-.4c.5,0,1-.2,1.5-.3,.7-.1,1.3-.4,1.5-1.1,.3-.9,.6-1.9,.9-2.8,0,0,0-.2,0-.4-.8,.3-1.8,.1-1.8,1.4,0,.5-.4,1-.6,1.5-.1,.2-.3,.5-.5,.5-.7,0-1.4,0-2.1,0,.3-1,.6-2,.9-3.1,0-.3,0-.8-.2-.9-.5-.4-1.1-.7-1.7-.9-.9-.2-1.9-.2-3-.3Z"/>
      <path class="uuid-7c29be62-2eec-4f7a-b76e-702f038de8a8" d="M48.7,39.1l-1.6-.2v.2c.6,.5,1.3,1.1,2.1,1.5,.4,.2,.6,0,.5-.5,0-.3-.2-.6-.2-1,.3,.5,.6,.9,.8,1.4,0,.1,0,.5-.2,.5-.3,0-.7,.2-.9,0-.7-.5-1.5-1-2.1-1.6-.4-.4-.7-.6-1.2,0-.5,.5-1.4,.7-1.5,1.7,0,.1-.3,.2-.4,.3-.4,0-.8,.2-1.3,.2-.7,0-1.5-.3-1.8,.7-.2,.7-.8,1.2-.4,2,.3,.8,0,1.4-.9,1.6-.8,.2-1.6,.4-2.4,.5l.4,1.3c-.5,0-1,0-1.5,0-.2,0-.3,0-.5,.1,0,1.2,0,1.3-1.3,1.8l.8,2.3-1.9-.7c0,.2,0,.4,0,.5,.1,.7,0,1.2-.4,1.9-.4,.6-.2,1.5-.3,2.3,0,.2,0,.3,0,.5,0,.6-.2,1.2-.8,1.2-.4,0-.9-.5-1-.9-.2-.8-.2-1.6-.2-2.4,0-1-.1-2.1-.1-3.1,0-.3,.2-.5,.4-.8,.3-.8,.7-1.5,1-2.3,.2-.4,.2-.8,.4-1.2,.4-.7,.8-1.3,1.3-1.9,.1-.2,.3-.4,.5-.4,1,0,1.2-.7,1.2-1.5,0-.5,.2-.6,.7-.7,.9-.3,2-.5,2.3-1.8,0-.3,.4-.5,.7-.7,.5-.3,1.1-.4,1.6-.6,.2-.1,.5-.3,.5-.5,0-.9,.8-.9,1.4-1,.6-.1,1.2-.3,1.8-.3,.7,0,1.5,0,1.9,.3,.8,.6,1.7,.5,2.5,.9,.1,0,.3,.1,.4,.2l-.2,.3Zm-7.1-.5c.2,.9-.3,1.1-1,1.3-.2,0-.5,0-.7,.2-.5,.3-1.3,.6-1.4,1-.4,1.2-.3,1.3-1.4,1.5,0,0-.2,0-.2,.1-.3,.1-.6,.3-1.1,.5-.2,.7-.2,1.8-1.5,1.9-.1,0-.2,.2-.3,.3-.3,.4-.7,.9-1,1.3-.3,.5-1.2,.8-.4,1.5-.3,.7-.5,1.3-.8,1.9-.3,.8-.7,1.5-.6,2.4,.1,.8,0,1.6-.1,2.4,0,.8,.1,1.6,.8,2.4,0-.6,0-.9,.1-1.3,.1-.9,0-2,.4-2.8,.3-.6,.3-1,.2-1.5-.2-.9,0-1.2,1-.8,.1,0,.2,0,.4,.1,0-.1,0-.2,0-.3-.5-1.2-.5-1.2,.6-1.9,.1,0,.2-.3,.3-.5,0-.8,.3-1.1,1.1-1.1,.3,0,.5,0,1,0l-1.5-2,.2-.2c.2,0,.5,0,.7,.2,.8,.7,1.7,.5,2.5,.3,1-.3,1.2-.6,1-1.6,0-.3-.2-.7,0-1,.6-1.1,1.2-2.2,2.7-1.8,.3,0,.7,0,1-.2,.1,0,.2-.2,.3-.3,.2-.3,.3-.6,.6-.9,.3-.3,.7-.6,1.1-1-1.1-.7-1.5-.8-4.1-.2Z"/>
      <path class="uuid-7c29be62-2eec-4f7a-b76e-702f038de8a8" d="M10.8,9.8l-1-.4c-.2,1.1,.4,2.5-.9,3.3,0-.2,.2-.3,.2-.5,0-.3,.1-.8,0-1-.2-.2-.8-.3-1-.2-.3,.2-.4,.7-.5,1,0,.3,0,.6,0,.9h-.4c-.2-1.2-.4-2.5-.4-3.7,0-1.1-.6-1.9-1.2-2.8-.9-1.5-2.2-2.6-2.5-4.4-.1-.7-.2-1.3-.3-2h.3c0,.4,.1,.9,.3,1.4,.3,1.3,.7,2.6,1.9,3.6,.7,.5,1,1.5,1.5,2.2,.1,.2,.2,.3,.3,.5,.9-1.1,.9-1.7,0-2.6-1.4-1.4-1.4-1.8-.7-3.6,.2-.4,.3-.9,.4-1.3h.2c0,.3,.1,.7,0,1-.8,1.5-.6,2.7,.7,3.7,.1,0,.2,.2,.2,.4,.7-1,1-2,.2-3.1,.1,.1,.3,.2,.4,.3,.1,.1,.2,.3,.3,.4l.6-.6h.2v1l1.5-1.2-.8-.6c.8,0,1.5,.2,1.6,1.4l1.1-1.7c.5,.8,1.1,1.6,1.5,2.4,.6,1.3,.1,2.1-1.3,2.3-.5,0-.9,.2-1.4,.2-.8,0-1.2,.5-1.3,1.2-.2,.8-.2,1.5,.6,2,0,0,0,0,0,.2v.2Zm.5-4.1c.6-.1,1.2-.2,1.8-.4,.6-.2,1-.6,.6-1.3-.3-.5-.5-1.1-.8-1.7-.4,.5-.7,.9-.9,1.3-.3,.6-.5,1.3-.7,2.1Zm-2.6,.5c1.1-.3,1.7-1.3,1.5-2.2,0-.2-.2-.4-.4-.4-.1,0-.3,0-.5,.2-.7,.6-.8,1.5-.6,2.4Zm-.7,4.3c.8-.3,.9-1.2,.4-2.4q-.8,.6-.4,2.4Z"/>
      <path class="uuid-7c29be62-2eec-4f7a-b76e-702f038de8a8" d="M128.9,46.8c-1.5-.6-3-1.2-4.4-2-2.1-1.2-4.3-1.3-6.6-.9-.2,0-.3,.4-.5,.6-.2-.2-.3-.2-.4-.4,0,0,0-.2-.1-.3-.6,.2-1.2,.4-1.8,.4-.5,0-1.2,.3-1.3-.8-.7,.4-1.4,.7-2,1.1-.4,.3-.7,.7-.8,1.1-.3,1.2-.5,2.4-.6,3.6,0,2.1,.4,4.1,1.2,6,.8,2,1.4,4.2,2.1,6.2,.6,1.7,.5,3.5,1.8,4.9,.9,1,1.7,2.3,3.1,2.7,.3,.1,.7,0,1.1-.1,.3-.1,.5-.4,.8-.6,1-.6,1.5-1.5,1.4-2.7-.3-1.9-.5-3.9-.8-5.8-.2-.8-.7-1.6-.9-2.5-.2-.6-.2-1.3-.2-2h.2c.2,.7,.2,1.5,.5,2.2,.9,2,1.4,4.1,1.6,6.2,.1,1.1,0,2.2,0,3.3,0,.2-.2,.4-.3,.5-.5,.5-1.1,1-1.6,1.4-1.2,.9-1.6,1-2.7,0-1.2-1.2-2.4-2.4-3.2-3.8-.7-1.2-.8-2.7-1.2-4-.5-1.5-1-2.9-1.5-4.4-.8-2.4-1.9-4.6-1.7-7.2,.1-1.5,.3-3.1,.6-4.6,.1-.5,.8-1.1,1.4-1.3,.7-.3,1.5-.4,2.3-.5,2,0,4.1-.1,6.1,0,.9,0,1.9,.3,2.7,.6,1.8,.7,3.6,1.5,5.4,2.3,.2,0,.3,.2,.4,.3v.3Z"/>
      <path class="uuid-7c29be62-2eec-4f7a-b76e-702f038de8a8" d="M61.3,78c0-.7,.2-1.2,.8-1.4,.6-.2,.8-.5,.8-1.2,.2-2.2-.6-4.2-1.4-6.1-.3-.8-.9-.9-1.5-.9-.6,0-1.2,.2-1.8,.5-1,.5-2.1,.9-3,1.6-.4,.3-.8,1-.8,1.6,0,2.4-.1,4.9,0,7.3,0,1.3,.5,2.6,.8,3.9,0,.3,.3,.5,.4,.5l2.9-.7c0,.2,0,.4,0,.4-.9,.3-1.9,.7-2.8,.9-.3,0-.9-.5-1.1-1-.8-1.8-.8-3.7-.8-5.7,0-1.9,0-3.7,0-5.6,0-1.2,.3-1.9,1.3-2.4,.9-.4,1.7-.9,2.6-1.4,1-.6,2.1-.6,3.2-.5,.3,0,.6,.3,.7,.5,1,2.1,1.9,4.3,1.9,6.7,0,1.3-.3,1.7-1.5,2.2-.3,.1-.5,.4-.9,.8Z"/>
      <path class="uuid-7c29be62-2eec-4f7a-b76e-702f038de8a8" d="M101.6,80l.5,1.3h.2l-.4,.6-1.9,.2v-.3h1.1l-2.3-1.6c0,.4-.3,.8-.2,1.1,.3,.6,.6,1.4,1.5,1.3,.4,0,.8,.1,1.4,.2-1,.6-2.5,.2-3-.6-.2-.4-.4-.8-.5-1.2-.2-.6,.3-1.4,.8-1.7,.5-.2,.9-.5,1.4-.6,.4,0,1.1-.2,1.3,0,1,.8,2.1,1.5,2.6,2.9,.5,1.7,1.8,2.5,3.6,2.4,.3,0,.6,.1,1.2,.3-.4-.9-.8-1.6-1.2-2.3-.5-.8-.6-1.6-.5-2.5,0-.6-.4-1.3-.8-1.8-.8-1-1.2-2.2-1.4-3.5,0-.4-.3-.7-.4-1.2,.8,0,1,.6,.9,1.1-.1,1.5,.8,2.5,1.5,3.5,.5,.8,.8,1.5,.8,2.5,0,.6,.3,1.1,.5,1.7,.4,1,.9,1.9,1.3,2.9h-.2c0,.1,0,.2,0,.2-1.4-.4-3,0-4.4-1.1-.4-.4-1.3-.6-1.2-1.1,.2-.8-.3-1.1-.4-1.6,0-.1-.1-.2-.2-.3-.5-.5-1.3-.7-1.7-1.4-.1-.2-.9,0-1.3,.1v.4h1.5Z"/>
      <path class="uuid-7c29be62-2eec-4f7a-b76e-702f038de8a8" d="M94.9,147l-.9-1.7c0,0,.2,0,.2,0,.8,1,.8,.9,2,.2,2-1.2,3-3,3.6-5.3-1.3,0-2.2,.9-3.2,1.4-1.3,.6-1.4,1.7-1.5,2.9l-.2,.2-1-.9h.3c.2-.7,.5-1.3,.6-1.9,.1-.7,.1-1.4,.2-2,0-.2,.2-.3,.3-.5,.1,.2,.3,.4,.3,.5,0,.5-.1,1.1-.2,1.8,.8-.5,1.6-1,2.3-1.4,.7-.3,1.4-.5,2.1-.6,.4,0,.6,.2,.4,.7-.7,1.3-1.1,2.8-2,3.9-.9,1.1-2.2,1.8-3.3,2.7Z"/>
      <path class="uuid-7c29be62-2eec-4f7a-b76e-702f038de8a8" d="M60.3,75.8l-2.5-.7c0,.7-.4,1.4,.2,2,0,0,0,.5-.1,.6-.5,.2-1,.4-1.7,.5,1.5-1.1,.5-2.8,1-4,.9,.3,1.7,.5,2.5,.7,1.5,.4,1.6,1.1,.6,2.2-1,1.2-2.1,2.3-2.3,3.9,0,.5,0,1.1,.1,1.8h-.6c-.4-.8-.6-1.6,0-2.4,.9-1.5,1.8-3,2.8-4.6Z"/>
      <path class="uuid-7c29be62-2eec-4f7a-b76e-702f038de8a8" d="M76,66.6c0-.2-.2-.5-.1-.6,.7-1.8,1.2-3.7,2.8-5,.9-.7,1.8-1.4,2.7-2.2,.6-.6,1-1.3,1.6-1.9,.2-.2,.4-.4,.6-.4,.8-.1,1.6-.2,2.4-.3v.3c-.2,.1-.6,.4-.9,.4-1-.1-1.5,.3-2.2,1.1-.7,1-1.8,1.7-2.8,2.4-1.4,1.2-2.7,2.4-3.3,4.3-.2,.7-.6,1.3-.9,2h0Z"/>
      <path class="uuid-7c29be62-2eec-4f7a-b76e-702f038de8a8" d="M85.3,61.4c.4,.9-.2,1.6-.7,2.2-.6,.7-1.4,1.3-2.1,1.9-.2,.2-.4,.4-.7,.5-.4,.2-.8,.6-1.2,.6-1.3,.2-1.6,.8-1.6,1.8,0,.1,0,.3,0,.4,0,1.4-.6,1.9-2.1,1.8l1.8-.9c0-.5,0-1.1,0-1.6,0-1,.5-1.8,1.5-1.9,1.4-.1,2.1-1.1,3-1.7,1-.7,1.8-1.7,2-3,0,0,.1,0,.2-.1h0Z"/>
      <path class="uuid-7c29be62-2eec-4f7a-b76e-702f038de8a8" d="M120.3,62.5l.7,.9c-.3,.2-.7,.5-1,.6-.6,.2-1.3,.2-2,.3-.3,.7,.1,2.7,.8,3.1,.3,.2,.8,.1,1.4,.2,0,.1-.2,.4-.3,.4-.6,.1-1.3,.2-1.6-.5-.4-.9-.8-1.9-.9-2.8-.1-.9,.5-1.3,1.5-1.4,.5,0,.9-.3,1.4-.5v-.3Z"/>
      <path class="uuid-7c29be62-2eec-4f7a-b76e-702f038de8a8" d="M78.3,54.5c-.7,.5-1.5,1.1-2.2,1.6-.4,.3-.8,.5-1.1,.8-.3,.4-.6,1-.7,1.5-.2,.5-.2,1.1-.3,1.6-.3,1.2-1.5,1.5-2.3,2.3l-.2-.2c.2-.3,.4-.7,.8-.9,1.3-.6,1.5-1.8,1.7-3.1,0-.6,.3-1.2,.7-1.6,.7-.7,1.5-1.3,2.4-1.8,.4-.2,.9-.3,1.3-.4v.2Z"/>
      <path class="uuid-7c29be62-2eec-4f7a-b76e-702f038de8a8" d="M85.3,61.5c0-.4,0-1,0-1,.6-.2,1.2-.3,1.8-.3,.4,0,.8,.4,1.2,.4,.6,0,1.2-.2,2-.3,0,.2,.3,.6,.6,.9,.5,.6,.9,1.3,1.9,1.1,.2,0,.5,.3,.9,.5-2.1,.4-2.9-.9-3.7-2.3-.8,.9-1.8,.4-2.5,.1-1.5-.5-1.7-.6-2.3,.7h0Z"/>
      <path class="uuid-7c29be62-2eec-4f7a-b76e-702f038de8a8" d="M121.9,53c-.7-.3-1.3-.7-1.9-.7-1-.1-.5,1-1,1.7,0-.9-.5-1.6,.4-2,.8-.4,1.8,0,2.5,1.1Z"/>
      <path class="uuid-7c29be62-2eec-4f7a-b76e-702f038de8a8" d="M119.9,67.3c1.1-1,.4-2.1,.3-3.1,.7,.4,.8,1.2,.9,1.8,0,.6-.4,1.1-1.2,1.3Z"/>
      <path class="uuid-7c29be62-2eec-4f7a-b76e-702f038de8a8" d="M76,66.6c-.3,.9-.3,2.1-1.7,2.6,.1-.3,.2-.4,.3-.5,.3-.5,.5-1,.9-1.5,.1-.2,.4-.4,.6-.5h0Z"/>
      <path class="uuid-7c29be62-2eec-4f7a-b76e-702f038de8a8" d="M95.8,89.6c.1-.6,.2-1,.4-1.4,0-.1,.1-.2,.2-.3,0,0,.3,0,.3,.1,0,.4,0,.9-.1,1.3,0,.2-.5,.2-.8,.3Z"/>
      <path class="uuid-7c29be62-2eec-4f7a-b76e-702f038de8a8" d="M94.9,89v-1.4c.1,.2,.5,.4,.5,.6,0,.4-.3,.8-.4,1.2l-.9-.4v-.3l.8,.2Z"/>
      <path class="uuid-7c29be62-2eec-4f7a-b76e-702f038de8a8" d="M91.8,89.1l.3-1.5c.2,.3,.3,.6,.4,.8,.1,.6-.2,.8-.7,.7Z"/>
      <path class="uuid-7c29be62-2eec-4f7a-b76e-702f038de8a8" d="M126.1,58.9l-1.3-1.7,.2-.2c.2,.3,.5,.5,.7,.8,.2,.3,.4,.6,.6,.9l-.2,.2Z"/>
      <path class="uuid-7c29be62-2eec-4f7a-b76e-702f038de8a8" d="M27.3,31.1c.1,.3,.2,.4,.2,.5-.1,.8-.2,1.6-.4,2.4,0,.1-.1,.3-.2,.3-1.2,.2-1.2,1.4-2.1,2.1l-.9-1.1c-.3,.3-.5,.7-.9,.9-.4,.2-.9,.4-1.4,.3-.4,0-.9-.3-.9-1,.2,0,.4,.1,.5,.2,.4,.4,1,.3,1.3,0,.4-.3,.6-.8,.8-1.2,0-.2,.1-.4,.2-.5,.2,0,.5,.1,.5,.3,.2,.4,.4,.8,.7,1.5,.4-.8,.6-1.4,.9-2,.2-.6,.3-1.2,.6-1.8,.2-.3,.5-.5,.9-.8Z"/>
    </g>
  </g>
</svg>