<?xml version="1.0" encoding="UTF-8"?>
<svg id="uuid-893a26b7-c3ee-425d-88f7-172e8dfd45f7" data-name="Layer 2" xmlns="http://www.w3.org/2000/svg" width="73.7mm" height="24.4mm" viewBox="0 0 209 69">
  <defs>
    <style>
      .uuid-d670589c-3505-482e-8c69-1875abd5a9dc {
        fill: #792477;
      }

      .uuid-07708824-7a2b-4768-9cdf-6d2df7fcf082 {
        fill: #29235c;
      }
    </style>
  </defs>
  <g id="uuid-bd20e46f-7dcf-4b03-ae0c-15b0aba9e6e0" data-name="Layer 1">
    <g>
      <g>
        <path class="uuid-d670589c-3505-482e-8c69-1875abd5a9dc" d="M106.5,19.9c.8,.7,1.2,1.6,1.2,2.7s-.2,1.6-.7,2.2c-.5,.7-1.1,1.2-2,1.6s-1.8,.6-2.8,.6-1,0-1.5,0c-.2,0-.5,0-.8,0-.3,0-.7,0-1.1,0h-1.7c-.3,0-.7,0-1.3,0s0,0,0-.1,0-.1,0-.1c.5,0,.8,0,1-.1,.2,0,.4-.2,.5-.5,.1-.2,.2-.6,.2-1V14c0-.7-.1-1.1-.3-1.3-.2-.2-.7-.3-1.4-.3s0,0,0-.1,0-.1,0-.1h1.3c.7,0,1.3,0,1.7,0s.9,0,1.4,0c.2,0,.4,0,.7,0,.3,0,.6,0,.8,0,1.4,0,2.6,.3,3.3,.8,.8,.5,1.2,1.3,1.2,2.3s-.2,1.4-.7,2.1c-.5,.6-1.2,1.1-2.1,1.4,1.3,.2,2.4,.6,3.2,1.3Zm-6.1-7.1c-.2,.2-.3,.6-.3,1.2v4.5h1c.8,0,1.5-.3,1.9-.9,.4-.6,.7-1.4,.7-2.4s-.2-1.6-.6-2.1c-.4-.5-1-.7-1.7-.7s-.8,.1-1,.3Zm4.5,10.3c0-1.2-.3-2.2-.9-2.9s-1.5-1.1-2.7-1.1-.9,0-1.2,0v5.7c0,.5,.1,.9,.3,1.1,.2,.2,.7,.3,1.4,.3,2.1,0,3.1-1.1,3.1-3.2Z"/>
        <path class="uuid-d670589c-3505-482e-8c69-1875abd5a9dc" d="M109.8,26.8c0,0,0-.1,0-.1,.5,0,.8-.1,1-.3,.2-.2,.3-.7,.3-1.3v-4.3c0-.5,0-.9-.2-1.2-.1-.2-.3-.4-.5-.4s-.5,0-.9,.3h0c0,0-.1,0-.1-.1,0,0,0-.1,0-.2l3.6-1.7h0c0,0,.2,0,.2,0,0,0,.1,.2,.1,.2v.5c0,.6,0,1.4,0,2.3v4.3c0,.6,0,1.1,.3,1.3,.2,.2,.5,.3,1,.3s0,0,0,.1,0,.1,0,.1c-.4,0-.7,0-1,0h-2.8c-.2,0-.6,0-1,0s0,0,0-.1Zm1.3-12c-.3-.3-.4-.6-.4-1.1s.1-.7,.4-1c.3-.2,.6-.4,1.1-.4s.8,.1,1,.4c.2,.2,.4,.6,.4,1s-.1,.8-.4,1.1c-.2,.3-.6,.4-1,.4s-.8-.1-1.1-.4Z"/>
        <path class="uuid-d670589c-3505-482e-8c69-1875abd5a9dc" d="M124.7,18c.6,.3,1.1,.8,1.4,1.5,.4,.7,.5,1.5,.5,2.4s-.2,2.1-.7,2.9-1.1,1.4-1.9,1.8c-.8,.4-1.6,.6-2.5,.6s-1.2,0-1.8-.3c-.6-.2-1.1-.5-1.6-.8l-2.2,1h0c0,0-.1,0-.1,0,0,0,0-.1,0-.1,.4-.2,.7-.5,.9-.9,.2-.4,.3-.9,.3-1.5V12.9c0-.6,0-1-.2-1.2-.1-.2-.3-.4-.6-.4s-.5,0-.9,.3h0c0,0-.1,0-.1-.1,0,0,0-.1,0-.2l3.5-1.6h.1c0,0,.2,0,.2,0s.1,.1,.1,.2v9c.5-.5,1.1-.9,1.6-1.2,.5-.3,1.1-.4,1.8-.4s1.4,.2,2,.5Zm-1,7.8c.4-.7,.5-1.7,.5-2.9s-.2-2.4-.7-3.1c-.5-.7-1.1-1-1.9-1s-1.5,.3-2.3,.8v3.5c0,.9,.1,1.6,.5,2.1,.3,.6,.7,1,1.1,1.2,.4,.3,.8,.4,1.3,.4,.7,0,1.2-.3,1.6-1Z"/>
        <path class="uuid-d670589c-3505-482e-8c69-1875abd5a9dc" d="M128.2,26.8c0,0,0-.1,0-.1,.5,0,.8-.1,1-.3,.2-.2,.3-.7,.3-1.3V12.9c0-.6,0-1-.1-1.2-.1-.2-.3-.4-.5-.4s-.5,0-.9,.3h0s0,0-.1-.1c0,0,0-.1,0-.2l3.5-1.6h0c0,0,.2,0,.3,0,0,0,.1,.1,.1,.2v15c0,.6,0,1.1,.3,1.3,.2,.2,.5,.3,1,.3s0,0,0,.1,0,.1,0,.1c-.4,0-.7,0-1,0h-2.9c-.2,0-.6,0-1,0s0,0,0-.1Z"/>
        <path class="uuid-d670589c-3505-482e-8c69-1875abd5a9dc" d="M134.7,26.8c0,0,0-.1,0-.1,.5,0,.8-.1,1-.3,.2-.2,.3-.7,.3-1.3v-4.3c0-.5,0-.9-.2-1.2-.1-.2-.3-.4-.5-.4s-.5,0-.9,.3h0c0,0-.1,0-.1-.1,0,0,0-.1,0-.2l3.6-1.7h0c0,0,.2,0,.2,0,0,0,.1,.2,.1,.2v.5c0,.6,0,1.4,0,2.3v4.3c0,.6,0,1.1,.3,1.3,.2,.2,.5,.3,1,.3s0,0,0,.1,0,.1,0,.1c-.4,0-.7,0-1,0h-2.8c-.2,0-.6,0-1,0s0,0,0-.1Zm1.3-12c-.3-.3-.4-.6-.4-1.1s.1-.7,.4-1c.3-.2,.6-.4,1.1-.4s.8,.1,1,.4c.2,.2,.4,.6,.4,1s-.1,.8-.4,1.1c-.2,.3-.6,.4-1,.4s-.8-.1-1.1-.4Z"/>
        <path class="uuid-d670589c-3505-482e-8c69-1875abd5a9dc" d="M143.1,26.6c-.7-.5-1.3-1.1-1.7-1.8-.4-.8-.6-1.6-.6-2.5s.3-1.9,.8-2.6c.5-.7,1.2-1.3,2-1.6,.8-.4,1.6-.5,2.5-.5s1.8,.2,2.6,.7c.7,.5,1.3,1.1,1.7,1.8s.6,1.6,.6,2.4-.2,1.8-.7,2.5-1.1,1.3-1.9,1.7c-.8,.4-1.7,.6-2.6,.6s-1.8-.2-2.6-.7Zm4.7-.7c.3-.6,.5-1.5,.5-2.6s-.1-2.1-.4-2.8c-.3-.8-.7-1.4-1.1-1.8-.5-.4-.9-.6-1.5-.6-1.3,0-1.9,1.1-1.9,3.4s.1,2,.4,2.8,.6,1.4,1.1,1.9c.5,.5,1,.7,1.5,.7s1.1-.3,1.4-.9Z"/>
        <path class="uuid-d670589c-3505-482e-8c69-1875abd5a9dc" d="M159.4,25.3c0,0,.1,0,.2,0,0,0,0,.1,0,.1-.6,.6-1.2,1-1.7,1.3-.6,.3-1.1,.4-1.8,.4s-1.3-.2-1.8-.5-.7-.9-.7-1.7v-5.3c0-.5,0-.8-.3-1-.2-.2-.5-.3-1-.3s0,0,0,0c0,0,0,0,0-.1s0-.1,0-.2c0,0,0,0,0,0,.8,0,1.5-.2,2-.5,.5-.3,.9-.8,1.2-1.4,0,0,0,0,.2,0s.2,0,.2,0v1.9c.9,0,1.9,0,3.1-.2,0,0,0,0,.1,.2,0,.1,0,.2,0,.4s0,.3,0,.5c0,.2-.1,.2-.2,.2-1-.2-2-.3-3-.4v5.6c0,.6,.2,1,.5,1.3,.3,.3,.7,.4,1.2,.4s1.3-.2,1.9-.7h0Z"/>
        <path class="uuid-d670589c-3505-482e-8c69-1875abd5a9dc" d="M168.9,25.4s0,0,.1,0c0,0,0,.1,0,.1-.6,.6-1.2,1-1.8,1.2-.6,.3-1.3,.4-2,.4s-1.9-.2-2.6-.6c-.7-.4-1.3-1-1.7-1.7-.4-.7-.6-1.5-.6-2.3s.2-1.8,.7-2.5c.5-.8,1.1-1.4,1.9-1.8,.8-.5,1.7-.7,2.8-.7s1.7,.2,2.3,.7,.8,1.1,.8,2.1,0,.7-.3,.7h-5.8c0,.1,0,.3,0,.6,0,1.4,.3,2.5,1,3.3,.6,.8,1.6,1.2,2.8,1.2s.8,0,1.1-.1c.3,0,.7-.3,1.2-.5h0Zm-5.3-6.7c-.3,.5-.6,1.1-.7,1.9h3.4c0-.9-.1-1.5-.4-1.9-.2-.4-.6-.6-1.1-.6s-1,.2-1.3,.7Z"/>
        <path class="uuid-d670589c-3505-482e-8c69-1875abd5a9dc" d="M172.3,26.5c-.7-.5-1.3-1-1.6-1.8-.4-.7-.5-1.5-.5-2.3s.3-1.9,.8-2.6,1.3-1.3,2.1-1.7c.9-.4,1.7-.6,2.6-.6s1.4,.2,2.1,.5c.6,.3,.9,.8,.9,1.3s-.1,.6-.3,.8c-.2,.2-.5,.3-1,.3s-.7,0-.9-.3-.4-.5-.5-.9c-.1-.4-.3-.7-.4-.9-.1-.2-.4-.2-.7-.2-.7,0-1.2,.3-1.6,1-.4,.7-.6,1.6-.6,2.7s.3,2.4,.9,3.1c.6,.8,1.5,1.2,2.8,1.2s.8,0,1.1-.1c.3,0,.7-.3,1.2-.5h0s0,0,.1,0c0,0,0,0,0,.1-.6,.5-1.2,.9-1.8,1.2-.6,.3-1.3,.4-2,.4s-1.9-.2-2.6-.7Z"/>
        <path class="uuid-d670589c-3505-482e-8c69-1875abd5a9dc" d="M189.4,25.7c0,0,.1,0,.1,.1,0,0,0,.1,0,.2l-2.4,1.2c0,0-.1,0-.2,0-.3,0-.5-.1-.7-.4-.2-.3-.4-.6-.5-1.1l-1,.7c-.4,.3-.7,.5-1,.6-.3,.1-.7,.2-1.1,.2-.7,0-1.2-.2-1.5-.5-.3-.3-.5-.7-.5-1.3s.1-.8,.3-1c.2-.3,.5-.5,.8-.6,.3-.2,.7-.3,1.3-.5l.6-.2,2.1-.8v-1.4c0-1,0-1.7-.3-2.2s-.4-.7-.8-.7c-.8,0-1.3,.6-1.4,1.9,0,.5-.2,.8-.4,1-.2,.2-.5,.3-1,.3s-.7,0-.9-.2c-.2-.2-.3-.4-.3-.7,0-.5,.3-.9,.8-1.4s1.2-.8,2-1.1c.8-.3,1.5-.4,2.1-.4s1.3,.2,1.7,.7c.4,.4,.7,1.1,.7,2v4.2c0,.5,0,.8,.2,1.1,.2,.3,.4,.4,.7,.4s.5,0,.7-.2h0Zm-3.9-.4c0,0,0-.2,0-.3v-2.3l-1,.5s-.2,0-.5,.2-.5,.3-.7,.5-.3,.5-.3,.8,.1,.7,.4,.9c.2,.2,.5,.3,.8,.3s.5,0,.8-.3l.5-.4Z"/>
        <path class="uuid-07708824-7a2b-4768-9cdf-6d2df7fcf082" d="M102.1,35.3c-.8,.4-1.4,1.1-1.8,1.9-.5,.8-.7,1.8-.7,2.9s.2,2,.7,2.8c.4,.8,1,1.4,1.8,1.9,.8,.5,1.7,.7,2.7,.7s1.7,0,2.3-.3,1.2-.5,1.8-.8v-2.1h-4.3v-2.8h7.8v6.6c-.9,.7-1.9,1.4-3.3,1.8-1.3,.5-2.8,.7-4.3,.7s-3.5-.4-4.9-1.1-2.4-1.8-3.2-3c-.7-1.3-1.1-2.7-1.1-4.3s.4-3,1.1-4.3,1.7-2.3,2.9-3.1c1.2-.8,2.6-1.1,4.1-1.1s2,.2,2.9,.5c.9,.3,1.7,.8,2.3,1.3v-1.5h3.4v5.4l-2.5,.2c-.5-.8-1.2-1.5-2.1-2s-1.9-.9-3-.9-1.8,.2-2.6,.6Z"/>
        <path class="uuid-07708824-7a2b-4768-9cdf-6d2df7fcf082" d="M117.5,47.9c-1-.5-1.8-1.2-2.4-2.1-.6-.9-.9-1.9-.9-3.1s.3-2.2,.9-3.1c.6-.9,1.4-1.6,2.4-2.1,1-.5,2-.7,3.2-.7s2.1,.2,3.1,.7c1,.5,1.8,1.2,2.4,2.1,.6,.9,.9,1.9,.9,3.1s-.3,2.2-.9,3.1c-.6,.9-1.4,1.6-2.4,2.1-1,.5-2.1,.7-3.2,.7s-2.2-.2-3.2-.7Zm5.1-2.9c.5-.6,.8-1.3,.8-2.2s-.3-1.7-.8-2.2-1.2-.8-1.9-.8-1.4,.3-1.9,.8c-.5,.6-.8,1.3-.8,2.2s.3,1.7,.8,2.2c.5,.6,1.2,.8,1.9,.8s1.4-.3,1.9-.8Z"/>
        <path class="uuid-07708824-7a2b-4768-9cdf-6d2df7fcf082" d="M145.3,45.5v2.8h-7.3v-2.8h1.8v-3.1c0-.6-.2-1.2-.6-1.6-.4-.4-.9-.6-1.6-.6-1.1,0-2.3,.7-3.4,2.1v3.1h1.8v2.8h-7.6v-2.8h2.2v-5.5h-2.2v-2.8h5.8v2.5c.8-1,1.6-1.7,2.4-2.1s1.5-.7,2.4-.7c1.4,0,2.5,.5,3.3,1.4,.7,.9,1.1,2.3,1.1,4.1v3.1h1.9Z"/>
        <path class="uuid-07708824-7a2b-4768-9cdf-6d2df7fcf082" d="M158.9,44.5c-.1,.9-.4,1.6-.9,2.2s-1.1,1.1-1.8,1.4-1.4,.5-2,.5-1.6-.2-2.3-.5c-.6-.3-1.3-.8-2.1-1.6-.4,.5-.8,1.2-1.1,2l-2.9-1.2c.4-1.1,.9-2,1.5-2.7,.6-.7,1.2-1.3,1.9-1.8,.6-.4,1.4-.9,2.2-1.4l.5-.3,.9-.5c-.8-.6-2-.8-3.4-.8v2.2h-3v-5.2h2.1c1.1,0,2,0,2.8,.3,.7,.2,1.3,.4,1.8,.8,.5,.3,1,.8,1.7,1.3,.5-.6,.8-1.4,1-2.4l3,1.2c-.3,1.1-.7,2-1.1,2.7-.4,.7-1,1.3-1.6,1.8-.6,.5-1.4,.9-2.3,1.4-1,.5-1.8,.9-2.2,1.2,.7,.4,1.4,.6,2,.6s1-.2,1.4-.6c.4-.4,.7-.9,.8-1.4l3.1,.9Z"/>
        <path class="uuid-07708824-7a2b-4768-9cdf-6d2df7fcf082" d="M173.5,48c-.3,.1-.6,.3-1,.4-.4,.1-.9,.2-1.3,.2s-1.2-.2-1.7-.5c-.5-.3-.9-.8-1.1-1.5-1.5,1.4-3,2.1-4.6,2.1s-2-.3-2.7-.9c-.7-.6-1.1-1.5-1.1-2.7s.2-1.5,.7-2.1,1.1-1,1.8-1.3c.7-.3,1.5-.4,2.2-.4s1.3,0,1.8,.2c.5,.1,1.1,.3,1.6,.5v-.7c0-.5-.2-.8-.7-1.1-.5-.2-1.1-.4-1.9-.4s-1.2,0-1.9,.2c-.7,.2-1.5,.4-2.3,.7l-.7-2.7c2-.8,3.8-1.2,5.4-1.2s3.1,.4,4.1,1.3,1.4,2,1.4,3.4v3.4c0,.5,.2,.7,.6,.7s.4,0,.6,0l.7,2.5Zm-8.9-12.6l5.3-2.9-1.8-2.6-4.4,4.1,.9,1.4Zm-.6,10.1c.2,.1,.5,.2,.9,.2s.9-.1,1.5-.3c.6-.2,1.2-.6,1.9-1.1h0c-.9-.3-1.8-.5-2.7-.5-.5,0-1,.1-1.3,.3-.4,.2-.5,.4-.5,.8s.1,.5,.4,.6Z"/>
        <path class="uuid-07708824-7a2b-4768-9cdf-6d2df7fcf082" d="M182.1,45.5v2.8h-8.1v-2.8h2.2v-10.6h-2.2v-2.8h5.8v13.5h2.3Z"/>
        <path class="uuid-07708824-7a2b-4768-9cdf-6d2df7fcf082" d="M195.1,46.5c-.7,.6-1.6,1.2-2.6,1.5-1,.4-2,.6-3.2,.6s-2.2-.2-3.2-.7c-1-.5-1.8-1.1-2.4-2-.6-.9-.9-1.9-.9-3.1s.3-2.2,.9-3.2,1.4-1.7,2.4-2.2c1-.5,2.1-.8,3.3-.8s1.9,.2,2.7,.5,1.4,.7,1.9,1.3,.7,1.2,.7,1.9c0,1.1-.5,2-1.4,2.6s-2,.9-3.3,.9-1.4,0-2-.2-1.2-.4-1.8-.6c0,.8,.4,1.4,1,1.9,.6,.5,1.4,.7,2.3,.7,1.5,0,2.9-.5,4.2-1.4l1.5,2.3Zm-7.1-6.5c-.5,.3-1,.7-1.3,1.1,.8,.3,1.6,.4,2.4,.4,.6,0,1.1-.1,1.5-.3,.3-.2,.5-.4,.5-.8s-.1-.5-.4-.6-.6-.2-1-.2-1.2,.1-1.7,.4Z"/>
        <path class="uuid-07708824-7a2b-4768-9cdf-6d2df7fcf082" d="M209,44.5c-.1,.9-.4,1.6-.9,2.2s-1.1,1.1-1.8,1.4-1.4,.5-2,.5-1.6-.2-2.3-.5c-.6-.3-1.3-.8-2.1-1.6-.4,.5-.8,1.2-1.1,2l-2.9-1.2c.4-1.1,.9-2,1.5-2.7,.6-.7,1.2-1.3,1.9-1.8,.6-.4,1.4-.9,2.2-1.4l.5-.3,.9-.5c-.8-.6-2-.8-3.4-.8v2.2h-3v-5.2h2.1c1.1,0,2,0,2.8,.3,.7,.2,1.3,.4,1.8,.8,.5,.3,1,.8,1.7,1.3,.5-.6,.8-1.4,1-2.4l3,1.2c-.3,1.1-.7,2-1.1,2.7-.4,.7-1,1.3-1.6,1.8-.6,.5-1.4,.9-2.3,1.4-1,.5-1.8,.9-2.2,1.2,.7,.4,1.4,.6,2,.6s1-.2,1.4-.6c.4-.4,.7-.9,.8-1.4l3.1,.9Z"/>
      </g>
      <g>
        <path class="uuid-d670589c-3505-482e-8c69-1875abd5a9dc" d="M15.6,9.8c.2,1.3-.4,2.8-.5,4.2-.2,2.1-.3,4.2-.5,6.3,0,.7-.4,1.5-.4,2.2,0,1.9,0,3.8,0,5.7,0,2.3-.6,4.4-1,6.6-.5,3.2-1.1,6.4-.9,9.7,0,2-.7,3.8-1.5,5.6-.5,1-.9,2.1-1.1,3.2,4.9,4.2,11.2,6.7,18.1,6.7s.9,0,1.4,0c.5-.5,.9-1.2,1.4-2-.7-.2-1.1-.4-1.5-.4-1.3-.1-1.9-1.1-2.3-2.1-.3-.8-.4-1.7-.6-2.5-.2-.8,.3-1.4,1-1.6,1.2-.4,2.5-.9,3.8-1,1.7-.1,3.5,0,5.2,0,.4,0,.9,0,1.3,0,1.5,0,2.4-.9,2.6-2.7,.5-3.3-.3-6.3-2.4-9-.2-.2-.3-.4-.5-.6-.2-.4-.5-.8-.8-1.3,1.1,0,2.2,.2,3.2,.2,1.7,0,3.3-.3,4.9-.8,1.8-.5,3.7-.6,5.6-.8,.5,0,1,0,1.4,0l.2-.3c-.5-.8-1.1-1.5-1.6-2.4-.4-.6-.8-1.2-.9-1.8-.3-1,.6-1.6,1.3-2,1.4-.8,3-1.6,4.5-2.3,0-.5-.2-1-.3-1.5-.4-.5-.8-1-1.1-1.5-.6-1-1.1-2.1-1.6-3.1-.2-.6,0-1.1,.3-1.4-.8-1.5-1.8-3-2.9-4.3,0,1.3-.4,2.6-.8,3.8-.4,1.3,0,2.5,0,3.8,.1,1.4,.3,2.9,.1,4.3,0,.5-.9,1-1.4,1.3-.7,.4-1.1,.7-1,1.6,.1,1-.7,1.8-1.7,1.6-1-.3-1.9-.5-2.9,.3-.4,.4-1.3,.4-2,.4-.9,0-1.2,.4-1,1.3,0,.1,0,.2,0,.4-1.1-.3-2.1-1.4-2-2.4l1.1,1.2c.7-1.2,1.9-.9,2.9-1.3,.3-.1,.6-.3,1-.4,.5-.2,1.1-.4,1.7-.4,.7,0,1.5,0,2.1,0,.3-.8,.4-1.6,.8-2.2,.3-.5,1-.7,1.5-1.1,.2-.1,.5-.3,.5-.5,0-1.4,0-2.8-.1-4.2,0-.9-.2-1.7-.3-2.7-.8,0-1.5,.2-2.2,.1-.8,0-.9,.4-.9,.9,0,.7,0,1.5,.2,2.2,.2,1.3-.4,1.9-1.7,1.8-.3,0-.6,0-.8,0,0,.7,.2,1.5,0,2.1-.2,.4-1,.5-1.6,.8l-.3-.3c-.1,.6-.4,1.2-.4,1.8,0,.8-.3,1.1-1.1,1-.2,0-.5,.1-.9,.2-.1-.3-.3-.7-.4-1.2l.2-.2c.4,.2,.9,.3,1.4,.5,.1-.4,.3-.9,.4-1.3q.4-1.6,2.1-1.4c0-.6,0-1.1-.1-1.6-.2-.9,.2-1.1,1-1.1,1.7,0,1.8,0,1.5-1.8,0-.5,0-.9,0-1.4,0-1.4,.5-1.9,1.9-1.9,.6,0,1.1,0,1.8,0-.6-2.8-3.1-4.8-3.1-7.8-.7-.1-1.3-.2-2.1-.3,.1,1.2,0,2.4,.4,3.4,.3,1,0,1.4-.6,1.5-.4,1.1-.8,2-1,2.9-.3,1.1-.5,2.2-.4,3.3,0,1.8-1,3-1.9,4.3-.4,.6-.8,1.1-1.3,1.7-.1-.2-.3-.3-.3-.5-.1-1.1-.2-2.2-.2-3.2,0-.5,.3-.9,.4-1.4,.1-.5,.4-1,.3-1.5-.4-1.6-.4-3.1,0-4.7,.2-.7,0-1.5,0-2.2-.5-2.4,.3-3.6,2.7-4.1,.8-.2,.8-.9,.8-1.5,0-.2,0-.4-.1-.6-.9-.5-1.8-.9-2.8-1.3h0c.3,.8,.6,1.6,1,2.6-.9-.3-1.5-.5-2.2-.8,0,.3,0,.4,0,.6,.1,.8,.1,1.4-.4,2.2-.4,.7-.3,1.7-.4,2.6,0,.2,0,.4,0,.6,0,.7-.3,1.4-1,1.4-.4,0-1-.6-1.2-1.1-.2-.9-.2-1.8-.3-2.8,0-1.2-.2-2.4-.2-3.6,0-.3,.3-.6,.4-.9,.3-.6,.5-1.3,.8-1.9-2.3-.6-4.8-1-7.3-1-4.4,0-8.5,1-12.2,2.8,0,.8,0,1.7,0,2.6Zm4.1,17.9c.9-.7,.8-1.5,.3-2.3-.5-.9-.6-1.5,.3-2.3,.3-.3,.4-1.1,.4-1.6,0-.8,.1-1.5,1.2-1.6,.4,0,.8-.5,1.2-.8,.3-.2,.8-.4,.9-.3,.8,.8,1.8,.5,2.7,.6,.6,0,1.1,.4,1.7,.6,.5,.2,1,.4,1.5,.5,.6,0,.7,.2,.4,.7-.4,1.1-.8,2.3-1.1,3.5l1.3,.3c.3-1,.6-1.9,.9-2.9,0-.1,.1-.4,.3-.4,1.1-.3,2.1-.6,3.3-1,0,.4,0,.6,0,.8-.5,1.5-.9,3-1.6,4.4-.3,.6-1.1,1-1.6,1.4,.5,.5,1.2,1,1.7,1.7,.3,.4,.5,.9,.5,1.4,0,1.5-.4,1.7-1.9,1.6-.7,0-1.5,0-2.2,.3,.2,0,.5,0,.7,0,1.2-.3,1.4-.3,1.6,.9,.2,.9,.3,1.7,.5,2.6,.1,.6-.1,.8-.6,.9-.9,.2-1.7,.4-2.5-.6-.1,.6-.2,1.1-.4,1.9-.7-.4-1.4-.8-2.1-1.2-.8,1.4,0,2.4,.9,3.5,.4,.4,.5,1.5,0,1.7-1.3,.7-1.7,1.9-2,3.2,0,.3-.2,.6-.2,1-2.3,.5-2.6,.5-2.7-.8-.9-.2-1.7-.4-1.4-1.7,0-.2-.2-.4-.3-.6-.1-.3-.3-.7-.2-.9,.3-1,.2-1.9,0-2.8,0-.3,.4-.7,.6-1.1h.3c-.5-1.3-1.1-2.6-1.6-4l.8-.5c-.2-.2-.4-.5-.5-.7-.9-1.1-.9-1.1,.7-1.4-.6-.8-1-1.6-1.6-2.4-.5-.6-.6-1.2,0-1.6Z"/>
        <path class="uuid-d670589c-3505-482e-8c69-1875abd5a9dc" d="M21,32.6c.3,.4,.6,.8,.9,1.2,.6,.8,.6,.9-.5,1.2,.4,1,.9,2.1,1.2,3.1,0,.3,0,.9-.2,1-.9,.4-.5,.8-.3,1.4,.2,.4,.2,1,0,1.2-.6,.6-.2,.9,0,1.4,.2,.5,.3,1,.5,1.5,0,0,.1,.1,.2,0,1.2-.4,1.1,.5,1.3,1.2,1,0,1.4-.4,1.6-1.4,.1-.7,.5-1.4,.9-2,.3-.5,.9-.8,1.3-1.2-1.9-2.1-2.3-3.7-1.3-5.3,.7,.2,1.4,.4,2.1,.5,0,0,.2-.1,.2-.2,.8-1.2,.8-1.2,1.9-.3,.2,.2,.7,.2,.9,0,.2,0,.4-.5,.4-.8,0-.8-.2-1.6-.4-2.4-2.5,0-2.6,0-2.5-1.4,1.2,0,2.4,0,3.6-.2,.3,0,.7-.3,.8-.6,0-.4,0-.8-.3-1.1-.6-.8-1.3-1.5-2-2.2-.4,0-.9,0-1.4,0v-.3c.6-.1,1.1-.2,1.7-.3,.8-.1,1.4-.4,1.7-1.3,.3-1.1,.7-2.1,1.1-3.2,0-.1,0-.2,0-.5-.9,.3-2,.1-2.1,1.6,0,.6-.4,1.1-.7,1.7-.1,.2-.4,.6-.6,.6-.8,0-1.6,0-2.4,0,.4-1.2,.7-2.3,1-3.5,0-.3,0-.9-.2-1-.6-.4-1.3-.8-2-1-1.1-.2-2.2-.3-3.4-.4-.5,.2-1.1,.5-1.7,.8-.2,.1-.6,.5-.5,.6,.3,1.3-.3,2.2-1.2,3,.9,1.6,1.4,3.1-.3,4.3,.6,.9,1,1.7,1.5,2.5,.4,.7,.6,1.3-.5,1.6Z"/>
        <path class="uuid-d670589c-3505-482e-8c69-1875abd5a9dc" d="M35.4,7c-.4,.9-.8,1.7-.7,2.7,.1,.9,0,1.8-.1,2.7,0,1,.1,1.8,1,2.8,0-.7,0-1.1,.1-1.5,.1-1.1,0-2.2,.5-3.2,.3-.6,.3-1.1,.2-1.7-.2-1.1,0-1.3,1.1-1,.1,0,.3,0,.4,.2,0-.2,0-.2,0-.3-.3-.8-.5-1.2-.3-1.4-.6-.2-1.1-.4-1.7-.6-.2,.5-.4,.9-.6,1.3Z"/>
        <path class="uuid-d670589c-3505-482e-8c69-1875abd5a9dc" d="M45.3,12.2c.9,1.9,1.8,3.8,2.7,5.7h.3c.2-1.1,.5-2.2,.5-3.3,0-.2,0-.4,0-.5-1-1.2-2.2-2.3-3.4-3.3-.3,.4-.4,.8-.1,1.4Z"/>
        <path class="uuid-d670589c-3505-482e-8c69-1875abd5a9dc" d="M43.3,10c.3,0,.6,.1,1.1,.2,0,0,0-.2,0-.3-.8-.6-1.7-1.2-2.6-1.7,0,1.1,.4,1.6,1.6,1.8Z"/>
        <path class="uuid-d670589c-3505-482e-8c69-1875abd5a9dc" d="M2.3,26.8c-.1-2.3,0-4.5,.5-6.7-1.8,3.7-2.8,7.8-2.8,12.1s0,2,.2,3c.1-.8,.5-1.5,.9-2.3,1.1-1.9,1.4-4.1,1.2-6.2Z"/>
        <path class="uuid-d670589c-3505-482e-8c69-1875abd5a9dc" d="M38.2,13.3c.1,1.4,.1,2.7,.2,4.1,0,1.4,.1,2.8,.2,4.2,0,.3,0,.7-.2,1-.9,1-1.1,2.2-.2,3.3,1.1-1,1.8-2.3,1.9-3.8,.1-1.6,0-3.3,1-4.7,.1-.2,.1-.5,.1-.7,0-.9,0-1.7,1-1.7-.2-1.5-.3-2.9-.5-4.2-.7,.3-1.4,.7-2.1,.9-1.3,.3-1.4,.5-1.3,1.9Z"/>
        <path class="uuid-d670589c-3505-482e-8c69-1875abd5a9dc" d="M52.6,20.8c.4,1.1,1,2.1,1.6,3.1-.4-1.4-1-2.7-1.6-4-.1,.2-.1,.6,0,.9Z"/>
        <path class="uuid-d670589c-3505-482e-8c69-1875abd5a9dc" d="M51.5,43.3h.4c-.6-.6-1.2-1.3-1.9-1.7-.6-.4-1.3-.5-1.9,.2-.1,.1-.3,.2-.5,.3-1.5,.6-1.8,2.1-2.2,3.4-.5,1.8-.7,3.5-.2,5.3,0,.3,0,.7-.2,.9-1.2,1.4-2.5,2.7-3.8,4.1-.8,.9-1.9,1-3.2,1.1,.2-.2,.2-.4,.3-.5l-.2-.2c-.2,.2-.5,.6-.8,.7-.6,.2-1.3,.2-2,.2-1.1,.1-1.7,1.3-1.2,2.2,7.8-1.8,14.3-6.8,18-13.6-.2-.5-.5-1-.7-1.6,0-.2,0-.5,0-.7Z"/>
        <path class="uuid-d670589c-3505-482e-8c69-1875abd5a9dc" d="M50.3,30.1c-.6,.5-.4,1.4,.2,2.3,.5,.7,1,1.5,1.4,2.3,.4,1,0,1.5-1.2,1.4-2.3-.2-4.5,.4-6.8,.9-1.7,.4-3.5,.3-5.3,.5-.3,0-.7,0-1,0,.7,1,1.4,1.9,1.9,2.9,1.4,2.8,1.7,5.7,.8,8.7-.5,1.7-1.9,1.8-3.3,1.9-.7,0-1.4,0-2-.2-1.5-.5-3-.5-4.6,0-.7,.2-1.4,.2-2.1,.5-1.5,.6-1.8,1-1.4,2.6,.1,.6,.5,1.2,.7,1.8,.4,.9,1.1,1.3,2.1,1.4,1.2,.1,1.6,.8,.9,1.8-.2,.3-.5,.7-.7,1,1.1,0,2.3-.2,3.3-.5-.4-.6,0-1.3,.2-1.8,.2-.5,.8-.9,1.4-1.2,.7-.3,1.5-.5,2.2-.6,.4,0,.9-.2,1.3-.1,1.5,.5,2.3-.5,3.2-1.5,.8-.9,1.7-1.7,2.5-2.6,.3-.3,.4-.8,.4-1.2,0-1.3,0-2.7,0-4,0-.8,.4-1.5,.6-2.3,.2-1.2,1.1-1.9,2-2.6,.2-.2,.5-.3,.8-.4,1.1-.7,1.5-.7,2.6,.1,.9,.7,1.7,1.4,2.5,2.2-.2,.3-.2,.7-.2,1.1,1.8-3.7,2.9-7.9,2.9-12.3s-.2-3.3-.4-4.8c-.7,.3-1.4,.7-2.1,1-.9,.5-1.8,1.1-2.7,1.7Z"/>
        <path class="uuid-d670589c-3505-482e-8c69-1875abd5a9dc" d="M11.8,43c-.2-2.5,.4-4.9,.8-7.4,.5-2.7,1.2-5.4,1-8.3,0-1.5,0-3.1,0-4.6,0-.9,.3-1.9,.4-2.8,.3-2.8,.5-5.7,.8-8.5,.1-1.3,.2-2.6,.3-4-4.6,2.4-8.5,6.1-11.2,10.5-.4,3.4-1,6.7-.8,10.2,0,1.6-.3,3.1-1.1,4.5-.5,.9-1,1.9-1,2.8,0,1.1,0,2.1-.1,3.2,1.3,5.5,4.3,10.3,8.3,13.9,.2-.7,.5-1.5,.8-2.2,1.2-2.4,2.1-4.8,1.8-7.5Z"/>
        <path class="uuid-d670589c-3505-482e-8c69-1875abd5a9dc" d="M54.7,69c.1,0,.2,0,.4,0h-.4Z"/>
      </g>
      <g>
        <path class="uuid-07708824-7a2b-4768-9cdf-6d2df7fcf082" d="M79.8,10h0Z"/>
        <path class="uuid-07708824-7a2b-4768-9cdf-6d2df7fcf082" d="M79.8,10s0,0,0,0c0,.3,0,.6,0,.9h0c.2-.2,.2-.5,0-1Z"/>
        <path class="uuid-07708824-7a2b-4768-9cdf-6d2df7fcf082" d="M79.8,10h0s0,0,0,0c0,0,0,0,0,0Z"/>
        <path class="uuid-07708824-7a2b-4768-9cdf-6d2df7fcf082" d="M77.3,34.9c-1.9-1.3-4.7-2.1-8.3-2.3v-.4c3.6-.2,6.4-1,8.3-2.3,1.9-1.3,2.9-3.2,2.9-5.7s0-2.1,0-3.7c0-.6,0-1.2,0-1.8,0,0-.1,.2-.2,.2-.8,1-1.9,1.8-3,2.5-.6,.5-1.3,.8-2,1.2-.3,.1-.7,.2-1,.2-1.5,0-2.7,.6-3.6,1.7-.7,.9-1.4,1.7-2.2,2.6-.1,1-.3,1.7-.6,2.3-.5,1-1.3,1.6-2.5,1.8-.3,0-.7,.1-1.1,.2-.2,.2-.4,.5-.6,.7-.3,.3-.7,.6-1,.9,1.1,0,2,.2,2.7,.3,1.1,.3,1.9,.9,2.5,1.8,.5,.9,.8,2.4,.8,4.5s0,2.3-.1,4c0,.9,0,1.9-.1,2.8,1.5-.8,3.1-1.3,4.8-1.2,1.3,0,2.5,.5,3.8,.7,0-.6,.6-.7,1.1-.9,1-.4,1.7-1.1,2.4-1.9,0-1,0-1.9,0-2.6,0-2.5-1-4.4-2.9-5.7Z"/>
        <path class="uuid-07708824-7a2b-4768-9cdf-6d2df7fcf082" d="M75,.8c2.3-.7,4.7-.5,6.8,1,0,0,.1,0,.2,.1,.5-.2,1.2-.2,2-.2h1c.4,0,.8,0,1.2,0V.6c-1.8-.2-3.4-.3-4.9-.4-1.5,0-2.8-.1-4.1-.1-3.1,0-5.4,.5-6.9,1.4,1.6,0,3.1-.2,4.7-.7Z"/>
        <path class="uuid-07708824-7a2b-4768-9cdf-6d2df7fcf082" d="M79.9,64.4c-.3-.2-.6-.5-.9-.8-.5-.7-.9-.9-1.7-.4-.9,.5-1.8,.7-2.8,.5-.6-.1-1.1,.2-1.6,.6,1.2,.3,2.6,.4,4.3,.4s2.5,0,4-.1c1.5,0,3.1-.2,4.8-.4v-1.1c-.5,0-.9,0-1.3,0h-1.2c-.8,0-1.5-.1-2.1-.3-.2,.6-.8,1.1-1.1,1.6,0,.1-.4,.1-.6,0Z"/>
        <path class="uuid-07708824-7a2b-4768-9cdf-6d2df7fcf082" d="M79.7,63.4c.1,.1,.4,.2,.5,.2,.1-.5,.6-.7,.9-1.2-.3-.2-.5-.4-.7-.6-.1-.2-.2-.4-.3-.7-.5,.4-1,.8-1.5,1.1,.4,.4,.7,.8,1,1.2Z"/>
        <path class="uuid-07708824-7a2b-4768-9cdf-6d2df7fcf082" d="M73.6,62.5c.5,0,1,.4,1.6,.4,1.6,.2,2.7-.8,3.9-1.6,.3-.2,.6-.5,.9-.7-.2-.9-.3-2.2-.3-3.9s0-1.3,0-2.2c-2.7,0-5,.9-7,2.8-1.2,1.2-2.7,1.2-4.2,.7-.3-.1-.6-.2-.8-.3,.1,1.3,.4,2.3,.8,3.2,.3,.1,.6,.2,.9,.3,1.5,.3,2.7,1.3,4.2,1.4Z"/>
        <path class="uuid-07708824-7a2b-4768-9cdf-6d2df7fcf082" d="M70,62.7c.5,.3,.9,.6,1.3,.9,.3,.1,.6,.2,1,.3,.5-.3,1-.5,1.4-.8-.5-.1-1-.2-1.5-.4-.8-.2-1.6-.5-2.4-.8-.3-.1-.6-.2-.9-.3,.2,.3,.4,.5,.6,.8,.1,0,.3,0,.4,.2Z"/>
        <path class="uuid-07708824-7a2b-4768-9cdf-6d2df7fcf082" d="M69.9,57.8c1,.1,1.9-.2,2.7-.9,1.3-1.1,2.6-2.2,4.3-2.4,.9-.2,1.9-.2,2.8-.3,0-.2,0-.4,0-.6,0-1.3,.1-2.8,.2-4.4,0-1.6,.1-3.1,.2-4.7,0-.2,0-.3,0-.5-.7,.8-1.6,1.5-2.7,1.8-.2,1.1-.3,1.2-1.3,.6-1.8-.9-3.7-.9-5.6-.4-.8,.2-1.7,.6-2.4,1,0,.6,0,1.1,0,1.7,0,1.7-.1,3.3-.2,4.7,0,1.4-.1,2.3-.1,2.7s0,.7,0,1.1c0,0,0,0,0,0,.7,.3,1.4,.5,2.1,.6Z"/>
        <path class="uuid-07708824-7a2b-4768-9cdf-6d2df7fcf082" d="M74,22.3c.6,0,1.2-.3,1.7-.6,1.2-.8,2.4-1.7,3.6-2.6,.3-.3,.5-.7,.7-1.1,0,0,0-.2,.1-.3,0-.7,0-1.4,0-2.1,0-1.6-.1-3.1-.2-4.5-.1,.3-.4,.6-.6,.8-.5,.6-1.2,1.1-1.8,1.6-.2,.2-.4,.3-.6,.5-.3,.2-.7,.5-1.1,.5-1.1,.2-1.4,.7-1.4,1.5,0,.1,0,.2,0,.4,0,1.2-.5,1.6-1.8,1.5,.5-.2,1-.5,1.5-.8,0-.4,0-.9,0-1.4,0-.8,.5-1.6,1.3-1.6,1.2,0,1.8-.9,2.6-1.5,.9-.6,1.6-1.5,1.7-2.6,0,0,0,0,0,0,0-.9,0-1.6,0-2.1,0-.7,0-1.4,0-1.9,0,0-.1,0-.2,0-.9-.1-1.3,.2-1.8,.9-.6,.8-1.5,1.4-2.4,2.1-1.2,1-2.3,2.1-2.8,3.7-.2,.6-.5,1.1-.7,1.7,0,0,0,0,0,0h0c-.3,.8-.3,1.8-1.5,2.2,.1-.2,.2-.3,.2-.5,.2-.4,.5-.9,.7-1.3,.1-.2,.3-.3,.5-.4h0c0-.2-.1-.4,0-.6,.6-1.6,1.1-3.2,2.4-4.3,.8-.6,1.6-1.2,2.3-1.8,.5-.5,.9-1.1,1.3-1.6,.1-.2,.3-.3,.5-.4,.5,0,1-.1,1.5-.2,.1-1.3,.4-2.3,.7-2.8,.2-.2,.4-.4,.7-.6-1.6-.9-3.4-1.2-5.2-1.1-.7,0-1.5,.2-2.1,.5-1.3,.5-2.7,.6-4.1,.4-1.4,1.3-2.1,3.5-2.1,6.6s0,1.4,.1,2.8c0,1.4,.1,2.9,.2,4.7,0,1.7,.1,3.4,.2,5.1,0,1.6,.1,2.9,.1,3.9s0,1,0,1.5c.8-.9,1.6-1.9,2.5-2.8,.9-.9,1.9-1.3,3.3-1.3Zm-5.8-11.5h-.2c.2-.4,.4-.7,.6-.9,1.1-.6,1.3-1.6,1.4-2.6,0-.5,.3-1.1,.6-1.4,.6-.6,1.3-1.1,2-1.6,.3-.2,.8-.3,1.1-.4h0c-.6,.6-1.3,1-1.9,1.5-.3,.2-.7,.4-.9,.7-.3,.4-.5,.9-.6,1.3-.1,.5-.2,.9-.3,1.4-.2,1.1-1.3,1.3-1.9,2Z"/>
        <path class="uuid-07708824-7a2b-4768-9cdf-6d2df7fcf082" d="M60.4,31.7v1.4c.4,0,.8,0,1.1,0,.5-.5,1-1,1.6-1.5-.8,0-1.7,.1-2.7,.1Z"/>
        <polygon class="uuid-07708824-7a2b-4768-9cdf-6d2df7fcf082" points="71.8 14.4 71.8 14.4 71.8 14.4 71.8 14.4 71.8 14.4"/>
      </g>
    </g>
  </g>
</svg>