<?xml version="1.0" encoding="UTF-8"?>
<svg id="uuid-accddfd6-61e5-46d7-9ed7-0fb1cb191e6b" data-name="Layer 2" xmlns="http://www.w3.org/2000/svg" width="30.4mm" height="24.4mm" viewBox="0 0 86.2 69">
  <defs>
    <style>
      .uuid-62f1258c-634c-4afb-9731-a16e04f96b6a {
        fill: #757ab9;
      }

      .uuid-f2b425d5-d9e7-43f9-8b61-fe2286863312 {
        fill: #29235c;
      }
    </style>
  </defs>
  <g id="uuid-6dc8d426-26be-467c-b524-8345b1e4bb20" data-name="Layer 1">
    <g>
      <g>
        <path class="uuid-62f1258c-634c-4afb-9731-a16e04f96b6a" d="M15.6,9.8c.2,1.3-.4,2.8-.5,4.2-.2,2.1-.3,4.2-.5,6.3,0,.7-.4,1.5-.4,2.2,0,1.9,0,3.8,0,5.7,0,2.3-.6,4.4-1,6.6-.5,3.2-1.1,6.4-.9,9.7,0,2-.7,3.8-1.5,5.6-.5,1-.9,2.1-1.1,3.2,4.9,4.2,11.2,6.7,18.1,6.7s.9,0,1.4,0c.5-.5,.9-1.2,1.4-2-.7-.2-1.1-.4-1.5-.4-1.3-.1-1.9-1.1-2.3-2.1-.3-.8-.4-1.7-.6-2.5-.2-.8,.3-1.4,1-1.6,1.2-.4,2.5-.9,3.8-1,1.7-.1,3.5,0,5.2,0,.4,0,.9,0,1.3,0,1.5,0,2.4-.9,2.6-2.7,.5-3.3-.3-6.3-2.4-9-.2-.2-.3-.4-.5-.6-.2-.4-.5-.8-.8-1.3,1.1,0,2.2,.2,3.2,.2,1.7,0,3.3-.3,4.9-.8,1.8-.5,3.7-.6,5.6-.8,.5,0,1,0,1.4,0l.2-.3c-.5-.8-1.1-1.5-1.6-2.4-.4-.6-.8-1.2-.9-1.8-.3-1,.6-1.6,1.3-2,1.4-.8,3-1.6,4.5-2.3,0-.5-.2-1-.3-1.5-.4-.5-.8-1-1.1-1.5-.6-1-1.1-2.1-1.6-3.1-.2-.6,0-1.1,.3-1.4-.8-1.5-1.8-3-2.9-4.3,0,1.3-.4,2.6-.8,3.8-.4,1.3,0,2.5,0,3.8,.1,1.4,.3,2.9,.1,4.3,0,.5-.9,1-1.4,1.3-.7,.4-1.1,.7-1,1.6,.1,1-.7,1.8-1.7,1.6-1-.3-1.9-.5-2.9,.3-.4,.4-1.3,.4-2,.4-.9,0-1.2,.4-1,1.3,0,.1,0,.2,0,.4-1.1-.3-2.1-1.4-2-2.4l1.1,1.2c.7-1.2,1.9-.9,2.9-1.3,.3-.1,.6-.3,1-.4,.5-.2,1.1-.4,1.7-.4,.7,0,1.5,0,2.1,0,.3-.8,.4-1.6,.8-2.2,.3-.5,1-.7,1.5-1.1,.2-.1,.5-.3,.5-.5,0-1.4,0-2.8-.1-4.2,0-.9-.2-1.7-.3-2.7-.8,0-1.5,.2-2.2,.1-.8,0-.9,.4-.9,.9,0,.7,0,1.5,.2,2.2,.2,1.3-.4,1.9-1.7,1.8-.3,0-.6,0-.8,0,0,.7,.2,1.5,0,2.1-.2,.4-1,.5-1.6,.8l-.3-.3c-.1,.6-.4,1.2-.4,1.8,0,.8-.3,1.1-1.1,1-.2,0-.5,.1-.9,.2-.1-.3-.3-.7-.4-1.2l.2-.2c.4,.2,.9,.3,1.4,.5,.1-.4,.3-.9,.4-1.3q.4-1.6,2.1-1.4c0-.6,0-1.1-.1-1.6-.2-.9,.2-1.1,1-1.1,1.7,0,1.8,0,1.5-1.8,0-.5,0-.9,0-1.4,0-1.4,.5-1.9,1.9-1.9,.6,0,1.1,0,1.8,0-.6-2.8-3.1-4.8-3.1-7.8-.7-.1-1.3-.2-2.1-.3,.1,1.2,0,2.4,.4,3.4,.3,1,0,1.4-.6,1.5-.4,1.1-.8,2-1,2.9-.3,1.1-.5,2.2-.4,3.3,0,1.8-1,3-1.9,4.3-.4,.6-.8,1.1-1.3,1.7-.1-.2-.3-.3-.3-.5-.1-1.1-.2-2.2-.2-3.2,0-.5,.3-.9,.4-1.4,.1-.5,.4-1,.3-1.5-.4-1.6-.4-3.1,0-4.7,.2-.7,0-1.5,0-2.2-.5-2.4,.3-3.6,2.7-4.1,.8-.2,.8-.9,.8-1.5,0-.2,0-.4-.1-.6-.9-.5-1.8-.9-2.8-1.3h0c.3,.8,.6,1.6,1,2.6-.9-.3-1.5-.5-2.2-.8,0,.3,0,.4,0,.6,.1,.8,.1,1.4-.4,2.2-.4,.7-.3,1.7-.4,2.6,0,.2,0,.4,0,.6,0,.7-.3,1.4-1,1.4-.4,0-1-.6-1.2-1.1-.2-.9-.2-1.8-.3-2.8,0-1.2-.2-2.4-.2-3.6,0-.3,.3-.6,.4-.9,.3-.6,.5-1.3,.8-1.9-2.3-.6-4.8-1-7.3-1-4.4,0-8.5,1-12.2,2.8,0,.8,0,1.7,0,2.6Zm4.1,17.9c.9-.7,.8-1.5,.3-2.3-.5-.9-.6-1.5,.3-2.3,.3-.3,.4-1.1,.4-1.6,0-.8,.1-1.5,1.2-1.6,.4,0,.8-.5,1.2-.8,.3-.2,.8-.4,.9-.3,.8,.8,1.8,.5,2.7,.6,.6,0,1.1,.4,1.7,.6,.5,.2,1,.4,1.5,.5,.6,0,.7,.2,.4,.7-.4,1.1-.8,2.3-1.1,3.5l1.3,.3c.3-1,.6-1.9,.9-2.9,0-.1,.1-.4,.3-.4,1.1-.3,2.1-.6,3.3-1,0,.4,0,.6,0,.8-.5,1.5-.9,3-1.6,4.4-.3,.6-1.1,1-1.6,1.4,.5,.5,1.2,1,1.7,1.7,.3,.4,.5,.9,.5,1.4,0,1.5-.4,1.7-1.9,1.6-.7,0-1.5,0-2.2,.3,.2,0,.5,0,.7,0,1.2-.3,1.4-.3,1.6,.9,.2,.9,.3,1.7,.5,2.6,.1,.6-.1,.8-.6,.9-.9,.2-1.7,.4-2.5-.6-.1,.6-.2,1.1-.4,1.9-.7-.4-1.4-.8-2.1-1.2-.8,1.4,0,2.4,.9,3.5,.4,.4,.5,1.5,0,1.7-1.3,.7-1.7,1.9-2,3.2,0,.3-.2,.6-.2,1-2.3,.5-2.6,.5-2.7-.8-.9-.2-1.7-.4-1.4-1.7,0-.2-.2-.4-.3-.6-.1-.3-.3-.7-.2-.9,.3-1,.2-1.9,0-2.8,0-.3,.4-.7,.6-1.1h.3c-.5-1.3-1.1-2.6-1.6-4l.8-.5c-.2-.2-.4-.5-.5-.7-.9-1.1-.9-1.1,.7-1.4-.6-.8-1-1.6-1.6-2.4-.5-.6-.6-1.2,0-1.6Z"/>
        <path class="uuid-62f1258c-634c-4afb-9731-a16e04f96b6a" d="M21,32.6c.3,.4,.6,.8,.9,1.2,.6,.8,.6,.9-.5,1.2,.4,1,.9,2.1,1.2,3.1,0,.3,0,.9-.2,1-.9,.4-.5,.8-.3,1.4,.2,.4,.2,1,0,1.2-.6,.6-.2,.9,0,1.4,.2,.5,.3,1,.5,1.5,0,0,.1,.1,.2,0,1.2-.4,1.1,.5,1.3,1.2,1,0,1.4-.4,1.6-1.4,.1-.7,.5-1.4,.9-2,.3-.5,.9-.8,1.3-1.2-1.9-2.1-2.3-3.7-1.3-5.3,.7,.2,1.4,.4,2.1,.5,0,0,.2-.1,.2-.2,.8-1.2,.8-1.2,1.9-.3,.2,.2,.7,.2,.9,0,.2,0,.4-.5,.4-.8,0-.8-.2-1.6-.4-2.4-2.5,0-2.6,0-2.5-1.4,1.2,0,2.4,0,3.6-.2,.3,0,.7-.3,.8-.6,0-.4,0-.8-.3-1.1-.6-.8-1.3-1.5-2-2.2-.4,0-.9,0-1.4,0v-.3c.6-.1,1.1-.2,1.7-.3,.8-.1,1.4-.4,1.7-1.3,.3-1.1,.7-2.1,1.1-3.2,0-.1,0-.2,0-.5-.9,.3-2,.1-2.1,1.6,0,.6-.4,1.1-.7,1.7-.1,.2-.4,.6-.6,.6-.8,0-1.6,0-2.4,0,.4-1.2,.7-2.3,1-3.5,0-.3,0-.9-.2-1-.6-.4-1.3-.8-2-1-1.1-.2-2.2-.3-3.4-.4-.5,.2-1.1,.5-1.7,.8-.2,.1-.6,.5-.5,.6,.3,1.3-.3,2.2-1.2,3,.9,1.6,1.4,3.1-.3,4.3,.6,.9,1,1.7,1.5,2.5,.4,.7,.6,1.3-.5,1.6Z"/>
        <path class="uuid-62f1258c-634c-4afb-9731-a16e04f96b6a" d="M35.4,7c-.4,.9-.8,1.7-.7,2.7,.1,.9,0,1.8-.1,2.7,0,1,.1,1.8,1,2.8,0-.7,0-1.1,.1-1.5,.1-1.1,0-2.2,.5-3.2,.3-.6,.3-1.1,.2-1.7-.2-1.1,0-1.3,1.1-1,.1,0,.3,0,.4,.2,0-.2,0-.2,0-.3-.3-.8-.5-1.2-.3-1.4-.6-.2-1.1-.4-1.7-.6-.2,.5-.4,.9-.6,1.3Z"/>
        <path class="uuid-62f1258c-634c-4afb-9731-a16e04f96b6a" d="M45.3,12.2c.9,1.9,1.8,3.8,2.7,5.7h.3c.2-1.1,.5-2.2,.5-3.3,0-.2,0-.4,0-.5-1-1.2-2.2-2.3-3.4-3.3-.3,.4-.4,.8-.1,1.4Z"/>
        <path class="uuid-62f1258c-634c-4afb-9731-a16e04f96b6a" d="M43.3,10c.3,0,.6,.1,1.1,.2,0,0,0-.2,0-.3-.8-.6-1.7-1.2-2.6-1.7,0,1.1,.4,1.6,1.6,1.8Z"/>
        <path class="uuid-62f1258c-634c-4afb-9731-a16e04f96b6a" d="M2.3,26.8c-.1-2.3,0-4.5,.5-6.7-1.8,3.7-2.8,7.8-2.8,12.1s0,2,.2,3c.1-.8,.5-1.5,.9-2.3,1.1-1.9,1.4-4.1,1.2-6.2Z"/>
        <path class="uuid-62f1258c-634c-4afb-9731-a16e04f96b6a" d="M38.2,13.3c.1,1.4,.1,2.7,.2,4.1,0,1.4,.1,2.8,.2,4.2,0,.3,0,.7-.2,1-.9,1-1.1,2.2-.2,3.3,1.1-1,1.8-2.3,1.9-3.8,.1-1.6,0-3.3,1-4.7,.1-.2,.1-.5,.1-.7,0-.9,0-1.7,1-1.7-.2-1.5-.3-2.9-.5-4.2-.7,.3-1.4,.7-2.1,.9-1.3,.3-1.4,.5-1.3,1.9Z"/>
        <path class="uuid-62f1258c-634c-4afb-9731-a16e04f96b6a" d="M52.6,20.8c.4,1.1,1,2.1,1.6,3.1-.4-1.4-1-2.7-1.6-4-.1,.2-.1,.6,0,.9Z"/>
        <path class="uuid-62f1258c-634c-4afb-9731-a16e04f96b6a" d="M51.5,43.3h.4c-.6-.6-1.2-1.3-1.9-1.7-.6-.4-1.3-.5-1.9,.2-.1,.1-.3,.2-.5,.3-1.5,.6-1.8,2.1-2.2,3.4-.5,1.8-.7,3.5-.2,5.3,0,.3,0,.7-.2,.9-1.2,1.4-2.5,2.7-3.8,4.1-.8,.9-1.9,1-3.2,1.1,.2-.2,.2-.4,.3-.5l-.2-.2c-.2,.2-.5,.6-.8,.7-.6,.2-1.3,.2-2,.2-1.1,.1-1.7,1.3-1.2,2.2,7.8-1.8,14.3-6.8,18-13.6-.2-.5-.5-1-.7-1.6,0-.2,0-.5,0-.7Z"/>
        <path class="uuid-62f1258c-634c-4afb-9731-a16e04f96b6a" d="M50.3,30.1c-.6,.5-.4,1.4,.2,2.3,.5,.7,1,1.5,1.4,2.3,.4,1,0,1.5-1.2,1.4-2.3-.2-4.5,.4-6.8,.9-1.7,.4-3.5,.3-5.3,.5-.3,0-.7,0-1,0,.7,1,1.4,1.9,1.9,2.9,1.4,2.8,1.7,5.7,.8,8.7-.5,1.7-1.9,1.8-3.3,1.9-.7,0-1.4,0-2-.2-1.5-.5-3-.5-4.6,0-.7,.2-1.4,.2-2.1,.5-1.5,.6-1.8,1-1.4,2.6,.1,.6,.5,1.2,.7,1.8,.4,.9,1.1,1.3,2.1,1.4,1.2,.1,1.6,.8,.9,1.8-.2,.3-.5,.7-.7,1,1.1,0,2.3-.2,3.3-.5-.4-.6,0-1.3,.2-1.8,.2-.5,.8-.9,1.4-1.2,.7-.3,1.5-.5,2.2-.6,.4,0,.9-.2,1.3-.1,1.5,.5,2.3-.5,3.2-1.5,.8-.9,1.7-1.7,2.5-2.6,.3-.3,.4-.8,.4-1.2,0-1.3,0-2.7,0-4,0-.8,.4-1.5,.6-2.3,.2-1.2,1.1-1.9,2-2.6,.2-.2,.5-.3,.8-.4,1.1-.7,1.5-.7,2.6,.1,.9,.7,1.7,1.4,2.5,2.2-.2,.3-.2,.7-.2,1.1,1.8-3.7,2.9-7.9,2.9-12.3s-.2-3.3-.4-4.8c-.7,.3-1.4,.7-2.1,1-.9,.5-1.8,1.1-2.7,1.7Z"/>
        <path class="uuid-62f1258c-634c-4afb-9731-a16e04f96b6a" d="M11.8,43c-.2-2.5,.4-4.9,.8-7.4,.5-2.7,1.2-5.4,1-8.3,0-1.5,0-3.1,0-4.6,0-.9,.3-1.9,.4-2.8,.3-2.8,.5-5.7,.8-8.5,.1-1.3,.2-2.6,.3-4-4.6,2.4-8.5,6.1-11.2,10.5-.4,3.4-1,6.7-.8,10.2,0,1.6-.3,3.1-1.1,4.5-.5,.9-1,1.9-1,2.8,0,1.1,0,2.1-.1,3.2,1.3,5.5,4.3,10.3,8.3,13.9,.2-.7,.5-1.5,.8-2.2,1.2-2.4,2.1-4.8,1.8-7.5Z"/>
        <path class="uuid-62f1258c-634c-4afb-9731-a16e04f96b6a" d="M54.7,69c.1,0,.2,0,.4,0h-.4Z"/>
      </g>
      <g>
        <path class="uuid-f2b425d5-d9e7-43f9-8b61-fe2286863312" d="M79.8,10h0Z"/>
        <path class="uuid-f2b425d5-d9e7-43f9-8b61-fe2286863312" d="M79.8,10s0,0,0,0c0,.3,0,.6,0,.9h0c.2-.2,.2-.5,0-1Z"/>
        <path class="uuid-f2b425d5-d9e7-43f9-8b61-fe2286863312" d="M79.8,10h0s0,0,0,0c0,0,0,0,0,0Z"/>
        <path class="uuid-f2b425d5-d9e7-43f9-8b61-fe2286863312" d="M77.3,34.9c-1.9-1.3-4.7-2.1-8.3-2.3v-.4c3.6-.2,6.4-1,8.3-2.3,1.9-1.3,2.9-3.2,2.9-5.7s0-2.1,0-3.7c0-.6,0-1.2,0-1.8,0,0-.1,.2-.2,.2-.8,1-1.9,1.8-3,2.5-.6,.5-1.3,.8-2,1.2-.3,.1-.7,.2-1,.2-1.5,0-2.7,.6-3.6,1.7-.7,.9-1.4,1.7-2.2,2.6-.1,1-.3,1.7-.6,2.3-.5,1-1.3,1.6-2.5,1.8-.3,0-.7,.1-1.1,.2-.2,.2-.4,.5-.6,.7-.3,.3-.7,.6-1,.9,1.1,0,2,.2,2.7,.3,1.1,.3,1.9,.9,2.5,1.8,.5,.9,.8,2.4,.8,4.5s0,2.3-.1,4c0,.9,0,1.9-.1,2.8,1.5-.8,3.1-1.3,4.8-1.2,1.3,0,2.5,.5,3.8,.7,0-.6,.6-.7,1.1-.9,1-.4,1.7-1.1,2.4-1.9,0-1,0-1.9,0-2.6,0-2.5-1-4.4-2.9-5.7Z"/>
        <path class="uuid-f2b425d5-d9e7-43f9-8b61-fe2286863312" d="M75,.8c2.3-.7,4.7-.5,6.8,1,0,0,.1,0,.2,.1,.5-.2,1.2-.2,2-.2h1c.4,0,.8,0,1.2,0V.6c-1.8-.2-3.4-.3-4.9-.4-1.5,0-2.8-.1-4.1-.1-3.1,0-5.4,.5-6.9,1.4,1.6,0,3.1-.2,4.7-.7Z"/>
        <path class="uuid-f2b425d5-d9e7-43f9-8b61-fe2286863312" d="M79.9,64.4c-.3-.2-.6-.5-.9-.8-.5-.7-.9-.9-1.7-.4-.9,.5-1.8,.7-2.8,.5-.6-.1-1.1,.2-1.6,.6,1.2,.3,2.6,.4,4.3,.4s2.5,0,4-.1c1.5,0,3.1-.2,4.8-.4v-1.1c-.5,0-.9,0-1.3,0h-1.2c-.8,0-1.5-.1-2.1-.3-.2,.6-.8,1.1-1.1,1.6,0,.1-.4,.1-.6,0Z"/>
        <path class="uuid-f2b425d5-d9e7-43f9-8b61-fe2286863312" d="M79.7,63.4c.1,.1,.4,.2,.5,.2,.1-.5,.6-.7,.9-1.2-.3-.2-.5-.4-.7-.6-.1-.2-.2-.4-.3-.7-.5,.4-1,.8-1.5,1.1,.4,.4,.7,.8,1,1.2Z"/>
        <path class="uuid-f2b425d5-d9e7-43f9-8b61-fe2286863312" d="M73.6,62.5c.5,0,1,.4,1.6,.4,1.6,.2,2.7-.8,3.9-1.6,.3-.2,.6-.5,.9-.7-.2-.9-.3-2.2-.3-3.9s0-1.3,0-2.2c-2.7,0-5,.9-7,2.8-1.2,1.2-2.7,1.2-4.2,.7-.3-.1-.6-.2-.8-.3,.1,1.3,.4,2.3,.8,3.2,.3,.1,.6,.2,.9,.3,1.5,.3,2.7,1.3,4.2,1.4Z"/>
        <path class="uuid-f2b425d5-d9e7-43f9-8b61-fe2286863312" d="M70,62.7c.5,.3,.9,.6,1.3,.9,.3,.1,.6,.2,1,.3,.5-.3,1-.5,1.4-.8-.5-.1-1-.2-1.5-.4-.8-.2-1.6-.5-2.4-.8-.3-.1-.6-.2-.9-.3,.2,.3,.4,.5,.6,.8,.1,0,.3,0,.4,.2Z"/>
        <path class="uuid-f2b425d5-d9e7-43f9-8b61-fe2286863312" d="M69.9,57.8c1,.1,1.9-.2,2.7-.9,1.3-1.1,2.6-2.2,4.3-2.4,.9-.2,1.9-.2,2.8-.3,0-.2,0-.4,0-.6,0-1.3,.1-2.8,.2-4.4,0-1.6,.1-3.1,.2-4.7,0-.2,0-.3,0-.5-.7,.8-1.6,1.5-2.7,1.8-.2,1.1-.3,1.2-1.3,.6-1.8-.9-3.7-.9-5.6-.4-.8,.2-1.7,.6-2.4,1,0,.6,0,1.1,0,1.7,0,1.7-.1,3.3-.2,4.7,0,1.4-.1,2.3-.1,2.7s0,.7,0,1.1c0,0,0,0,0,0,.7,.3,1.4,.5,2.1,.6Z"/>
        <path class="uuid-f2b425d5-d9e7-43f9-8b61-fe2286863312" d="M74,22.3c.6,0,1.2-.3,1.7-.6,1.2-.8,2.4-1.7,3.6-2.6,.3-.3,.5-.7,.7-1.1,0,0,0-.2,.1-.3,0-.7,0-1.4,0-2.1,0-1.6-.1-3.1-.2-4.5-.1,.3-.4,.6-.6,.8-.5,.6-1.2,1.1-1.8,1.6-.2,.2-.4,.3-.6,.5-.3,.2-.7,.5-1.1,.5-1.1,.2-1.4,.7-1.4,1.5,0,.1,0,.2,0,.4,0,1.2-.5,1.6-1.8,1.5,.5-.2,1-.5,1.5-.8,0-.4,0-.9,0-1.4,0-.8,.5-1.6,1.3-1.6,1.2,0,1.8-.9,2.6-1.5,.9-.6,1.6-1.5,1.7-2.6,0,0,0,0,0,0,0-.9,0-1.6,0-2.1,0-.7,0-1.4,0-1.9,0,0-.1,0-.2,0-.9-.1-1.3,.2-1.8,.9-.6,.8-1.5,1.4-2.4,2.1-1.2,1-2.3,2.1-2.8,3.7-.2,.6-.5,1.1-.7,1.7,0,0,0,0,0,0h0c-.3,.8-.3,1.8-1.5,2.2,.1-.2,.2-.3,.2-.5,.2-.4,.5-.9,.7-1.3,.1-.2,.3-.3,.5-.4h0c0-.2-.1-.4,0-.6,.6-1.6,1.1-3.2,2.4-4.3,.8-.6,1.6-1.2,2.3-1.8,.5-.5,.9-1.1,1.3-1.6,.1-.2,.3-.3,.5-.4,.5,0,1-.1,1.5-.2,.1-1.3,.4-2.3,.7-2.8,.2-.2,.4-.4,.7-.6-1.6-.9-3.4-1.2-5.2-1.1-.7,0-1.5,.2-2.1,.5-1.3,.5-2.7,.6-4.1,.4-1.4,1.3-2.1,3.5-2.1,6.6s0,1.4,.1,2.8c0,1.4,.1,2.9,.2,4.7,0,1.7,.1,3.4,.2,5.1,0,1.6,.1,2.9,.1,3.9s0,1,0,1.5c.8-.9,1.6-1.9,2.5-2.8,.9-.9,1.9-1.3,3.3-1.3Zm-5.8-11.5h-.2c.2-.4,.4-.7,.6-.9,1.1-.6,1.3-1.6,1.4-2.6,0-.5,.3-1.1,.6-1.4,.6-.6,1.3-1.1,2-1.6,.3-.2,.8-.3,1.1-.4h0c-.6,.6-1.3,1-1.9,1.5-.3,.2-.7,.4-.9,.7-.3,.4-.5,.9-.6,1.3-.1,.5-.2,.9-.3,1.4-.2,1.1-1.3,1.3-1.9,2Z"/>
        <path class="uuid-f2b425d5-d9e7-43f9-8b61-fe2286863312" d="M60.4,31.7v1.4c.4,0,.8,0,1.1,0,.5-.5,1-1,1.6-1.5-.8,0-1.7,.1-2.7,.1Z"/>
        <polygon class="uuid-f2b425d5-d9e7-43f9-8b61-fe2286863312" points="71.8 14.4 71.8 14.4 71.8 14.4 71.8 14.4 71.8 14.4"/>
      </g>
    </g>
  </g>
</svg>